<?xml version="1.0" standalone="no"?>
<!DOCTYPE svg PUBLIC "-//W3C//DTD SVG 20010904//EN"
 "http://www.w3.org/TR/2001/REC-SVG-20010904/DTD/svg10.dtd">
<svg version="1.0" xmlns="http://www.w3.org/2000/svg"
 width="1251.000000pt" height="835.000000pt" viewBox="0 0 1251.000000 835.000000"
 preserveAspectRatio="xMidYMid meet">

<g transform="translate(0.000000,835.000000) scale(0.100000,-0.100000)"
fill="#000000" stroke="none">
<path d="M7035 7802 c-134 -46 -211 -118 -315 -292 -221 -369 -353 -823 -402
-1382 -8 -89 -16 -138 -24 -138 -25 0 -131 42 -193 77 -82 45 -203 166 -252
251 -33 56 -68 150 -84 225 -3 15 -10 27 -15 27 -20 0 -22 -54 -6 -113 51
-184 194 -356 366 -441 52 -25 119 -52 148 -59 l52 -12 0 -109 c0 -183 44
-411 103 -534 32 -69 49 -62 64 26 20 124 47 190 115 280 78 104 187 144 243
87 31 -30 33 -82 4 -118 -11 -15 -53 -49 -94 -77 -99 -69 -144 -137 -159 -241
-12 -84 30 -149 97 -149 33 0 83 34 142 97 60 63 102 136 135 236 12 37 29 71
38 76 10 5 46 16 82 25 71 18 128 49 178 95 40 37 42 38 42 6 0 -82 82 -199
182 -258 129 -76 288 -89 402 -33 76 37 319 273 418 404 39 52 77 96 84 99 13
5 114 -45 114 -57 0 -4 -45 -90 -100 -191 -171 -315 -210 -449 -157 -544 32
-57 82 -79 177 -79 186 0 370 120 592 386 50 60 100 111 113 114 15 4 36 -3
62 -20 21 -14 54 -29 73 -32 70 -14 74 -32 30 -152 -44 -122 -54 -202 -36
-290 18 -86 37 -117 89 -143 51 -27 108 -20 197 23 79 39 211 166 291 282 38
54 55 72 57 60 7 -49 14 -65 38 -93 33 -39 73 -41 138 -6 26 14 52 22 58 19
11 -7 2 -339 -11 -361 -3 -7 -49 -38 -101 -69 -134 -80 -222 -149 -316 -246
-262 -270 -354 -609 -232 -853 98 -195 349 -291 518 -199 108 59 219 222 254
374 35 154 45 410 25 675 -15 205 -15 283 -1 297 7 7 65 16 135 22 109 8 130
7 173 -8 73 -26 114 -31 114 -14 0 47 -119 73 -297 66 -61 -3 -117 -2 -125 3
-10 7 -13 47 -11 191 2 101 5 197 8 213 3 19 28 54 65 92 69 72 104 135 96
169 -8 31 -59 57 -96 49 -64 -14 -152 -148 -169 -257 -7 -42 -16 -58 -42 -81
-52 -44 -89 -61 -103 -47 -15 15 -11 90 9 154 22 69 18 90 -18 94 -45 5 -70
-19 -163 -160 -107 -163 -220 -279 -313 -326 -116 -58 -172 -37 -170 65 0 62
37 196 82 303 43 99 45 129 15 165 -18 19 -42 29 -106 42 -101 20 -146 46
-150 89 -2 18 11 63 32 112 49 113 63 188 47 242 -15 50 -58 80 -117 80 -92 0
-154 -84 -162 -219 -4 -73 -3 -79 37 -154 23 -43 41 -86 41 -96 0 -29 -120
-179 -226 -282 -106 -102 -202 -165 -301 -198 -88 -30 -147 -28 -180 5 -23 23
-25 31 -20 82 13 118 83 276 206 466 39 60 73 123 77 141 10 54 -17 90 -96
130 -94 47 -98 58 -60 146 50 113 58 203 24 270 -41 81 -170 88 -232 13 -30
-36 -52 -93 -52 -136 0 -49 32 -129 77 -195 55 -80 56 -75 -39 -219 -84 -126
-272 -313 -368 -363 -55 -30 -74 -34 -135 -34 -88 0 -160 30 -224 94 -55 55
-82 115 -89 195 -5 73 -3 76 86 85 110 11 156 83 112 174 -36 74 -90 91 -166
54 -58 -27 -106 -83 -153 -176 -57 -113 -152 -197 -249 -218 -46 -10 -77 14
-106 79 -26 58 -58 89 -113 107 -43 14 -120 6 -165 -17 -50 -26 -129 -114
-168 -188 -19 -36 -38 -66 -41 -66 -17 0 -43 146 -47 270 -5 159 -10 150 119
203 173 72 306 164 465 322 151 150 248 277 358 469 117 202 241 521 253 649
16 172 -103 332 -294 396 -80 27 -215 28 -288 3z m230 -33 c80 -15 186 -70
224 -116 18 -21 43 -63 58 -92 23 -51 25 -63 21 -155 -6 -110 -21 -166 -91
-326 -154 -356 -430 -730 -677 -917 -161 -121 -345 -196 -364 -147 -19 48 3
335 44 566 54 312 121 537 220 746 102 213 164 299 274 380 90 66 172 83 291
61z m1155 -1469 c39 -21 51 -115 25 -189 -39 -111 -87 -130 -135 -54 -54 84
-52 163 5 220 34 34 70 42 105 23z m790 -369 c19 -37 11 -110 -21 -187 -17
-41 -39 -84 -49 -96 -15 -20 -20 -21 -35 -8 -32 26 -48 74 -48 135 1 68 26
139 56 160 31 22 84 19 97 -4z m-1625 -41 c8 -16 15 -38 15 -49 0 -28 -48 -51
-109 -51 -50 0 -50 0 -41 26 23 60 66 101 107 103 7 1 19 -12 28 -29z m-755
-430 c0 -67 -96 -265 -142 -294 -24 -14 -49 2 -61 39 -21 62 52 202 134 257
54 36 69 36 69 -2z m3533 -9 c-7 -27 -62 -91 -79 -91 -8 0 -14 7 -14 15 0 24
38 93 57 104 23 12 43 -3 36 -28z m-241 -796 c12 -71 30 -647 23 -760 -16
-271 -78 -409 -207 -465 -147 -63 -371 35 -444 195 -36 77 -49 190 -35 290 38
273 208 507 526 724 105 71 127 74 137 16z"/>
<path d="M2367 6430 c-141 -24 -258 -81 -363 -175 l-59 -53 -91 89 c-92 90
-118 103 -154 78 -12 -8 0 -23 65 -84 44 -42 95 -85 112 -98 18 -12 33 -26 33
-30 0 -5 -11 -23 -24 -40 -34 -45 -95 -170 -122 -249 -44 -131 -59 -224 -58
-383 0 -330 96 -673 254 -905 140 -206 431 -352 700 -352 245 0 353 77 524
374 60 104 69 138 36 138 -13 0 -30 -20 -56 -67 -110 -201 -184 -290 -281
-338 -49 -24 -73 -30 -154 -33 -148 -6 -253 23 -381 107 -229 149 -396 430
-457 767 -44 244 -49 502 -15 674 17 81 63 200 93 239 l18 24 44 -26 c66 -39
214 -93 301 -111 181 -37 354 -3 457 90 98 87 113 203 38 282 -65 68 -297 109
-460 82z m315 -77 c106 -24 143 -73 118 -156 -8 -27 -29 -59 -60 -89 -119
-115 -335 -117 -620 -7 -113 43 -117 51 -51 110 59 53 180 120 251 139 109 29
243 31 362 3z"/>
<path d="M5641 5870 c-80 -19 -168 -116 -211 -231 -12 -31 -31 -112 -44 -179
-21 -118 -37 -153 -49 -113 -25 79 -40 148 -62 272 -27 157 -42 191 -80 191
-34 0 -61 -30 -76 -82 -47 -173 -95 -322 -120 -375 -55 -116 -146 -183 -227
-168 -46 9 -136 100 -181 185 -41 77 -48 142 -31 289 11 99 11 113 -4 136 -11
17 -26 25 -45 25 -39 0 -47 -25 -66 -206 -15 -153 -26 -197 -64 -273 -41 -79
-109 -82 -143 -4 -32 73 -11 166 49 213 23 18 36 21 76 16 38 -5 49 -4 53 9
16 40 -58 65 -131 45 -81 -23 -165 -116 -180 -202 -4 -21 -2 -59 6 -87 11 -46
10 -60 -13 -154 -27 -109 -82 -239 -124 -295 -56 -72 -135 -94 -178 -47 -31
33 -64 149 -77 265 -27 250 -54 285 -184 240 -33 -12 -87 -24 -121 -27 -57 -5
-62 -4 -82 22 -14 17 -22 42 -22 66 0 247 -113 405 -238 329 -72 -44 -95 -128
-63 -230 28 -87 77 -151 148 -192 67 -39 83 -64 83 -130 0 -76 30 -74 46 2 l9
45 50 2 c28 2 81 8 118 14 44 8 71 9 78 2 5 -5 16 -52 24 -104 16 -98 45 -201
72 -253 9 -16 38 -53 65 -82 87 -92 166 -94 260 -7 84 79 140 192 183 370 l17
73 28 -24 c38 -32 91 -41 128 -22 36 19 98 87 119 131 9 19 20 35 24 35 5 0
16 -17 26 -37 26 -55 122 -146 187 -178 207 -101 356 37 457 425 l12 45 23
-90 c69 -257 138 -421 182 -432 36 -9 48 14 56 105 19 212 72 433 121 504 37
54 108 100 148 96 50 -5 64 -46 77 -218 26 -351 81 -579 176 -728 20 -31 75
-96 122 -145 71 -74 83 -90 71 -101 -8 -8 -79 -39 -159 -71 -80 -32 -199 -85
-265 -118 -66 -33 -172 -81 -235 -107 -63 -26 -144 -60 -180 -76 -50 -22 -84
-29 -150 -32 -76 -3 -89 -1 -120 20 -71 48 -76 151 -9 179 37 15 36 46 -1 41
-52 -8 -100 -67 -100 -124 0 -46 42 -112 90 -138 39 -22 57 -25 140 -25 127 0
220 34 630 230 253 121 330 155 373 165 39 8 41 7 184 -101 168 -127 246 -173
351 -206 151 -48 307 -38 437 27 75 37 99 59 169 150 53 69 56 75 56 131 0
164 -114 281 -295 304 -112 14 -320 -35 -505 -119 -126 -58 -176 -74 -253 -82
-82 -8 -104 3 -193 99 -69 74 -137 187 -168 278 -23 71 -45 254 -55 464 -11
221 -25 279 -79 336 -40 42 -82 54 -141 39z m-2439 -225 c24 -33 30 -57 40
-146 13 -116 9 -139 -23 -139 -76 0 -179 185 -148 267 29 76 85 84 131 18z
m3956 -876 c84 -43 124 -101 130 -188 5 -71 -6 -95 -86 -177 -94 -99 -187
-134 -352 -134 -167 1 -250 33 -417 166 -103 81 -138 124 -117 143 13 11 258
125 352 162 118 48 231 70 336 65 76 -3 97 -8 154 -37z"/>
<path d="M8043 4716 c-96 -31 -155 -67 -232 -140 -238 -227 -363 -557 -430
-1134 -11 -90 -21 -165 -23 -168 -10 -9 -148 67 -201 110 -60 49 -77 51 -77
11 0 -31 70 -92 162 -140 112 -59 118 -68 118 -169 0 -83 -1 -87 -45 -158 -66
-109 -145 -208 -193 -245 -55 -41 -138 -67 -222 -67 -137 0 -259 99 -289 235
-12 54 -5 65 66 85 84 24 113 65 99 137 -7 36 -57 91 -93 101 -26 8 -88 -16
-121 -47 -35 -33 -69 -95 -85 -159 -27 -104 -168 -272 -271 -323 -94 -47 -272
-21 -346 50 -44 42 -82 120 -83 172 l-2 46 65 26 c56 23 66 31 78 63 19 49 9
84 -34 125 -63 59 -139 51 -182 -19 -11 -18 -36 -78 -54 -134 -41 -121 -120
-266 -198 -365 -65 -82 -113 -121 -175 -145 -37 -14 -47 -14 -71 -2 -61 29
-69 111 -29 303 31 153 32 189 2 219 -20 20 -36 24 -125 29 -134 7 -156 19
-149 85 2 26 12 83 22 127 15 66 16 89 7 138 -6 33 -19 69 -29 80 -62 69 -167
47 -212 -46 -43 -90 -21 -218 54 -306 37 -43 45 -60 45 -92 0 -31 4 -39 18
-39 10 0 23 5 28 10 7 7 35 4 85 -10 40 -11 89 -20 108 -20 l34 0 -6 -52 c-3
-29 -11 -92 -17 -140 -13 -100 -4 -172 34 -253 59 -129 185 -133 324 -10 61
53 156 183 200 273 20 39 39 72 43 72 3 0 11 -17 17 -38 23 -76 97 -159 179
-201 104 -52 212 -63 315 -31 107 33 172 89 269 231 22 32 43 59 47 59 4 0 13
-20 20 -44 36 -137 206 -241 392 -240 72 1 97 6 163 34 113 47 151 80 236 209
l76 113 8 -83 c13 -142 46 -349 59 -377 20 -41 58 -58 96 -43 44 18 61 50 79
144 18 99 47 159 103 215 62 62 126 55 101 -12 -8 -20 -64 -56 -88 -56 -4 0
-21 -11 -37 -23 -38 -31 -37 -70 4 -141 43 -75 110 -148 181 -195 111 -74 182
-76 256 -8 77 71 117 180 173 477 47 250 138 353 325 367 175 13 361 -42 673
-199 639 -323 1099 -494 1512 -562 466 -77 880 -20 1137 155 63 43 173 148
173 166 0 26 -32 12 -82 -37 -307 -302 -895 -360 -1593 -159 -269 78 -579 206
-1085 449 -409 196 -493 224 -680 225 -130 0 -176 -11 -246 -58 -98 -65 -133
-144 -199 -447 -38 -177 -77 -271 -134 -331 -41 -42 -53 -49 -87 -49 -76 0
-202 100 -268 212 -38 65 -32 85 36 130 88 58 112 125 63 173 -32 33 -70 32
-126 -4 -54 -34 -115 -121 -149 -211 -23 -62 -24 -63 -31 -35 -35 140 -62 522
-38 541 8 6 68 14 134 17 279 11 528 126 740 341 193 194 323 434 355 654 23
153 -22 293 -129 401 -156 160 -359 218 -548 157z m353 -70 c108 -53 221 -165
254 -251 48 -125 18 -349 -70 -533 -57 -120 -129 -219 -230 -316 -151 -145
-339 -252 -524 -297 -100 -24 -280 -35 -319 -20 l-27 11 5 147 c14 369 73 642
192 882 138 280 331 426 554 419 76 -3 94 -7 165 -42z m-3537 -1235 c31 -31
35 -88 11 -189 -24 -104 -36 -119 -69 -95 -74 51 -83 252 -14 292 27 16 51 13
72 -8z m1860 -327 c28 -35 26 -48 -8 -77 -28 -23 -97 -44 -108 -33 -12 11 9
77 33 106 32 37 56 38 83 4z m-884 0 c27 -11 38 -54 19 -75 -18 -20 -82 -45
-91 -35 -11 10 7 73 28 94 22 25 21 24 44 16z"/>
<path d="M4023 4140 c-103 -27 -181 -71 -270 -153 -95 -88 -199 -258 -241
-399 -86 -279 -69 -678 37 -904 92 -197 390 -357 666 -357 110 0 187 24 295
91 80 50 220 176 220 199 0 34 -31 21 -86 -37 -70 -73 -182 -151 -256 -176
-77 -27 -211 -25 -308 5 -121 37 -206 87 -292 172 -134 131 -187 277 -195 539
-9 258 32 490 117 667 60 124 121 191 214 234 210 98 443 38 587 -151 18 -23
30 -32 37 -25 32 34 -83 178 -197 245 -121 71 -201 83 -328 50z"/>
<path d="M3703 1515 c-55 -38 -90 -195 -60 -268 24 -57 82 -71 129 -30 24 22
44 123 26 134 -21 14 -55 10 -62 -7 -9 -22 -8 -24 10 -24 12 0 14 -7 9 -32 -8
-36 -22 -49 -45 -45 -24 4 -20 150 5 202 23 46 58 56 63 17 3 -19 9 -23 30
-20 21 2 26 8 24 23 -10 55 -81 83 -129 50z"/>
<path d="M8145 1520 c-30 -12 -46 -35 -47 -67 -1 -41 14 -64 72 -113 65 -54
78 -77 55 -99 -15 -15 -18 -14 -36 8 -16 19 -22 21 -34 11 -34 -28 1 -70 57
-70 45 0 78 34 78 80 0 29 -10 44 -70 101 -38 37 -70 74 -70 83 0 27 31 32 50
8 l18 -21 18 20 c18 21 18 21 -9 45 -29 25 -48 28 -82 14z"/>
<path d="M7868 1472 c-83 -14 -88 -16 -88 -39 0 -23 3 -25 34 -19 l34 7 11
-68 c40 -238 34 -218 61 -215 14 2 26 5 28 7 1 1 -8 66 -21 143 l-24 140 34 7
c18 3 33 11 33 18 -1 30 -15 33 -102 19z"/>
<path d="M4031 1458 c-5 -13 -32 -83 -61 -155 -28 -73 -49 -137 -45 -143 14
-22 34 -8 51 35 17 46 22 49 61 39 18 -5 23 -14 25 -53 3 -42 6 -46 30 -49
l27 -3 -6 163 c-3 90 -8 166 -12 169 -3 4 -18 9 -34 13 -22 5 -29 2 -36 -16z
m29 -139 c0 -49 -9 -59 -37 -41 -9 6 -8 19 5 54 9 26 20 44 24 42 4 -3 8 -27
8 -55z"/>
<path d="M4296 1408 c-16 -98 -36 -252 -36 -278 0 -25 4 -30 24 -30 22 0 26 6
31 48 8 61 12 72 25 72 13 0 15 -7 30 -82 10 -52 14 -58 36 -58 28 0 29 11 10
91 -13 57 -13 57 16 84 58 55 22 157 -60 171 -20 3 -45 8 -54 10 -13 4 -18 -3
-22 -28z m96 -45 c10 -9 18 -23 18 -32 0 -28 -30 -61 -55 -61 -22 0 -24 3 -19
33 14 86 20 92 56 60z"/>
<path d="M7621 1431 c-12 -8 -12 -22 -3 -93 7 -45 12 -90 12 -98 -1 -8 -23 29
-51 83 -34 67 -55 97 -67 97 -40 -1 -41 -9 -19 -175 21 -151 23 -160 45 -163
26 -4 26 -3 8 120 -6 48 -9 85 -6 83 3 -2 25 -44 50 -94 39 -80 47 -91 70 -91
15 0 29 2 31 5 3 2 -5 78 -18 167 -12 90 -22 164 -23 166 0 5 -16 1 -29 -7z"/>
<path d="M4597 1357 c-14 -103 -29 -288 -25 -293 3 -2 28 -6 56 -7 42 -2 55 2
78 23 82 76 85 235 4 291 -14 9 -44 20 -66 23 l-41 6 -6 -43z m98 -47 c29 -56
17 -148 -25 -190 -44 -44 -47 -21 -23 173 7 55 25 62 48 17z"/>
<path d="M7261 1388 c-35 -4 -64 -8 -66 -10 -1 -2 30 -301 35 -325 0 -5 65 -3
103 3 30 6 37 11 37 30 0 22 -3 23 -44 18 l-43 -6 -6 38 c-10 58 -9 64 13 64
13 0 20 7 20 20 0 14 -7 20 -24 20 -22 0 -24 5 -28 50 l-3 50 43 6 c23 3 42
11 42 18 -1 27 -16 31 -79 24z"/>
<path d="M4914 1355 c-2 -5 -10 -81 -17 -167 l-12 -157 61 -7 c69 -7 84 -2 84
27 0 16 -7 19 -42 19 l-43 0 3 50 c4 44 6 50 27 50 14 0 25 7 28 20 4 16 0 20
-19 20 -22 0 -24 4 -24 50 l0 50 46 0 c41 0 45 2 42 23 -3 20 -10 23 -67 27
-38 3 -65 1 -67 -5z"/>
<path d="M7027 1363 c-3 -5 -11 -59 -18 -120 -7 -62 -15 -113 -18 -113 -3 0
-21 52 -40 115 -33 112 -41 124 -70 106 -13 -8 -8 -34 32 -167 26 -86 49 -159
51 -161 3 -3 18 -2 34 2 l29 6 17 132 c10 73 20 149 23 170 5 33 3 37 -15 37
-12 0 -23 -3 -25 -7z"/>
<path d="M5186 1233 c-4 -60 -9 -134 -12 -165 -5 -56 -4 -58 19 -58 24 0 25 3
32 103 4 56 9 98 11 92 2 -5 16 -53 32 -105 24 -82 31 -95 51 -98 13 -2 27 0
31 5 4 4 11 81 15 171 7 159 7 162 -13 162 -23 0 -30 -31 -35 -150 -2 -64 -2
-65 -14 -30 -6 19 -21 68 -33 108 -20 68 -23 72 -49 72 l-29 0 -6 -107z"/>
<path d="M6597 1333 c-3 -5 -1 -62 4 -128 4 -66 8 -139 8 -162 l1 -43 58 0
c61 0 75 5 85 32 5 14 -2 17 -41 20 l-47 3 -3 48 c-3 41 -1 47 16 47 11 0 23
7 26 16 9 23 8 24 -18 24 -19 0 -24 6 -30 38 -9 58 -9 59 40 67 35 5 44 10 40
22 -3 8 -6 17 -6 19 0 7 -129 4 -133 -3z"/>
<path d="M5534 1306 c-44 -37 -38 -79 19 -155 46 -62 59 -103 35 -117 -6 -4
-20 4 -32 19 -18 22 -23 24 -38 13 -24 -18 -23 -28 7 -56 68 -64 168 19 123
103 -6 12 -29 44 -50 71 -43 54 -47 89 -12 94 16 2 24 -4 30 -22 9 -24 9 -24
32 -5 l24 19 -30 30 c-37 36 -71 38 -108 6z"/>
<path d="M6099 1318 c-35 -12 -56 -60 -41 -92 8 -19 6 -27 -11 -45 -33 -32
-31 -129 2 -165 46 -49 131 -43 167 12 10 15 18 48 19 77 1 27 5 58 10 69 15
33 -15 36 -60 5 -53 -36 -70 -55 -55 -64 5 -3 19 -3 30 0 16 5 20 2 20 -17 0
-34 -27 -68 -55 -68 -30 0 -45 26 -45 79 0 32 5 44 25 57 28 18 32 39 10 48
-19 7 -20 52 0 60 8 3 22 -2 30 -11 14 -14 18 -14 31 -1 33 32 -25 74 -77 56z"/>
</g>
</svg>
