<?xml version="1.0" encoding="UTF-8" standalone="no"?>
<svg
   xmlns:dc="http://purl.org/dc/elements/1.1/"
   xmlns:cc="http://creativecommons.org/ns#"
   xmlns:rdf="http://www.w3.org/1999/02/22-rdf-syntax-ns#"
   xmlns:svg="http://www.w3.org/2000/svg"
   xmlns="http://www.w3.org/2000/svg"
   xmlns:sodipodi="http://sodipodi.sourceforge.net/DTD/sodipodi-0.dtd"
   xmlns:inkscape="http://www.inkscape.org/namespaces/inkscape"
   id="Layer_1"
   data-name="Layer 1"
   viewBox="0 0 1677.0535 242.55"
   version="1.1"
   sodipodi:docname="expressLogo.svg"
   inkscape:version="0.92.4 (5da689c313, 2019-01-14)"
   width="1677.0536"
   height="242.55">
  <metadata
     id="metadata43">
    <rdf:RDF>
      <cc:Work
         rdf:about="">
        <dc:format>image/svg+xml</dc:format>
        <dc:type
           rdf:resource="http://purl.org/dc/dcmitype/StillImage" />
        <dc:title>GRG_Logo_Primary_RGB</dc:title>
      </cc:Work>
    </rdf:RDF>
  </metadata>
  <sodipodi:namedview
     pagecolor="#ffffff"
     bordercolor="#666666"
     borderopacity="1"
     objecttolerance="10"
     gridtolerance="10"
     guidetolerance="10"
     inkscape:pageopacity="0"
     inkscape:pageshadow="2"
     inkscape:window-width="1920"
     inkscape:window-height="1137"
     id="namedview41"
     showgrid="false"
     inkscape:zoom="0.52622162"
     inkscape:cx="425.29892"
     inkscape:cy="93.400197"
     inkscape:window-x="-8"
     inkscape:window-y="-4"
     inkscape:window-maximized="1"
     inkscape:current-layer="Layer_1"
     fit-margin-top="0"
     fit-margin-left="0"
     fit-margin-right="0"
     fit-margin-bottom="0" />
  <defs
     id="defs12">
    <style
       id="style10">.cls-1{fill:#0033a1;}.cls-2{fill:#575756;}</style>
  </defs>
  <title
     id="title14">GRG_Logo_Primary_RGB</title>
  <path
     class="cls-1"
     d="M 197.63,212.56 194,215.43 A 118.18,118.18 0 0 1 48.57,215.59 L 44.96,212.8 14.72,242.23 0,227.27 30.14,198.08 27.26,194.36 a 118.13,118.13 0 0 1 0,-145.64 L 30.09,45.08 0.07,14.8 15,0 45,30.28 48.66,27.45 a 118.15,118.15 0 0 1 145,0 l 3.65,2.82 L 227.36,0.24 242.26,15 212.17,45.12 215,48.78 A 118.12,118.12 0 0 1 215.27,194 l -2.81,3.66 29.92,30 -14.88,14.89 z M 121.15,23.63 a 98,98 0 1 0 98,97.93 98.07,98.07 0 0 0 -98,-97.93 z"
     id="path16"
     inkscape:connector-curvature="0"
     style="fill:#0033a1" />
  <path
     class="cls-2"
     d="m 423.5,212.62 a 81.69,81.69 0 0 1 -30.27,5.93 q -19.38,0 -34.63,-7.14 a 78,78 0 0 1 -25.9,-19.25 84,84 0 0 1 -16.23,-27.85 97.28,97.28 0 0 1 -5.57,-32.68 122.64,122.64 0 0 1 5.21,-36 88.37,88.37 0 0 1 15.5,-29.9 75.16,75.16 0 0 1 25.66,-20.46 q 15.38,-7.64 36,-7.63 A 104.14,104.14 0 0 1 419.74,41 67.11,67.11 0 0 1 442,51.24 61.08,61.08 0 0 1 458.48,69 q 6.66,10.77 9.09,26 h -23 a 45.34,45.34 0 0 0 -6.3,-17 40.64,40.64 0 0 0 -11.38,-11.75 50.66,50.66 0 0 0 -15.38,-6.9 70.64,70.64 0 0 0 -18.28,-2.3 q -15.75,0 -27,6.3 a 54.38,54.38 0 0 0 -18.4,16.58 72.26,72.26 0 0 0 -10.53,23.49 108.05,108.05 0 0 0 -3.39,27 87.3,87.3 0 0 0 3.87,26 68,68 0 0 0 11.38,22 55.82,55.82 0 0 0 18.52,15.26 q 11,5.69 25.55,5.69 a 61.74,61.74 0 0 0 24,-4.36 49.35,49.35 0 0 0 28.33,-29.91 58.84,58.84 0 0 0 3.12,-22.1 h -55.21 v -19.36 h 75.79 v 91 h -14.53 l -6.05,-21.55 a 57.48,57.48 0 0 1 -25.18,19.53 z"
     id="path18"
     inkscape:connector-curvature="0"
     style="fill:#575756" />
  <path
     class="cls-2"
     d="M 514.56,41.8 V 214.68 H 494 V 41.8 Z"
     id="path20"
     inkscape:connector-curvature="0"
     style="fill:#575756" />
  <path
     class="cls-2"
     d="m 539,126.42 a 58.3,58.3 0 0 1 11.63,-20.82 54.53,54.53 0 0 1 19.12,-13.92 q 11.38,-5.1 26.15,-5.09 15,0 26.27,5.09 a 54.84,54.84 0 0 1 19,13.92 58.45,58.45 0 0 1 11.63,20.82 83.48,83.48 0 0 1 3.87,25.79 82.34,82.34 0 0 1 -3.87,25.67 58.61,58.61 0 0 1 -11.63,20.7 53.68,53.68 0 0 1 -19,13.8 q -11.25,5 -26.27,5 -14.76,0 -26.15,-5 A 53.39,53.39 0 0 1 550.63,198.58 58.46,58.46 0 0 1 539,177.88 82.34,82.34 0 0 1 535.13,152.21 83.48,83.48 0 0 1 539,126.42 Z m 21,46 a 42.17,42.17 0 0 0 8.35,14.77 36.21,36.21 0 0 0 12.47,9.08 37.94,37.94 0 0 0 30.27,0 36.21,36.21 0 0 0 12.47,-9.08 42.32,42.32 0 0 0 8.35,-14.77 62.21,62.21 0 0 0 3,-20.22 62.25,62.25 0 0 0 -3,-20.22 43.74,43.74 0 0 0 -8.35,-14.89 35.66,35.66 0 0 0 -12.47,-9.2 37.94,37.94 0 0 0 -30.27,0 35.66,35.66 0 0 0 -12.47,9.2 43.57,43.57 0 0 0 -8.35,14.91 62.25,62.25 0 0 0 -3,20.22 62.21,62.21 0 0 0 3,20.21 z"
     id="path22"
     inkscape:connector-curvature="0"
     style="fill:#575756" />
  <path
     class="cls-2"
     d="m 695.21,41.8 v 64.65 h 0.49 a 30.82,30.82 0 0 1 16,-15.14 59.58,59.58 0 0 1 24,-4.72 q 14.52,0 25.3,5.33 a 51.49,51.49 0 0 1 17.92,14.4 63.93,63.93 0 0 1 10.78,21 85.64,85.64 0 0 1 3.63,25.18 88.62,88.62 0 0 1 -3.51,25.18 59.51,59.51 0 0 1 -10.66,20.71 50.23,50.23 0 0 1 -17.91,13.92 q -10.79,5.09 -25.07,5.08 a 62.33,62.33 0 0 1 -10.29,-1 57.68,57.68 0 0 1 -11.26,-3.15 44,44 0 0 1 -10.53,-5.93 33.17,33.17 0 0 1 -8.4,-9.31 h -0.49 v 16.71 H 674.63 V 41.8 Z m 74,92.13 a 46.07,46.07 0 0 0 -7,-14.89 34.3,34.3 0 0 0 -12.1,-10.41 36.72,36.72 0 0 0 -17.32,-3.88 q -10.41,0 -17.67,4.12 a 35.34,35.34 0 0 0 -11.87,10.77 45,45 0 0 0 -6.66,15.14 72.69,72.69 0 0 0 -2,17.19 71.71,71.71 0 0 0 2.18,17.79 43.91,43.91 0 0 0 6.9,15.14 35.13,35.13 0 0 0 12.22,10.53 q 7.51,4 18.16,4 10.65,0 17.8,-4.12 a 32.94,32.94 0 0 0 11.5,-10.9 47.39,47.39 0 0 0 6.3,-15.49 82.54,82.54 0 0 0 1.83,-17.92 64.15,64.15 0 0 0 -2.29,-17.07 z"
     id="path24"
     inkscape:connector-curvature="0"
     style="fill:#575756" />
  <path
     class="cls-2"
     d="m 923.78,214.2 q -5.32,3.13 -14.77,3.14 -8,0 -12.71,-4.48 -4.71,-4.48 -4.72,-14.64 a 49.15,49.15 0 0 1 -19.74,14.64 68.23,68.23 0 0 1 -40.43,2.55 37.28,37.28 0 0 1 -13.2,-6.06 29,29 0 0 1 -8.84,-10.77 36.25,36.25 0 0 1 -3.27,-16.1 q 0,-10.66 3.64,-17.44 a 31.63,31.63 0 0 1 9.56,-11 43.76,43.76 0 0 1 13.56,-6.42 q 7.64,-2.18 15.62,-3.63 8.47,-1.69 16.1,-2.55 A 88,88 0 0 0 878,139 a 22.27,22.27 0 0 0 9.2,-4.6 q 3.39,-3 3.39,-8.83 0,-6.78 -2.54,-10.9 a 17.53,17.53 0 0 0 -6.54,-6.3 26.52,26.52 0 0 0 -9,-2.9 66.88,66.88 0 0 0 -9.8,-0.73 q -13.08,0 -21.8,5 -8.72,5 -9.44,18.77 H 811 q 0.48,-11.62 4.84,-19.61 a 36.78,36.78 0 0 1 11.62,-13 48.92,48.92 0 0 1 16.54,-7.13 87.71,87.71 0 0 1 20,-2.18 116.55,116.55 0 0 1 16.8,1.21 44.39,44.39 0 0 1 15.14,5 29,29 0 0 1 10.89,10.51 Q 911,110 911,120.9 v 64.27 a 47.53,47.53 0 0 0 0.85,10.63 c 0.56,2.26 2.46,3.38 5.69,3.38 a 25.15,25.15 0 0 0 6.29,-1 z M 890.37,150 a 25.84,25.84 0 0 1 -10.17,4.22 q -6.3,1.32 -13.2,2.17 -6.9,0.85 -13.92,1.93 a 51,51 0 0 0 -12.59,3.49 22.78,22.78 0 0 0 -9.08,6.86 q -3.51,4.47 -3.51,12.17 a 16.52,16.52 0 0 0 2.06,8.56 17.08,17.08 0 0 0 5.32,5.66 22.26,22.26 0 0 0 7.63,3.13 42.07,42.07 0 0 0 9.2,1 49.21,49.21 0 0 0 17.44,-2.76 36.81,36.81 0 0 0 11.86,-7 27.66,27.66 0 0 0 6.78,-9.16 23.12,23.12 0 0 0 2.18,-9.28 z"
     id="path26"
     inkscape:connector-curvature="0"
     style="fill:#575756" />
  <path
     class="cls-2"
     d="M 960.1,41.8 V 214.68 H 939.52 V 41.8 Z"
     id="path28"
     inkscape:connector-curvature="0"
     style="fill:#575756" />
  <path
     class="cls-2"
     d="m 1125.43,41.8 q 24.69,0 38.62,12.1 13.93,12.1 13.95,33.17 0,15.75 -7.14,27.61 -7.14,11.86 -22.86,16.22 v 0.48 a 30.76,30.76 0 0 1 12.22,4.85 26.54,26.54 0 0 1 7.51,8.11 37.06,37.06 0 0 1 4.12,10.53 112.35,112.35 0 0 1 2,12.11 q 0.5,6.3 0.73,12.83 a 112.57,112.57 0 0 0 1.21,12.84 76.77,76.77 0 0 0 2.79,12 29.44,29.44 0 0 0 5.44,10.05 h -25.66 a 14.34,14.34 0 0 1 -3.27,-7.26 73.72,73.72 0 0 1 -1.09,-10.29 q -0.24,-5.69 -0.49,-12.23 a 83.69,83.69 0 0 0 -1.45,-12.83 q -1,-6.3 -2.42,-12 a 28.19,28.19 0 0 0 -4.6,-9.93 22.8,22.8 0 0 0 -8.23,-6.78 q -5.08,-2.53 -13.56,-2.54 h -56.18 v 73.85 h -23 V 41.8 Z m 4.84,78.45 a 33.33,33.33 0 0 0 12.71,-4.72 25.87,25.87 0 0 0 8.72,-9.45 q 3.27,-5.92 3.27,-15.37 0,-13.08 -7.27,-21.31 -7.27,-8.23 -23.48,-8.23 h -57.15 v 60.29 h 48 a 92.39,92.39 0 0 0 15.2,-1.21 z"
     id="path30"
     inkscape:connector-curvature="0"
     style="fill:#575756" />
  <path
     class="cls-2"
     d="m 1285.77,206.69 q -14.05,10.67 -35.35,10.65 -15,0 -26,-4.84 a 51.29,51.29 0 0 1 -18.53,-13.56 57.62,57.62 0 0 1 -11.26,-20.82 100.32,100.32 0 0 1 -4.23,-26.39 75.2,75.2 0 0 1 4.36,-26.15 62.35,62.35 0 0 1 12.24,-20.58 55.42,55.42 0 0 1 18.65,-13.56 57,57 0 0 1 23.61,-4.84 q 16.69,0 27.72,6.9 a 54.93,54.93 0 0 1 17.68,17.56 69.67,69.67 0 0 1 9.2,23.24 99.57,99.57 0 0 1 2,24 h -93.7 a 49.52,49.52 0 0 0 1.94,15.62 35.25,35.25 0 0 0 7,13.08 34.56,34.56 0 0 0 12.35,9.08 42.59,42.59 0 0 0 17.67,3.39 q 13.08,0 21.43,-6.06 8.35,-6.06 11,-18.4 h 20.34 q -4.08,20.99 -18.12,31.68 z m -5,-80.39 a 35.13,35.13 0 0 0 -7.5,-11.26 35.8,35.8 0 0 0 -11.14,-7.51 35.33,35.33 0 0 0 -14.17,-2.78 35.91,35.91 0 0 0 -14.4,2.78 33.23,33.23 0 0 0 -11,7.63 36.43,36.43 0 0 0 -7.26,11.26 42.71,42.71 0 0 0 -3.15,13.68 h 71.91 a 42,42 0 0 0 -3.26,-13.8 z"
     id="path32"
     inkscape:connector-curvature="0"
     style="fill:#575756" />
  <path
     class="cls-2"
     d="m 1435.87,214.2 q -5.34,3.13 -14.77,3.14 -8,0 -12.72,-4.48 -4.72,-4.48 -4.72,-14.64 a 49.19,49.19 0 0 1 -19.73,14.64 68.26,68.26 0 0 1 -40.44,2.55 37.44,37.44 0 0 1 -13.2,-6.06 28.91,28.91 0 0 1 -8.83,-10.77 36.25,36.25 0 0 1 -3.27,-16.1 q 0,-10.66 3.63,-17.44 a 31.73,31.73 0 0 1 9.56,-11 43.76,43.76 0 0 1 13.56,-6.42 q 7.63,-2.18 15.62,-3.63 8.48,-1.69 16.1,-2.55 a 87.57,87.57 0 0 0 13.44,-2.44 22.21,22.21 0 0 0 9.2,-4.6 q 3.39,-3 3.39,-8.83 0,-6.78 -2.54,-10.9 a 17.38,17.38 0 0 0 -6.54,-6.3 26.52,26.52 0 0 0 -9,-2.9 66.88,66.88 0 0 0 -9.8,-0.73 q -13.08,0 -21.8,5 -8.72,5 -9.44,18.77 H 1323 q 0.48,-11.62 4.84,-19.61 a 36.78,36.78 0 0 1 11.62,-13 48.92,48.92 0 0 1 16.59,-7.14 87.71,87.71 0 0 1 20,-2.18 116.79,116.79 0 0 1 16.83,1.21 44.26,44.26 0 0 1 15.13,5 29.06,29.06 0 0 1 10.9,10.51 q 4.09,6.7 4.09,17.6 v 64.27 a 47.53,47.53 0 0 0 0.85,10.63 c 0.56,2.26 2.46,3.38 5.69,3.38 a 25.29,25.29 0 0 0 6.3,-1 z M 1402.45,150 a 25.71,25.71 0 0 1 -10.17,4.22 q -6.3,1.32 -13.2,2.17 -6.9,0.85 -13.92,1.93 a 51.08,51.08 0 0 0 -12.59,3.49 22.85,22.85 0 0 0 -9.08,6.86 q -3.51,4.47 -3.51,12.17 a 16.52,16.52 0 0 0 2.06,8.56 17.11,17.11 0 0 0 5.33,5.66 22.2,22.2 0 0 0 7.62,3.13 42.07,42.07 0 0 0 9.2,1 49.21,49.21 0 0 0 17.44,-2.76 36.81,36.81 0 0 0 11.86,-7 27.53,27.53 0 0 0 6.78,-9.16 23.12,23.12 0 0 0 2.18,-9.28 z"
     id="path34"
     inkscape:connector-curvature="0"
     style="fill:#575756" />
  <path
     class="cls-2"
     d="m 1525.21,111.29 q -7.76,-6.54 -20.82,-6.54 -11.15,0 -18.65,4.12 a 33.24,33.24 0 0 0 -12,10.89 45.78,45.78 0 0 0 -6.42,15.62 84.69,84.69 0 0 0 -1.94,18.28 69.74,69.74 0 0 0 2.06,17 45.21,45.21 0 0 0 6.42,14.65 32.34,32.34 0 0 0 11.38,10.29 34,34 0 0 0 16.7,3.88 q 15.26,0 23.85,-8 8.59,-8 10.54,-22.52 h 21.06 q -3.39,23.24 -17.31,35.83 -13.92,12.59 -37.9,12.59 a 65.17,65.17 0 0 1 -25.3,-4.6 48.9,48.9 0 0 1 -18.4,-13.07 56.42,56.42 0 0 1 -11.14,-20.22 84.4,84.4 0 0 1 -3.75,-25.79 91.9,91.9 0 0 1 3.63,-26.27 60.72,60.72 0 0 1 11,-21.31 51.73,51.73 0 0 1 18.52,-14.28 q 11.13,-5.2 25.91,-5.21 a 75.94,75.94 0 0 1 20,2.54 48.77,48.77 0 0 1 16.48,7.83 43.24,43.24 0 0 1 11.75,13.44 49.68,49.68 0 0 1 5.81,19.25 h -21.31 q -2.43,-11.86 -10.17,-18.4 z"
     id="path36"
     inkscape:connector-curvature="0"
     style="fill:#575756" />
  <path
     class="cls-2"
     d="m 1594,41.8 v 66.1 h 0.48 a 27.21,27.21 0 0 1 6.78,-9.81 38.9,38.9 0 0 1 9.81,-6.54 51.14,51.14 0 0 1 11.38,-3.75 57.16,57.16 0 0 1 11.5,-1.21 q 12.35,0 20.58,3.39 a 34,34 0 0 1 13.32,9.44 35.08,35.08 0 0 1 7.14,14.41 77.6,77.6 0 0 1 2.06,18.52 v 82.33 h -20.58 v -84.75 q 0,-11.62 -6.78,-18.4 -6.78,-6.78 -18.69,-6.78 a 41.89,41.89 0 0 0 -16.34,2.91 30.52,30.52 0 0 0 -11.5,8.23 35.37,35.37 0 0 0 -6.9,12.47 A 50.52,50.52 0 0 0 1594,144 v 70.7 h -20.59 V 41.8 Z"
     id="path38"
     inkscape:connector-curvature="0"
     style="fill:#575756" />
  <text
     xml:space="preserve"
     style="font-style:normal;font-variant:normal;font-weight:normal;font-stretch:normal;font-size:96px;line-height:1.25;font-family:'Proxima Nova';-inkscape-font-specification:'Proxima Nova';letter-spacing:0px;word-spacing:0px;fill:#000000;fill-opacity:1;stroke:none"
     x="515.99744"
     y="290.92477"
     id="text47"><tspan
       sodipodi:role="line"
       id="tspan45"
       x="515.99744"
       y="378.50848" /></text>
</svg>
