<?xml version="1.0" standalone="no"?>
<!DOCTYPE svg PUBLIC "-//W3C//DTD SVG 20010904//EN"
 "http://www.w3.org/TR/2001/REC-SVG-20010904/DTD/svg10.dtd">
<svg version="1.0" xmlns="http://www.w3.org/2000/svg"
 width="400.000000pt" height="400.000000pt" viewBox="0 0 400.000000 400.000000"
 preserveAspectRatio="xMidYMid meet">

<g transform="translate(0.000000,400.000000) scale(0.100000,-0.100000)"
fill="#000000" stroke="none">
<path d="M0 2000 l0 -2000 2000 0 2000 0 0 2000 0 2000 -2000 0 -2000 0 0
-2000z m2916 1527 c38 -33 37 -81 -1 -114 -18 -16 -37 -24 -54 -21 -23 3 -42
-15 -154 -148 l-128 -152 25 -27 c39 -42 59 -106 54 -169 l-5 -55 156 -69 155
-70 33 26 c68 51 157 28 197 -52 24 -50 15 -99 -29 -143 -28 -28 -40 -33 -79
-33 -84 0 -136 47 -136 123 l0 34 -157 70 -158 70 -27 -33 c-85 -100 -258
-101 -346 0 l-32 37 -278 -119 -277 -119 -6 -61 c-16 -160 -195 -229 -300
-115 -42 44 -51 70 -48 135 l3 61 -149 82 c-131 74 -150 81 -163 68 -56 -55
-174 -35 -200 35 -20 53 -21 61 -11 94 22 81 118 121 186 79 44 -27 64 -62 66
-112 l2 -42 149 -84 149 -84 21 20 c28 26 88 51 123 51 39 -1 106 -33 130 -63
l20 -25 281 120 280 121 0 61 c-2 144 100 244 237 233 33 -3 69 -8 80 -11 16
-5 43 21 145 145 122 147 125 152 122 194 -3 36 0 45 24 64 35 27 66 27 100
-2z m-2122 -1565 l120 -139 119 139 120 138 78 0 79 0 0 -375 0 -375 -90 0
-90 0 -2 232 -3 231 -99 -116 c-55 -64 -105 -117 -111 -117 -6 0 -56 52 -111
116 l-99 115 -3 -230 -2 -231 -95 0 -95 0 0 375 0 375 83 0 82 0 119 -138z
m926 -237 l0 -375 -90 0 -90 0 0 375 0 375 90 0 90 0 0 -375z m643 365 c132
-21 240 -100 292 -213 21 -43 25 -68 25 -143 0 -168 -52 -262 -180 -327 -92
-46 -162 -56 -387 -57 l-163 0 -2 375 -3 375 180 0 c99 0 206 -4 238 -10z
m697 -295 l0 -305 190 0 190 0 0 -70 0 -70 -285 0 -285 0 0 375 0 375 95 0 95
0 0 -305z m107 -611 c-3 -4 5 -15 18 -26 40 -31 30 -91 -31 -175 -16 -23 -16
-23 30 -23 44 0 46 -1 46 -30 l0 -30 -101 0 -101 0 25 33 c68 90 88 127 85
159 -2 27 -8 34 -29 36 -15 2 -33 -3 -40 -10 -25 -23 -39 -19 -39 11 0 33 13
41 85 51 28 4 52 8 54 9 2 0 1 -2 -2 -5z m-2522 -54 l51 -51 48 51 c36 38 54
50 76 50 l30 0 0 -140 0 -140 -35 0 -35 0 0 88 0 87 -36 -42 c-20 -24 -42 -43
-49 -43 -7 0 -30 19 -49 42 l-36 42 0 -87 0 -87 -35 0 -35 0 0 140 0 140 27 0
c19 0 42 -15 78 -50z m1300 15 c-36 -31 -65 -44 -65 -30 0 4 7 19 15 35 13 25
22 30 53 30 l37 0 -40 -35z m415 -105 l0 -140 -30 0 -30 0 0 140 0 140 30 0
30 0 0 -140z m333 120 c40 -31 37 -81 -8 -148 l-36 -52 46 0 c43 0 45 -1 45
-30 l0 -30 -100 0 -100 0 46 63 c60 81 78 121 64 147 -13 24 -47 26 -78 4 -21
-14 -22 -14 -22 10 0 44 8 51 63 54 42 2 59 -2 80 -18z m238 10 c50 -28 68
-164 29 -228 -42 -69 -127 -63 -161 12 -58 127 29 271 132 216z m484 4 c9 -4
25 -25 37 -47 17 -33 20 -53 16 -109 -6 -74 -17 -94 -65 -114 -69 -29 -133 33
-133 130 0 108 64 171 145 140z m-1869 -84 c27 0 34 -4 34 -20 0 -16 -7 -20
-36 -20 l-35 0 3 -52 c3 -52 3 -53 36 -53 26 0 32 -4 32 -21 0 -30 -57 -41
-98 -20 -32 17 -42 40 -42 104 0 33 -4 42 -17 42 -12 0 -2 15 32 51 l50 50 3
-30 c3 -28 7 -31 38 -31z m-306 -11 c0 -6 8 -5 19 1 31 16 79 12 101 -10 16
-16 20 -33 20 -95 l0 -75 -35 0 -34 0 -3 72 c-3 63 -6 73 -22 76 -30 6 -46
-26 -46 -90 l0 -58 -32 0 -33 0 3 98 3 98 30 -4 c16 -2 29 -8 29 -13z m-139
-18 c57 -58 30 -142 -53 -160 -108 -24 -183 86 -109 160 25 25 37 29 81 29 44
0 56 -4 81 -29z m579 3 l0 -27 21 27 c20 25 42 32 72 20 12 -4 13 -11 5 -35
-8 -24 -13 -27 -29 -18 -32 17 -69 -29 -69 -86 0 -43 -1 -45 -30 -45 l-30 0 0
95 0 95 30 0 c26 0 30 -4 30 -26z m304 0 c16 -17 26 -38 26 -55 l0 -29 -70 0
c-67 0 -70 -1 -60 -19 14 -27 63 -36 100 -18 28 14 30 14 30 -3 0 -26 -30 -41
-83 -42 -77 -1 -116 32 -117 99 0 34 5 46 31 67 43 36 106 36 143 0z m228 9
c13 -12 18 -31 18 -75 0 -46 3 -58 16 -58 9 0 14 -7 12 -17 -3 -14 -15 -18
-58 -20 -30 0 -69 -2 -87 -4 -67 -5 -87 56 -31 91 18 11 44 22 60 25 18 4 25
11 21 21 -7 19 -53 18 -81 -2 -21 -14 -22 -14 -22 10 0 14 8 30 18 35 28 17
113 13 134 -6z" fill="#576FAD"/>
<path d="M2130 1724 l0 -237 103 5 c146 7 212 46 246 147 17 52 13 150 -8 197
-39 87 -120 124 -266 124 l-75 0 0 -236z" fill="#576FAD"/>
<path d="M2860 1105 c-25 -66 -3 -166 33 -152 19 7 30 88 19 137 -10 44 -38
52 -52 15z" fill="#576FAD"/>
<path d="M3353 1118 c-12 -15 -17 -120 -8 -148 8 -24 40 -26 49 -4 11 28 6
140 -6 152 -15 15 -23 15 -35 0z" fill="#576FAD"/>
<path d="M995 1046 c-24 -17 -26 -80 -2 -103 13 -14 21 -14 42 -5 21 10 25 18
25 56 0 35 -5 48 -19 56 -25 13 -23 13 -46 -4z" fill="#576FAD"/>
<path d="M1887 1039 l-22 -18 47 -1 c37 0 46 3 42 14 -9 23 -42 26 -67 5z" fill="#576FAD"/>
<path d="M2131 973 c-26 -22 -14 -48 18 -38 14 4 21 15 21 31 0 28 -10 30 -39
7z" fill="#576FAD"/>
</g>
</svg>
