<?xml version="1.0" encoding="UTF-8" standalone="no"?>
<svg
   xmlns:dc="http://purl.org/dc/elements/1.1/"
   xmlns:cc="http://creativecommons.org/ns#"
   xmlns:rdf="http://www.w3.org/1999/02/22-rdf-syntax-ns#"
   xmlns:svg="http://www.w3.org/2000/svg"
   xmlns="http://www.w3.org/2000/svg"
   xmlns:sodipodi="http://sodipodi.sourceforge.net/DTD/sodipodi-0.dtd"
   xmlns:inkscape="http://www.inkscape.org/namespaces/inkscape"
   sodipodi:docname="Ontario Logo.svg"
   inkscape:version="1.0beta2 (2b71d25, 2019-12-03)"
   id="svg1080"
   version="1.1"
   viewBox="0 0 36.372765 9.0931997"
   height="9.0931997mm"
   width="36.372765mm">
  <defs
     id="defs1074">
    <clipPath
       clipPathUnits="userSpaceOnUse"
       id="clipPath917">
      <path
         d="M 450.2,10.424 H 579.08 V 61.976 H 450.2 Z"
         id="path915"
         inkscape:connector-curvature="0" />
    </clipPath>
  </defs>
  <sodipodi:namedview
     inkscape:window-maximized="0"
     inkscape:window-y="23"
     inkscape:window-x="0"
     inkscape:window-height="755"
     inkscape:window-width="1280"
     fit-margin-bottom="0"
     fit-margin-right="0"
     fit-margin-left="0"
     fit-margin-top="0"
     showgrid="false"
     inkscape:document-rotation="0"
     inkscape:current-layer="layer1"
     inkscape:document-units="mm"
     inkscape:cy="45.548836"
     inkscape:cx="56.805951"
     inkscape:zoom="3.4460138"
     inkscape:pageshadow="2"
     inkscape:pageopacity="0.0"
     borderopacity="1.0"
     bordercolor="#666666"
     pagecolor="#ffffff"
     id="base" />
  <metadata
     id="metadata1077">
    <rdf:RDF>
      <cc:Work
         rdf:about="">
        <dc:format>image/svg+xml</dc:format>
        <dc:type
           rdf:resource="http://purl.org/dc/dcmitype/StillImage" />
        <dc:title></dc:title>
      </cc:Work>
    </rdf:RDF>
  </metadata>
  <g
     transform="translate(-100.49814,-71.048638)"
     id="layer1"
     inkscape:groupmode="layer"
     inkscape:label="Layer 1">
    <g
       style="fill:#000000"
       id="g919"
       transform="matrix(0.35277777,0,0,-0.35277777,104.16668,77.368828)">
      <path
         d="m 0,0 c -0.782,-0.819 -1.9,-1.252 -3.235,-1.252 -1.34,0 -2.463,0.435 -3.248,1.256 -0.782,0.82 -1.195,1.991 -1.195,3.387 0,1.392 0.411,2.559 1.191,3.375 0.781,0.819 1.9,1.251 3.235,1.251 1.34,0 2.463,-0.434 3.247,-1.256 C 0.778,5.942 1.191,4.771 1.191,3.375 1.191,1.983 0.779,0.816 0,0 m -3.234,10.346 c -4.533,0 -7.165,-2.703 -7.165,-6.973 0,-4.27 2.613,-6.953 7.146,-6.953 4.533,0 7.165,2.702 7.165,6.972 0,4.271 -2.613,6.954 -7.146,6.954"
         style="fill:#000000;fill-opacity:1;fill-rule:nonzero;stroke:none"
         id="path921"
         inkscape:connector-curvature="0" />
    </g>
    <g
       style="fill:#000000"
       id="g923"
       transform="matrix(0.35277777,0,0,-0.35277777,108.81357,78.550528)">
      <path
         d="m 0,0 v 5.966 c 0,1.549 -0.802,2.473 -2.146,2.473 -1.359,0 -2.203,-0.947 -2.203,-2.473 V 0 h -2.548 v 10.31 h 2.548 V 8.848 c 0.757,0.866 1.73,1.655 3.396,1.655 2.212,0 3.501,-1.462 3.501,-3.828 L 2.548,0 Z"
         style="fill:#000000;fill-opacity:1;fill-rule:nonzero;stroke:none"
         id="path925"
         inkscape:connector-curvature="0" />
    </g>
    <g
       style="fill:#000000"
       id="g927"
       transform="matrix(0.35277777,0,0,-0.35277777,112.6452,78.42321)">
      <path
         d="m 0,0 c -0.485,-0.3 -1.19,-0.534 -2.171,-0.534 -1.789,0 -3,0.712 -3,3.097 V 7.932 H -6.402 V 9.95 h 1.231 v 2.635 h 2.547 V 9.95 h 2.518 V 7.932 H -2.624 V 3.044 c 0,-0.887 0.473,-1.376 1.326,-1.376 0.472,0 1.03,0.121 1.298,0.299 z"
         style="fill:#000000;fill-opacity:1;fill-rule:nonzero;stroke:none"
         id="path929"
         inkscape:connector-curvature="0" />
    </g>
    <g
       style="fill:#000000"
       id="g931"
       transform="matrix(0.35277777,0,0,-0.35277777,115.65012,77.292628)">
      <path
         d="m 0,0 c 0,-1.211 -1.087,-2.091 -2.586,-2.091 -1.148,0 -1.919,0.618 -1.919,1.538 v 0.037 c 0,1.049 0.891,1.701 2.326,1.701 0.7,0 1.412,-0.123 1.953,-0.339 L 0,0.757 Z m -2.259,6.86 c -1.666,0 -2.757,-0.296 -3.838,-0.756 l 0.569,-1.757 c 0.739,0.268 1.728,0.55 2.9,0.55 1.696,0 2.668,-0.834 2.668,-2.288 V 2.405 c -0.806,0.234 -1.759,0.373 -2.909,0.373 -2.388,0 -4.088,-1.072 -4.088,-3.397 v -0.038 c 0,-2.039 1.554,-3.101 3.446,-3.101 1.558,0 2.657,0.509 3.471,1.147 v -0.955 h 2.379 v 5.983 c 0,2.789 -1.405,4.443 -4.598,4.443"
         style="fill:#000000;fill-opacity:1;fill-rule:nonzero;stroke:none"
         id="path933"
         inkscape:connector-curvature="0" />
    </g>
    <g
       style="fill:#000000"
       id="g935"
       transform="matrix(0.35277777,0,0,-0.35277777,117.40361,78.550528)">
      <path
         d="M 0,0 V 10.31 H 2.494 V 8.233 c 0.666,1.424 1.518,2.347 3.451,2.27 V 8.25 H 5.891 C 4.957,8.239 4.196,7.979 3.63,7.477 2.876,6.809 2.494,5.728 2.494,4.265 V 0 Z"
         style="fill:#000000;fill-opacity:1;fill-rule:nonzero;stroke:none"
         id="path937"
         inkscape:connector-curvature="0" />
    </g>
    <g
       style="fill:#000000"
       id="g939"
       transform="matrix(0.35277777,0,0,-0.35277777,121.14802,74.932192)">
      <path
         d="M 0,0 0.054,0.054 H -2.494 V -10.257 H 0.054 V 0.054 Z m 0.131,1.564 h -2.702 v 2.221 h 2.702 z m 0,2.222 -0.054,-0.054 z"
         style="fill:#000000;fill-opacity:1;fill-rule:nonzero;stroke:none"
         id="path941"
         inkscape:connector-curvature="0" />
    </g>
    <g
       style="fill:#000000"
       id="g943"
       transform="matrix(0.35277777,0,0,-0.35277777,124.74509,77.57806)">
      <path
         d="m 0,0 c -0.536,-0.569 -1.314,-0.87 -2.251,-0.87 -0.925,0 -1.702,0.306 -2.246,0.885 -0.541,0.576 -0.827,1.396 -0.827,2.373 0,0.985 0.281,1.805 0.812,2.371 0.535,0.569 1.311,0.87 2.245,0.87 0.928,0 1.707,-0.306 2.252,-0.885 C 0.528,4.168 0.814,3.348 0.814,2.371 0.814,1.385 0.533,0.566 0,0 m -2.25,7.746 c -3.5,0 -5.583,-2.077 -5.583,-5.381 0,-3.294 2.073,-5.352 5.563,-5.352 3.511,0 5.594,2.077 5.594,5.371 0,3.304 -2.073,5.362 -5.574,5.362"
         style="fill:#000000;fill-opacity:1;fill-rule:nonzero;stroke:none"
         id="path945"
         inkscape:connector-curvature="0" />
    </g>
    <g
       style="fill:#000000"
       id="g947"
       transform="matrix(0.35277777,0,0,-0.35277777,132.32431,71.048638)">
      <path
         d="m 0,0 c -8.757,0 -12.888,-4.131 -12.888,-12.888 0,-8.758 4.131,-12.888 12.888,-12.888 8.757,0 12.888,4.13 12.888,12.888 C 12.888,-4.131 8.757,0 0,0"
         style="fill:#000000;fill-opacity:1;fill-rule:nonzero;stroke:none"
         id="path949"
         inkscape:connector-curvature="0" />
    </g>
    <g
       style="fill:#ffffff"
       id="g951"
       transform="matrix(0.35277777,0,0,-0.35277777,134.36064,74.486563)">
      <path
         d="m 0,0 c -0.61,-1.039 -1.465,-1.854 -2.444,-2.417 -0.337,-0.194 -0.69,-0.356 -1.054,-0.484 -0.717,-0.253 -1.623,-0.247 -2.254,0.437 -0.172,-0.761 -0.166,-1.465 0.117,-1.956 0.063,-0.11 0.139,-0.209 0.228,-0.297 0.198,-0.193 0.486,-0.353 0.745,-0.401 0.254,-0.047 0.45,-0.066 0.666,-0.048 -0.038,-1.677 -0.649,-3.208 -1.779,-4.433 -0.375,0.393 -0.723,0.84 -1.005,1.336 -0.594,1.048 -0.873,2.196 -0.871,3.326 0,0.388 0.037,0.775 0.108,1.154 0.139,0.748 0.598,1.529 1.505,1.734 -0.573,0.529 -1.185,0.876 -1.752,0.876 -0.126,0 -0.251,-0.015 -0.371,-0.049 -0.266,-0.074 -0.549,-0.244 -0.72,-0.444 -0.168,-0.198 -0.283,-0.358 -0.376,-0.556 -1.431,0.871 -2.449,2.165 -2.944,3.754 0.527,0.129 1.089,0.206 1.659,0.202 1.204,-0.009 2.338,-0.341 3.316,-0.907 0.336,-0.195 0.653,-0.42 0.946,-0.671 0.577,-0.495 1.025,-1.283 0.749,-2.171 0.744,0.231 1.351,0.588 1.635,1.079 0.063,0.11 0.111,0.225 0.142,0.346 0.069,0.268 0.063,0.598 -0.025,0.846 -0.087,0.246 -0.169,0.426 -0.295,0.606 1.471,0.806 3.103,1.042 4.728,0.676 C 0.503,1.017 0.289,0.492 0,0 M 3.019,3 C 0.154,4.373 -3.126,4.13 -5.777,2.36 v 0 C -5.942,2.47 -6.109,2.577 -6.276,2.674 L -6.288,2.68 c -1.34,0.777 -2.867,1.195 -4.43,1.195 -1.322,0 -2.653,-0.306 -3.85,-0.885 l -0.089,-0.043 0.008,-0.099 c 0.243,-3.165 2.091,-5.882 4.946,-7.294 -0.014,-0.199 -0.023,-0.397 -0.023,-0.592 v -0.014 c -0.002,-1.548 0.4,-3.08 1.181,-4.433 0.661,-1.145 1.591,-2.145 2.691,-2.892 l 0.082,-0.056 0.081,0.056 c 2.621,1.794 4.05,4.755 3.844,7.935 0.18,0.089 0.358,0.18 0.528,0.278 l 0.011,0.007 c 1.343,0.772 2.468,1.886 3.249,3.239 0.661,1.145 1.062,2.451 1.16,3.777 l 0.007,0.098 z"
         style="fill:#ffffff;fill-opacity:1;fill-rule:nonzero;stroke:none"
         id="path953"
         inkscape:connector-curvature="0" />
    </g>
  </g>
</svg>
