<?xml version="1.0" encoding="utf-8"?>
<!-- Generator: Adobe Illustrator 24.2.3, SVG Export Plug-In . SVG Version: 6.00 Build 0)  -->
<svg version="1.1" id="Layer_1" xmlns="http://www.w3.org/2000/svg" xmlns:xlink="http://www.w3.org/1999/xlink" x="0px" y="0px"
	 viewBox="0 0 792 143.7" style="enable-background:new 0 0 792 143.7;" xml:space="preserve">
<style type="text/css">
	.st0{fill:#3DE0C8;}
	.st1{fill:#000000;}
</style>
<path class="st0" d="M94.6,67.4c0-5.7-4.6-10.4-10.4-10.4c-5.7,0-10.4,4.6-10.4,10.4c0,5.7,4.6,10.4,10.4,10.4
	C89.9,77.8,94.6,73.1,94.6,67.4"/>
<path class="st0" d="M84.2,33.3c-19.2,0-33.5,15.5-33.5,33.6v2.2c0,3.6,2.9,6.5,6.5,6.5s6.5-2.9,6.5-6.5v-2.2
	c0-12.9,11-20.6,20.6-20.6h33.5v-13H84.2z"/>
<path class="st0" d="M111.2,59.4c-3.6,0-6.5,2.9-6.5,6.5v2.2c0,12.9-11,20.6-20.6,20.6H50.7v13h33.5c19.2,0,33.5-15.6,33.5-33.6
	v-2.2C117.7,62.3,114.8,59.4,111.2,59.4"/>
<path class="st1" d="M175.3,97.5c-3.9-2.6-6.6-5.9-8.1-10.2l8.9-4.3c1.3,2.8,3.1,5,5.4,6.6c2.2,1.6,4.8,2.4,7.6,2.4
	c2.1,0,3.8-0.5,5.1-1.4s2-2.2,2-3.9c0-1.4-0.6-2.5-1.7-3.3c-1.1-0.8-2.5-1.4-4.1-1.9l-8.1-2.3c-4.2-1.2-7.4-3.1-9.5-5.6
	s-3.2-5.4-3.2-8.8c0-3,0.8-5.7,2.3-8s3.7-4,6.5-5.3c2.8-1.3,5.9-1.9,9.5-1.9c4.7,0,8.8,1.1,12.4,3.4s6.1,5.4,7.6,9.4l-9.1,4.3
	c-0.8-2.2-2.2-4-4.2-5.4c-2-1.3-4.3-2-6.8-2c-2,0-3.6,0.5-4.7,1.4c-1.2,0.9-1.7,2.1-1.7,3.5c0,1.4,0.5,2.5,1.6,3.3
	c1.1,0.8,2.5,1.4,4.2,1.9l7.9,2.4c4.1,1.2,7.3,3,9.5,5.5c2.2,2.5,3.3,5.4,3.3,8.9c0,3-0.8,5.6-2.4,7.9c-1.6,2.3-3.8,4.1-6.6,5.3
	c-2.8,1.3-6.1,1.9-9.8,1.9C183.9,101.3,179.3,100.1,175.3,97.5"/>
<path class="st1" d="M283.9,90.9c1.3,1,2.9,1.5,4.9,1.5c3.8,0,7.4-1.1,9.4-2.9c2.5-2.2,4.5-5.1,4.5-11.3c-3.1,0.4-13.8,2.1-13.8,2.1
	c-4.7,0.9-7,3.1-7,6.6C282,88.5,282.6,89.9,283.9,90.9 M275.9,97.7c-3.1-2.6-4.7-6-4.7-10.4c0-4.1,1.4-7.6,4.2-10.3
	c2.8-2.7,5.4-4.6,11.2-5.6l16-2.6v-1.7c0-4.4-3-7.9-9.1-7.9c-7.5,0-10.2,6.1-11.2,7.9l-9.5-4.6c1.5-3.9,3.8-7.2,7.7-9.5
	c3.9-2.4,7.3-3.4,12.2-3.4c4.1,0,7.7,0.7,10.7,2.2c3.1,1.5,5.5,3.6,7.2,6.2c1.8,2.7,2.6,5.8,2.6,9.2v33.1h-10.2v-5.3
	c-3.9,4.3-10.2,6.4-16.6,6.4C281.5,101.5,279,100.2,275.9,97.7"/>
<path class="st1" d="M218.6,100.4V34.6h10.8v21.6h0.5c2.9-4.4,7.3-6.6,13.2-6.6c5.4,0,9.9,1.8,13.2,5.5c3.4,3.7,5.1,8.6,5.1,14.6
	v30.6h-10.8V70.8c0-3.5-1-6.3-2.9-8.3c-1.9-2-4.4-3-7.5-3c-3.2,0-5.8,1.1-7.8,3.3c-2,2.2-3,4.9-3,8.2v29.4L218.6,100.4L218.6,100.4z
	"/>
<path class="st1" d="M326.2,100.4V50.6h10.3l0,6.1h0.5c2.7-4.1,6.8-6.1,12.2-6.1h6.1V61h-5.2c-4,0-7.2,1.1-9.6,3.3
	c-2.4,2.2-3.6,5.2-3.6,8.9v27.2L326.2,100.4L326.2,100.4z"/>
<path class="st1" d="M433.3,100.4c-3.5,0-6.4-1.2-8.7-3.5c-2.3-2.3-3.5-5.2-3.5-8.7V58.1h-7.5v-6.6c4.2,0,7.8-3.3,8.1-7.5l0.4-5.7
	h6.1v13.2h12.7v6.6h-12.7v30.1c0,1.6,0.5,3,1.6,4s2.4,1.6,4.1,1.6h7v6.6H433.3z"/>
<path class="st1" d="M452.5,100.4V34.6h7v23h0.5c3-4.7,7.5-7,13.6-7c5.1,0,9.5,1.8,13,5.2c3.5,3.5,5.3,8.3,5.3,14.5v30.1h-7.1V70.4
	c0-4.1-1.1-7.4-3.4-9.7c-2.2-2.3-5.2-3.5-8.8-3.5c-3.7,0-6.8,1.3-9.4,3.9c-2.5,2.6-3.8,5.7-3.8,9.3v30.1H452.5z"/>
<path class="st1" d="M505.6,100.4V51.5h6.5l0.1,6.6h0.5c2.6-4.4,7-6.6,13.2-6.6h5.1v6.6h-5.1c-3.8,0-6.9,1.2-9.4,3.5
	c-2.5,2.3-3.8,5.2-3.8,8.8v30.1H505.6z"/>
<path class="st1" d="M547,89.8c2.8,3.3,6.6,4.9,11.2,4.9c4.6,0,8.4-1.7,11.2-4.9s4.3-7.9,4.3-13.8s-1.4-10.6-4.3-13.9
	s-6.6-4.9-11.2-4.9s-8.4,1.7-11.2,4.9c-2.8,3.3-4.3,7.9-4.3,13.9C542.7,81.9,544.1,86.6,547,89.8 M574.5,94.7
	c-4.1,4.4-9.6,6.7-16.4,6.7c-6.8,0-12.2-2.2-16.4-6.7c-4.1-4.4-6.2-10.7-6.2-18.7s2.1-14.3,6.2-18.7s9.6-6.7,16.4-6.7
	c6.8,0,12.2,2.2,16.4,6.7s6.2,10.7,6.2,18.7S578.7,90.2,574.5,94.7"/>
<path class="st1" d="M610.8,101.3c-5.3,0-9.6-1.8-13.1-5.4c-3.5-3.6-5.2-8.4-5.2-14.3V51.5h7.1v30c0,4.1,1.1,7.4,3.4,9.7
	c2.2,2.3,5.2,3.5,8.8,3.5c3.7,0,6.8-1.3,9.4-3.9s3.8-5.7,3.8-9.3v-30h7.1v48.9h-6.4l-0.2-6.6h-0.5C622,98.8,617.3,101.3,610.8,101.3
	"/>
<path class="st1" d="M702.4,100.4V34.6h7v23h0.5c3-4.7,7.5-7,13.6-7c5.1,0,9.5,1.8,13,5.2c3.5,3.5,5.3,8.3,5.3,14.5v30.1h-7.1V70.4
	c0-4.1-1.1-7.4-3.4-9.7c-2.2-2.3-5.2-3.5-8.8-3.5c-3.7,0-6.8,1.3-9.4,3.9c-2.5,2.6-3.8,5.7-3.8,9.3v30.1H702.4z"/>
<path class="st1" d="M372.2,70.4c0.8-3.4,2.2-6,4.3-8c2.1-1.9,4.7-2.9,7.9-2.9c3.4,0,6.1,1,8.3,3c2.1,2,3.4,4.6,3.9,7.8H372.2z
	 M407.9,74.1c0-6.9-2.1-12.7-6.3-17.4c-4.2-4.7-9.9-7-17.2-7c-7.2,0-12.9,2.3-17.1,6.9c-4.2,4.6-6.4,10.9-6.4,19
	c0,8.2,2.1,14.5,6.4,19c4.3,4.5,10.1,6.8,17.4,6.8c5.8,0,10.6-1.4,14.3-4.3c2.4-1.8,5-4.9,6.4-7.4l-9.6-4.6c-2.6,3.8-6.9,6.5-11,6.5
	c-3.7,0-6.7-1.2-8.9-3.5c-2.2-2.3-3.5-5.4-3.7-9.2h35.2L407.9,74.1z"/>
<path class="st1" d="M676.7,86.6c-2.7,3-6.4,4.4-10.9,4.4s-8.2-1.5-10.9-4.4c-2.7-3-4.1-7.1-4.1-12.4c0-5.3,1.4-9.5,4.1-12.5
	c2.7-3,6.4-4.5,10.9-4.5s8.2,1.5,10.9,4.5c2.7,3,4.1,7.1,4.1,12.5C680.8,79.4,679.4,83.6,676.7,86.6 M681.2,51.5l0,6.1h-0.5
	c-3.6-4.7-9-7-16-7c-6.3,0-11.4,2.1-15.3,6.2c-3.9,4.2-5.9,9.9-5.9,17.2s2,13.1,5.9,17.2c3.9,4.2,9,6.3,15.3,6.3
	c7,0,12.1-2.2,15.5-6.6h0.5v8.5c0,4.3-1.3,7.6-4,9.8s-6.2,3.3-10.5,3.3c-7,0-11.7-2.7-14.1-8h0L646,108c1.6,3.1,3.8,5.6,6.7,7.5
	c3.8,2.5,8.3,3.7,13.5,3.7c6.5,0,11.7-1.7,15.7-5.2c4-3.5,5.9-8.3,5.9-14.5V51.5H681.2z"/>
</svg>
