<?xml version="1.0" encoding="UTF-8" standalone="no"?>
<!-- Created with Inkscape (http://www.inkscape.org/) -->

<svg
   version="1.1"
   id="svg2"
   width="647.93335"
   height="641.50665"
   viewBox="0 0 647.93335 641.50665"
   sodipodi:docname="STR-LogoVertical-ColorDark.eps"
   xmlns:inkscape="http://www.inkscape.org/namespaces/inkscape"
   xmlns:sodipodi="http://sodipodi.sourceforge.net/DTD/sodipodi-0.dtd"
   xmlns="http://www.w3.org/2000/svg"
   xmlns:svg="http://www.w3.org/2000/svg">
  <defs
     id="defs6" />
  <sodipodi:namedview
     id="namedview4"
     pagecolor="#ffffff"
     bordercolor="#000000"
     borderopacity="0.25"
     inkscape:showpageshadow="2"
     inkscape:pageopacity="0.0"
     inkscape:pagecheckerboard="0"
     inkscape:deskcolor="#d1d1d1" />
  <g
     id="g8"
     inkscape:groupmode="layer"
     inkscape:label="ink_ext_XXXXXX"
     transform="matrix(1.3333333,0,0,-1.3333333,0,641.50667)">
    <g
       id="g10"
       transform="scale(0.1)">
      <path
         d="m 2929.05,3172.81 c 0,275.75 -223.55,499.29 -499.3,499.29 -275.76,0 -499.3,-223.54 -499.3,-499.29 0,-275.76 223.54,-499.3 499.3,-499.3 275.75,0 499.3,223.54 499.3,499.3"
         style="fill:#6accb4;fill-opacity:1;fill-rule:nonzero;stroke:none"
         id="path12" />
      <path
         d="m 2429.75,4811.28 c -925.21,0 -1611.559,-747.94 -1611.559,-1615.82 V 3088.5 c 0,-171.84 139.301,-311.14 311.139,-311.14 171.85,0 311.15,139.3 311.15,311.14 v 106.96 c 0,618.96 531.23,989.27 989.27,989.27 458.03,0 1611.55,0 1611.55,0 v 626.55 c 0,0 -686.35,0 -1611.55,0"
         style="fill:#6accb4;fill-opacity:1;fill-rule:nonzero;stroke:none"
         id="path14" />
      <path
         d="m 3730.16,3554.12 v 0 c -171.84,0 -311.14,-139.3 -311.14,-311.14 v -106.96 c 0,-618.97 -531.24,-989.27 -989.27,-989.27 -458.03,0 -1611.559,0 -1611.559,0 V 1520.2 c 0,0 686.349,0 1611.559,0 925.2,0 1611.55,747.93 1611.55,1615.82 v 106.96 c 0,171.84 -139.3,311.14 -311.14,311.14"
         style="fill:#6accb4;fill-opacity:1;fill-rule:nonzero;stroke:none"
         id="path16" />
      <path
         d="M 68.0898,183.672 C 35.0078,205.211 12.293,233.898 0,269.82 l 75.375,36.149 c 11.293,-23.578 26.422,-42.039 45.398,-55.391 18.957,-13.34 40.243,-19.976 63.86,-19.976 17.926,0 32.426,3.949 43.441,11.918 11.047,7.929 16.555,18.832 16.555,32.679 0,11.801 -4.758,21.16 -14.227,28.09 -9.511,6.922 -20.906,12.172 -34.226,15.762 l -68.492,19.219 c -35.3793,10.281 -62.1762,25.902 -80.3793,46.941 -18.2031,21.027 -27.2969,45.898 -27.2969,74.621 0,25.637 6.5352,48.066 19.6094,67.309 13.0703,19.23 31.2734,34.23 54.6133,45 23.3355,10.757 50.1325,16.148 80.3825,16.148 39.492,0 74.375,-9.617 104.625,-28.84 30.246,-19.238 51.809,-45.789 64.629,-79.609 l -76.926,-36.168 c -6.687,18.957 -18.605,34.117 -35.785,45.379 -17.179,11.289 -36.285,16.929 -57.297,16.929 -16.925,0 -30.269,-3.832 -40.011,-11.539 -9.743,-7.691 -14.602,-17.691 -14.602,-30 0,-11.8 4.609,-21.043 13.824,-27.703 9.239,-6.66 21.035,-12.047 35.41,-16.148 l 66.911,-19.981 c 34.882,-9.769 61.55,-25.148 80.004,-46.179 18.457,-21.039 27.695,-46.16 27.695,-75.371 0,-25.149 -6.66,-47.309 -20.004,-66.539 -13.328,-19.239 -31.805,-34.239 -55.391,-45.032 -23.59,-10.758 -51.285,-16.148 -83.062,-16.148 -44.625,0 -83.469,10.769 -116.5432,32.332"
         style="fill:#161c23;fill-opacity:1;fill-rule:nonzero;stroke:none"
         id="path18" />
      <path
         d="m 986.18,239.648 c 10.812,-8.488 24.71,-12.738 41.7,-12.738 31.9,0 62.25,9.07 79.57,24.77 20.9,18.949 38.26,43.129 38.26,95.711 -26.4,-3.602 -116.29,-17.782 -116.29,-17.782 -39.647,-7.711 -59.451,-26.238 -59.451,-55.597 0,-14.403 5.406,-25.864 16.211,-34.364 z m -67.289,-57.507 c -26.27,21.609 -39.391,50.949 -39.391,88.031 0,34.988 11.84,64.066 35.52,87.238 23.679,23.18 45.671,38.86 95.09,47.102 l 135.6,21.828 v 13.898 c 0,37.551 -25.78,66.5 -77.23,66.5 -63.76,0 -86.632,-51.25 -94.691,-67.269 l -80.644,39.179 c 12.343,32.93 32.113,60.704 65.062,80.762 32.969,20.07 61.433,28.879 103.633,28.879 34.49,0 64.75,-6.309 90.74,-18.898 25.99,-12.621 46.46,-30.27 61.38,-52.911 14.94,-22.652 22.4,-48.652 22.4,-77.98 V 158.969 h -86.4 v 44.781 c -32.95,-36.039 -86.06,-54.059 -140.63,-54.059 -43.736,0 -64.201,10.809 -90.439,32.45"
         style="fill:#161c23;fill-opacity:1;fill-rule:nonzero;stroke:none"
         id="path20" />
      <path
         d="M 434.227,159.102 V 715.57 h 91.578 V 532.801 h 3.883 c 24.832,36.988 61.957,55.488 111.371,55.488 46.05,0 83.355,-15.648 111.937,-46.961 28.59,-31.297 42.891,-72.558 42.891,-123.789 V 159.102 h -91.192 v 250.296 c 0,29.743 -8.093,53.082 -24.261,70.032 -16.172,16.941 -37.305,25.429 -63.438,25.429 -26.906,0 -48.844,-9.257 -65.785,-27.757 -16.945,-18.493 -25.406,-41.571 -25.406,-69.262 V 159.102 h -91.578"
         style="fill:#161c23;fill-opacity:1;fill-rule:nonzero;stroke:none"
         id="path22" />
      <path
         d="m 1344.18,159.102 v 421.039 h 87.17 l 0.14,-51.61 h 4.27 c 22.77,34.399 57.17,51.61 103.22,51.61 h 51.61 v -87.313 h -43.84 c -33.89,0 -60.85,-9.258 -80.9,-27.726 -20.05,-18.524 -30.09,-43.672 -30.09,-75.5 v -230.5 h -91.58"
         style="fill:#161c23;fill-opacity:1;fill-rule:nonzero;stroke:none"
         id="path24" />
      <path
         d="m 2249.51,159.102 c -29.76,0 -54.41,9.839 -73.92,29.5 -19.55,19.648 -29.3,44.226 -29.3,73.73 v 254.559 h -63.64 v 55.488 0 c 35.87,0 65.66,27.691 68.28,63.473 l 3.51,47.898 h 51.6 V 572.379 h 107.11 V 516.891 H 2206.04 V 262.332 c 0,-13.711 4.48,-25.102 13.38,-34.152 8.95,-9.059 20.39,-13.59 34.36,-13.59 h 59.37 v -55.488 h -63.64"
         style="fill:#161c23;fill-opacity:1;fill-rule:nonzero;stroke:none"
         id="path26" />
      <path
         d="M 2412.67,159.102 V 715.57 h 59.37 V 520.762 h 3.88 c 25.36,39.847 63.77,59.636 115.26,59.379 43.46,0 80.19,-14.821 110.2,-44.411 30.01,-29.648 45.02,-70.449 45.02,-122.46 V 159.102 h -59.77 V 413.27 c 0,34.941 -9.52,62.218 -28.5,81.89 -19.04,19.66 -43.93,29.488 -74.72,29.488 -31.3,0 -57.69,-10.988 -79.16,-32.988 -21.47,-21.992 -32.21,-48.109 -32.21,-78.39 V 159.102 h -59.37"
         style="fill:#161c23;fill-opacity:1;fill-rule:nonzero;stroke:none"
         id="path28" />
      <path
         d="m 2861.05,159.102 v 413.277 h 55.34 l 0.54,-55.488 h 3.88 c 22.25,36.988 59.37,55.488 111.37,55.488 h 43.46 v -55.488 h -43.46 c -31.82,0 -58.33,-9.84 -79.55,-29.493 -21.21,-19.66 -31.82,-44.367 -31.82,-74.128 V 159.102 h -59.76"
         style="fill:#161c23;fill-opacity:1;fill-rule:nonzero;stroke:none"
         id="path30" />
      <path
         d="m 3211.28,248.57 c 24.06,-27.84 55.7,-41.73 94.87,-41.73 39.21,0 70.88,13.89 95.1,41.73 24.16,27.782 36.27,66.84 36.27,117.18 0,50.301 -12.11,89.359 -36.27,117.191 -24.22,27.797 -55.89,41.707 -95.1,41.707 -39.17,0 -70.81,-13.91 -94.87,-41.707 -24.05,-27.832 -36.09,-66.89 -36.09,-117.191 0,-50.34 12.04,-89.398 36.09,-117.18 z m 233.22,-40.961 c -34.92,-37.507 -81.05,-56.269 -138.35,-56.269 -57.3,0 -103.41,18.762 -138.33,56.269 -34.93,37.512 -52.39,90.211 -52.39,158.141 0,67.891 17.46,120.609 52.39,158.121 34.92,37.508 81.03,56.27 138.33,56.27 57.3,0 103.43,-18.762 138.35,-56.27 34.93,-37.512 52.39,-90.23 52.39,-158.121 0,-67.93 -17.46,-120.629 -52.39,-158.141"
         style="fill:#161c23;fill-opacity:1;fill-rule:nonzero;stroke:none"
         id="path32" />
      <path
         d="m 3751.24,151.34 c -44.49,0 -81.49,15.191 -110.98,45.59 -29.49,30.402 -44.24,70.832 -44.24,121.281 v 254.168 h 59.76 V 318.211 c 0,-34.93 9.5,-62.223 28.54,-81.883 18.98,-19.668 43.9,-29.488 74.68,-29.488 31.31,0 57.69,10.988 79.17,32.98 21.47,21.989 32.2,48.11 32.2,78.391 v 254.168 h 59.77 V 159.102 h -54.54 l -1.34,55.488 h -3.89 c -24.83,-42.168 -64.54,-63.25 -119.13,-63.25"
         style="fill:#161c23;fill-opacity:1;fill-rule:nonzero;stroke:none"
         id="path34" />
      <path
         d="M 4525.77,159.102 V 715.57 h 59.37 V 520.762 h 3.88 c 25.35,39.847 63.77,59.636 115.26,59.379 43.46,0 80.19,-14.821 110.2,-44.411 30.01,-29.648 45.02,-70.449 45.02,-122.46 V 159.102 h -59.76 V 413.27 c 0,34.941 -9.53,62.218 -28.52,81.89 -19.03,19.66 -43.92,29.488 -74.71,29.488 -31.3,0 -57.69,-10.988 -79.16,-32.988 -21.47,-21.992 -32.21,-48.109 -32.21,-78.39 V 159.102 h -59.37"
         style="fill:#161c23;fill-opacity:1;fill-rule:nonzero;stroke:none"
         id="path36" />
      <path
         d="m 1733.4,413.27 c 6.47,28.73 18.55,51.16 36.27,67.351 17.72,16.141 40.05,24.238 66.95,24.238 28.72,0 52.05,-8.539 70.06,-25.609 17.95,-17.082 29.02,-39.07 33.16,-65.98 z m 301.9,-31.809 c 0,58.461 -17.72,107.539 -53.16,147.269 -35.44,39.688 -83.95,59.559 -145.52,59.559 -60.54,0 -108.78,-19.348 -144.74,-58 -35.96,-38.711 -53.94,-92.168 -53.94,-160.469 0,-69.07 18.11,-122.761 54.32,-161.05 36.22,-38.282 85.38,-57.43 147.47,-57.43 49.15,0 89.51,12.078 121.06,36.269 20.09,15.403 41.97,41.52 54.4,62.84 l -81.33,39.082 c -21.86,-32.301 -57.92,-54.75 -93.36,-54.75 -31.3,0 -56.45,9.739 -75.49,29.297 -18.99,19.512 -29.54,45.453 -31.61,77.801 h 298.02 l 3.88,39.582"
         style="fill:#161c23;fill-opacity:1;fill-rule:nonzero;stroke:none"
         id="path38" />
      <path
         d="m 4308.28,276.289 c -23.02,-25.09 -53.89,-37.629 -92.56,-37.629 -38.68,0 -69.52,12.539 -92.54,37.629 -23.02,25.102 -34.54,60.211 -34.54,105.352 0,45.14 11.52,80.281 34.54,105.359 23.02,25.102 53.86,37.648 92.54,37.648 38.67,0 69.54,-12.546 92.56,-37.648 23.02,-25.078 34.54,-60.219 34.54,-105.359 0,-45.141 -11.52,-80.25 -34.54,-105.352 z m 38.62,296.09 -0.2,-51.617 h -3.88 c -30.79,39.59 -75.8,59.379 -135.05,59.379 -53.03,0 -96.1,-17.59 -129.22,-52.77 -33.11,-35.191 -49.67,-83.769 -49.67,-145.73 0,-61.961 16.56,-110.571 49.67,-145.903 33.12,-35.297 76.19,-52.957 129.22,-52.957 58.73,0.25 102.45,18.879 131.16,55.879 h 3.89 v -71.789 c 0,-36.492 -11.26,-64.082 -33.76,-82.8397 -22.51,-18.75 -52.26,-28.1524 -89.26,-28.1524 -58.98,0 -98.82,22.5117 -119.52,67.5191 h -0.09 l -51.25,-28.7769 c 13.53,-26.4609 32.44,-47.543 56.78,-63.1797 C 4138.31,10.4805 4176.34,0 4219.8,0 c 55.11,0 99.34,14.6992 132.72,44.0391 33.37,29.3789 50.06,70.3129 50.06,122.8319 v 405.508 h -55.68"
         style="fill:#161c23;fill-opacity:1;fill-rule:nonzero;stroke:none"
         id="path40" />
    </g>
  </g>
</svg>
