<svg xmlns="http://www.w3.org/2000/svg" xmlns:xlink="http://www.w3.org/1999/xlink" preserveAspectRatio="xMidYMid meet" viewBox="0 0 640 240" width="168" height="63"><defs><path d="M45.18 85.33L45.18 103.42L69.13 103.42L69.13 127.74L88.36 127.74L88.36 103.42L112.03 103.42L112.03 85.33L88.36 85.33L88.36 66.34L120.9 66.34L120.9 127.74L135.85 127.74L136.02 98.42L136.02 98.1L136.03 97.95L136.03 97.79L136.05 97.62L136.06 97.47L136.08 97.15L136.1 96.99L136.12 96.83L136.13 96.67L136.16 96.52L136.18 96.36L136.2 96.2L136.29 95.74L136.32 95.58L136.35 95.42L136.39 95.27L136.42 95.12L136.5 94.81L136.54 94.66L136.59 94.5L136.63 94.35L136.67 94.2L136.78 93.9L136.83 93.74L136.93 93.44L136.99 93.3L137.05 93.15L137.11 93L137.17 92.86L137.23 92.71L137.3 92.56L137.36 92.42L137.43 92.27L137.48 92.17L137.62 91.91L137.69 91.78L137.84 91.53L138 91.29L138.08 91.16L138.17 91.05L138.35 90.82L138.45 90.71L138.54 90.61L138.65 90.5L138.74 90.39L138.85 90.3L138.96 90.2L139.07 90.1L139.18 90.01L139.29 89.92L139.52 89.74L139.64 89.66L139.76 89.58L139.88 89.51L140 89.43L140.13 89.36L140.26 89.29L140.65 89.1L140.79 89.04L140.92 88.99L141.06 88.94L141.19 88.89L141.34 88.85L141.48 88.81L141.62 88.77L141.91 88.7L142.3 88.63L142.44 88.61L142.57 88.59L142.84 88.57L142.97 88.56L143.64 88.56L144.04 88.6L144.3 88.63L144.57 88.68L144.69 88.71L145.08 88.8L145.34 88.88L145.46 88.92L145.59 88.96L145.71 89.01L145.84 89.06L145.96 89.11L146.2 89.23L146.32 89.28L146.56 89.41L146.91 89.62L147.02 89.69L147.06 89.72L147.16 89.8L147.27 89.86L147.37 89.95L147.48 90.02L147.57 90.1L147.68 90.18L147.77 90.27L147.87 90.35L147.96 90.43L148.05 90.53L148.14 90.61L148.32 90.8L148.4 90.89L148.49 90.99L148.65 91.18L148.72 91.29L148.8 91.38L148.95 91.59L149.02 91.69L149.16 91.91L149.34 92.24L149.4 92.36L149.45 92.46L149.51 92.58L149.56 92.69L149.62 92.82L149.66 92.93L149.71 93.05L149.75 93.17L149.8 93.29L149.84 93.41L149.98 93.91L150.04 94.17L150.07 94.3L150.13 94.56L150.16 94.68L150.18 94.82L150.21 94.94L150.26 95.21L150.28 95.33L150.35 95.73L150.37 95.86L150.39 95.99L150.46 96.52L150.47 96.65L150.49 96.78L150.56 97.57L150.59 98.23L150.59 98.5L150.6 98.64L150.6 99.03L150.43 127.74L165.38 127.74L165.38 91.83L165.37 91.73L165.37 91.63L165.36 91.43L165.35 91.33L165.34 91.14L165.33 91.04L165.32 90.93L165.32 90.84L165.27 90.45L165.26 90.34L165.24 90.15L165.22 90.05L165.21 89.95L165.17 89.76L165.16 89.66L165.13 89.46L165.11 89.36L165.07 89.17L165.02 88.97L165.01 88.88L164.98 88.78L164.92 88.49L164.89 88.39L164.86 88.3L164.53 87.06L164.47 86.83L164.33 86.39L164.27 86.17L164.19 85.95L164.11 85.74L164.03 85.52L163.94 85.31L163.67 84.68L163.56 84.47L163.47 84.27L163.36 84.07L163.25 83.86L163.14 83.66L163.02 83.46L162.91 83.27L162.79 83.07L162.53 82.69L162.4 82.5L162.14 82.13L161.99 81.95L161.86 81.77L161.56 81.41L161.41 81.24L161.26 81.08L161.1 80.9L160.94 80.74L160.78 80.58L160.62 80.41L160.45 80.26L160.28 80.1L159.93 79.8L159.76 79.65L159.57 79.51L159.46 79.41L159.35 79.33L159.12 79.16L158.89 79L158.78 78.92L158.66 78.85L158.54 78.77L158.3 78.63L158.06 78.49L157.93 78.42L157.81 78.35L157.43 78.16L157.05 77.99L156.92 77.93L156.79 77.88L156.66 77.83L156.54 77.77L156.4 77.73L156.14 77.63L156 77.59L155.87 77.54L155.74 77.5L155.6 77.47L155.47 77.43L155.19 77.36L155.06 77.33L154.64 77.24L154.5 77.22L153.15 76.97L152.58 76.88L152.38 76.85L152.19 76.82L151.8 76.78L151.61 76.76L151.22 76.73L151.03 76.71L150.83 76.7L150.45 76.68L150.06 76.67L149.48 76.67L149.28 76.68L149.09 76.68L148.9 76.69L148.7 76.69L148.51 76.7L148.32 76.72L147.92 76.75L147.73 76.77L147.34 76.81L147.15 76.84L146.96 76.86L146.58 76.92L146.38 76.95L146 77.02L145.43 77.14L145.4 77.15L144.89 77.27L144.73 77.31L144.56 77.35L144.39 77.41L144.23 77.45L144.06 77.5L143.9 77.56L143.74 77.61L143.57 77.66L143.25 77.77L143.09 77.84L142.93 77.89L142.6 78.02L142.44 78.09L142.29 78.16L141.97 78.3L141.82 78.37L141.66 78.44L141.51 78.52L141.35 78.6L141.19 78.67L140.89 78.83L140.74 78.92L140.59 79L140.44 79.09L140.29 79.18L140.14 79.26L140 79.36L139.85 79.45L139.56 79.63L139.27 79.83L139.14 79.93L136.19 82.01L136.17 82.01L136.17 82.02L136.15 82.02L136.14 82.03L136.13 82.03L136.12 82.04L136.09 82.04L136.08 82.03L136.06 82.03L136.05 82.02L136.03 82.02L136.02 82.01L136.01 82.01L136 82L135.98 81.98L135.98 81.97L135.97 81.96L135.96 81.95L135.96 81.94L135.95 81.93L135.95 81.88L135.88 66.34L174.87 66.34L174.87 70.87L189.53 70.87L189.53 66.34L251.62 66.34L251.62 127.74L266.35 127.74L266.35 113.19L271.75 108.13L284.06 127.74L300.97 127.74L282.57 96.74L299.25 77.99L281.42 77.64L266.35 94.32L266.35 66.34L460.9 66.34L460.9 69.35L476.11 69.35L476.11 66.34L620.79 66.34L620.79 126.76L620.78 127.3L620.78 127.56L620.77 127.82L620.76 128.09L620.76 128.36L620.75 128.62L620.74 128.89L620.72 129.41L620.69 129.95L620.67 130.21L620.66 130.48L620.64 130.74L620.62 131L620.6 131.27L620.58 131.53L620.56 131.8L620.54 132.06L620.52 132.33L620.49 132.59L620.46 132.86L620.41 133.38L620.38 133.65L620.35 133.91L620.32 134.17L620.29 134.44L620.26 134.7L620.19 135.23L620.15 135.49L619.96 136.8L619.88 137.25L619.84 137.54L619.73 138.11L619.68 138.4L619.55 138.97L619.49 139.25L619.42 139.53L619.34 139.82L619.27 140.1L619.11 140.66L619.03 140.94L618.94 141.21L618.76 141.76L618.66 142.04L618.57 142.31L618.46 142.58L618.36 142.85L618.14 143.39L618.03 143.66L617.55 144.72L617.16 145.5L617.02 145.75L616.88 146.01L616.45 146.77L616.15 147.27L615.99 147.51L615.84 147.76L615.67 148L615.57 148.16L614.95 149.06L614.63 149.5L614.3 149.94L613.97 150.37L613.63 150.79L613.28 151.21L612.93 151.63L612.57 152.03L612.21 152.44L611.83 152.83L611.46 153.22L610.69 153.98L609.89 154.72L609.49 155.07L609.08 155.42L608.66 155.77L608.24 156.11L607.38 156.77L606.94 157.08L606.5 157.39L606.05 157.7L605.6 158L605.14 158.29L604.69 158.57L604.22 158.85L603.75 159.12L602.79 159.64L602.31 159.88L601.82 160.12L601.33 160.36L600.84 160.58L600.33 160.8L599.83 161.01L599.33 161.21L598.81 161.4L596.7 162.18L596.51 162.25L596.31 162.32L595.93 162.45L595.73 162.52L595.54 162.58L595.34 162.64L594.95 162.76L594.56 162.86L594.36 162.91L593.76 163.06L593.56 163.1L593.16 163.18L592.96 163.22L592.56 163.29L592.36 163.33L591.95 163.39L591.75 163.41L591.55 163.44L591.35 163.47L591.14 163.49L590.94 163.51L590.74 163.53L590.53 163.55L590.12 163.57L589.92 163.59L589.31 163.61L589.1 163.62L588.69 163.62L470.47 163.54L470.35 163.55L469.94 163.57L469.74 163.59L469.13 163.61L468.92 163.62L468.51 163.62L449.84 163.6L449.6 163.62L449.28 163.63L448.95 163.65L366.63 163.65L366.54 163.55L332.7 163.52L332.37 163.53L331.71 163.53L331.39 163.54L331.06 163.55L330.73 163.56L330.4 163.57L330.08 163.58L329.42 163.62L329.1 163.63L328.77 163.65L246.45 163.65L246.41 163.61L122.93 163.52L122.61 163.53L121.95 163.53L121.62 163.54L121.29 163.55L120.97 163.56L120.64 163.57L120.31 163.58L119.66 163.62L119.33 163.63L119.01 163.65L118.68 163.68L118.35 163.7L118.03 163.73L117.7 163.75L117.37 163.78L117.05 163.81L116.72 163.85L116.4 163.88L116.07 163.92L115.75 163.96L115.42 164L115.1 164.04L114.77 164.08L114.13 164.18L113.8 164.22L113.47 164.27L113.15 164.32L112.83 164.38L111.86 164.55L111.54 164.61L111.22 164.68L110.9 164.74L110.26 164.88L109.94 164.95L109.61 165.02L108.96 165.18L108.63 165.27L108.31 165.35L107.99 165.45L107.67 165.54L107.35 165.64L107.03 165.75L106.72 165.85L106.4 165.96L106.09 166.08L105.78 166.19L105.16 166.44L104.85 166.56L104.54 166.7L104.23 166.83L103.93 166.97L103.33 167.26L103.03 167.4L102.73 167.55L102.44 167.71L102.15 167.86L101.85 168.02L101.27 168.36L100.99 168.53L100.7 168.7L100.42 168.88L100.14 169.06L99.86 169.24L99.31 169.62L99.03 169.81L98.76 170.01L98.49 170.21L98.22 170.41L97.96 170.62L97.32 171.12L97.01 171.38L96.71 171.63L96.4 171.9L96.1 172.16L95.81 172.43L95.23 172.99L94.95 173.27L94.4 173.85L94.13 174.14L93.6 174.74L92.6 175.98L92.13 176.62L91.68 177.28L91.46 177.61L91.03 178.28L90.82 178.62L90.62 178.97L90.43 179.32L90.24 179.67L90.05 180.02L89.87 180.38L89.69 180.73L89.35 181.46L89.19 181.83L89.04 182.19L88.89 182.56L88.6 183.32L88.46 183.69L87.97 185.11L87.85 185.44L87.74 185.76L87.64 186.09L87.53 186.42L87.33 187.08L87.24 187.41L87.05 188.07L86.97 188.41L86.88 188.74L86.8 189.07L86.72 189.41L86.57 190.08L86.43 190.75L86.37 191.09L86.31 191.43L86.19 192.11L86.09 192.79L86.04 193.12L86 193.47L85.95 193.81L85.92 194.15L85.88 194.49L85.85 194.83L85.82 195.18L85.79 195.52L85.74 196.21L85.72 196.55L85.68 197.59L85.68 197.93L85.67 198.62L85.67 222.84L85.66 222.9L85.66 222.95L85.63 223.05L85.61 223.1L85.57 223.18L85.54 223.23L85.52 223.27L85.46 223.34L85.42 223.37L85.39 223.4L85.35 223.43L85.27 223.48L85.23 223.5L85.18 223.52L85.14 223.54L85.05 223.56L85.01 223.57L84.96 223.58L84.77 223.58L84.68 223.56L84.63 223.55L84.59 223.53L84.54 223.51L84.5 223.49L84.45 223.46L84.42 223.43L84.34 223.36L84.3 223.32L84.26 223.28L33.59 159.78L30.18 154.73L29.97 154.42L29.76 154.1L29.56 153.79L29.16 153.15L28.97 152.82L28.77 152.5L28.59 152.17L28.4 151.84L28.22 151.51L28.05 151.18L27.87 150.84L27.7 150.51L27.53 150.18L27.21 149.49L27.05 149.15L26.9 148.81L26.6 148.12L26.32 147.42L26.18 147.07L26.05 146.72L25.92 146.37L25.8 146.02L25.67 145.66L25.55 145.3L25.33 144.59L25.11 143.87L25.01 143.5L24.92 143.14L24.82 142.78L24.65 142.04L24.56 141.67L24.48 141.3L24.41 140.94L24.27 140.28L24.15 139.66L24.1 139.35L23.98 138.72L23.93 138.4L23.82 137.77L23.78 137.45L23.73 137.13L23.68 136.82L23.64 136.51L23.59 136.19L23.55 135.87L23.51 135.55L23.48 135.24L23.4 134.6L23.37 134.29L23.34 133.97L23.3 133.65L23.28 133.33L23.22 132.69L23.2 132.38L23.14 131.42L23.12 131.1L23.1 130.78L23.09 130.46L23.07 130.14L23.04 128.86L23.03 128.23L23.03 127.58L23.12 66.34L69.13 66.34L69.13 85.33L45.18 85.33ZM345.8 74.64L345.37 74.65L344.93 74.68L344.5 74.71L344.06 74.74L343.63 74.79L343.2 74.84L342.76 74.89L342.33 74.96L341.89 75.02L341.47 75.1L340.61 75.27L340.18 75.36L339.75 75.47L339.33 75.57L338.9 75.69L338.13 75.91L337.94 75.97L337.75 76.02L337.56 76.08L337.01 76.28L336.83 76.35L336.64 76.42L336.46 76.49L335.92 76.73L335.75 76.81L335.57 76.9L335.4 76.98L335.05 77.16L334.7 77.35L334.54 77.45L334.04 77.75L333.87 77.86L333.71 77.97L333.55 78.07L333.22 78.3L333.07 78.41L332.6 78.77L332.45 78.9L332.15 79.15L332 79.28L331.57 79.67L331.43 79.81L330.36 80.85L330.15 81.06L329.94 81.27L329.74 81.49L329.35 81.93L328.98 82.38L328.79 82.61L328.62 82.85L328.44 83.09L328.28 83.33L327.95 83.81L327.8 84.06L327.65 84.31L327.36 84.82L327.23 85.08L327.1 85.34L326.97 85.6L326.73 86.14L326.62 86.4L326.51 86.68L326.31 87.22L326.22 87.5L326.13 87.78L326.05 88.06L325.97 88.34L325.9 88.62L325.76 89.2L325.71 89.48L325.66 89.78L325.61 90.07L325.57 90.35L325.53 90.65L325.5 90.95L325.47 91.24L325.39 92.25L325.37 92.53L325.36 92.82L325.35 93.11L325.35 93.39L325.37 93.67L325.38 93.96L325.41 94.24L325.44 94.52L325.48 94.79L325.52 95.07L325.57 95.35L325.63 95.62L325.7 95.9L325.77 96.17L325.85 96.44L325.94 96.7L326.03 96.96L326.13 97.22L326.35 97.74L326.46 97.99L326.59 98.24L326.72 98.48L326.86 98.73L327 98.97L327.15 99.2L327.3 99.44L327.47 99.66L327.63 99.89L327.81 100.11L327.98 100.33L328.17 100.54L328.36 100.74L328.56 100.95L328.76 101.15L329.18 101.53L329.4 101.72L329.62 101.9L329.85 102.07L330.02 102.19L330.23 102.35L330.44 102.5L330.66 102.65L330.87 102.8L331.09 102.95L331.31 103.09L331.98 103.5L332.2 103.63L332.43 103.76L332.66 103.89L332.89 104.01L333.35 104.25L333.59 104.37L334.05 104.59L334.53 104.81L335.01 105.01L335.25 105.11L335.5 105.2L336.23 105.47L336.48 105.55L336.98 105.71L337.73 105.93L337.98 106L338.24 106.06L338.49 106.12L338.74 106.18L339.51 106.34L339.87 106.41L340.21 106.47L340.54 106.53L341.18 106.65L341.5 106.71L341.81 106.77L342.1 106.82L342.4 106.88L342.68 106.94L342.96 106.99L343.23 107.04L343.75 107.14L344 107.19L344.25 107.23L344.48 107.28L344.94 107.36L345.15 107.4L345.36 107.45L345.56 107.48L345.76 107.52L345.95 107.56L346.13 107.59L346.3 107.62L346.47 107.66L346.63 107.69L346.93 107.75L347.06 107.77L347.32 107.83L347.44 107.85L347.55 107.87L347.65 107.89L347.75 107.92L347.84 107.93L347.93 107.95L348 107.96L348.18 108L348.35 108.04L348.52 108.08L348.7 108.11L348.88 108.15L349.41 108.26L349.59 108.29L349.77 108.33L349.94 108.37L350.3 108.45L350.48 108.49L350.65 108.53L350.83 108.58L351 108.62L351.17 108.67L351.35 108.72L351.52 108.77L351.69 108.83L351.86 108.88L352.03 108.94L352.19 109L352.36 109.07L352.52 109.13L352.84 109.28L353.15 109.43L353.3 109.52L353.45 109.6L353.6 109.69L353.75 109.78L353.89 109.89L354.03 109.99L354.16 110.09L354.3 110.2L354.56 110.44L354.58 110.46L354.59 110.48L354.6 110.49L354.61 110.51L354.62 110.52L354.64 110.55L354.65 110.57L354.67 110.6L354.68 110.63L354.69 110.64L354.72 110.69L354.74 110.72L354.76 110.76L354.78 110.79L354.79 110.82L354.83 110.88L354.84 110.91L354.86 110.94L354.87 110.97L354.95 111.12L354.96 111.16L354.99 111.19L355.01 111.23L355.03 111.28L355.05 111.32L355.09 111.4L355.18 111.59L355.23 111.69L355.3 111.9L355.33 112L355.38 112.21L355.39 112.31L355.4 112.42L355.42 112.52L355.42 112.62L355.43 112.73L355.43 112.83L355.42 112.94L355.42 113.04L355.4 113.15L355.37 113.35L355.35 113.45L355.32 113.55L355.29 113.65L355.26 113.75L355.21 113.85L355.18 113.94L355.13 114.03L355.08 114.13L355.04 114.22L354.92 114.4L354.86 114.48L354.73 114.65L354.59 114.8L354.43 114.95L354.35 115.02L354.26 115.08L354.18 115.14L354.08 115.21L353.9 115.32L353.7 115.44L353.52 115.54L353.32 115.65L353.13 115.75L352.94 115.85L352.55 116.04L352.34 116.12L352.15 116.21L351.54 116.44L351.34 116.52L350.92 116.64L350.71 116.71L350.51 116.76L350.29 116.81L349.87 116.91L349.66 116.95L349.23 117.02L348.81 117.08L348.58 117.11L348.15 117.14L347.94 117.15L347.72 117.17L346.85 117.17L346.63 117.15L346.41 117.14L346.2 117.12L345.98 117.11L345.76 117.08L344 116.86L343.82 116.84L343.45 116.79L343.26 116.76L343.08 116.72L342.9 116.69L342.72 116.65L342.53 116.62L342 116.49L341.64 116.4L341.46 116.34L341.28 116.29L341.11 116.24L340.93 116.18L340.41 116L340.06 115.87L339.89 115.8L339.55 115.66L339.38 115.58L339.21 115.51L338.88 115.35L338.71 115.27L338.55 115.18L338.38 115.1L338.22 115.01L338.06 114.92L337.9 114.83L337.74 114.74L337.57 114.64L337.42 114.54L337.26 114.44L337.11 114.34L331.31 110.54L321.91 118.75L325.99 122.22L326.14 122.35L326.28 122.47L326.43 122.59L326.58 122.71L326.73 122.82L326.88 122.94L327.04 123.06L327.19 123.18L327.34 123.28L327.65 123.51L328.12 123.83L328.28 123.94L328.44 124.04L328.59 124.14L328.75 124.24L328.92 124.34L329.08 124.45L329.24 124.54L329.41 124.64L329.57 124.73L329.74 124.83L330.41 125.19L330.58 125.27L330.75 125.36L331.09 125.53L331.27 125.6L331.44 125.69L331.79 125.84L331.96 125.91L332.14 125.99L332.31 126.06L332.49 126.14L333.14 126.39L333.52 126.54L333.89 126.68L334.27 126.82L335.41 127.21L335.8 127.33L336.18 127.45L336.57 127.56L336.95 127.67L337.34 127.77L337.74 127.87L338.12 127.97L338.51 128.06L339.3 128.22L339.69 128.3L340.48 128.44L340.87 128.51L341.27 128.57L342.47 128.72L343.27 128.8L344.07 128.86L344.87 128.91L345.27 128.92L346.07 128.94L346.88 128.94L347.68 128.92L348.08 128.9L348.49 128.89L348.89 128.86L352.08 128.64L352.28 128.63L352.47 128.61L352.68 128.59L353.27 128.52L353.86 128.43L354.25 128.36L354.45 128.32L354.64 128.28L354.84 128.24L355.03 128.19L355.23 128.15L355.42 128.09L355.61 128.04L355.8 127.99L356.37 127.81L356.75 127.69L356.93 127.62L357.31 127.48L357.49 127.41L357.67 127.33L357.86 127.26L358.04 127.17L358.22 127.1L358.41 127.01L358.59 126.92L358.76 126.84L358.94 126.75L359.12 126.65L359.3 126.56L359.47 126.47L359.65 126.37L362.2 124.92L362.58 124.7L362.96 124.46L363.14 124.34L363.32 124.21L363.51 124.09L363.87 123.83L364.38 123.41L364.55 123.27L364.72 123.12L364.88 122.98L365.04 122.83L365.51 122.36L365.67 122.2L365.97 121.88L366.25 121.55L366.4 121.37L366.53 121.2L366.67 121.03L366.8 120.85L366.93 120.67L367.06 120.5L367.18 120.31L367.42 119.94L367.54 119.75L367.66 119.56L367.88 119.18L367.98 118.98L368.19 118.59L368.39 118.16L368.49 117.94L368.59 117.72L368.77 117.28L368.93 116.84L369.02 116.61L369.09 116.38L369.17 116.16L369.24 115.94L369.3 115.71L369.37 115.48L369.43 115.25L369.48 115.02L369.54 114.79L369.59 114.56L369.64 114.33L369.68 114.1L369.73 113.87L369.76 113.63L369.8 113.39L369.83 113.16L369.86 112.93L369.89 112.69L369.91 112.46L369.93 112.22L369.95 111.99L369.97 111.51L369.98 111.28L369.98 110.56L369.97 110.32L369.96 110.08L369.95 109.85L369.91 109.37L369.88 109.07L369.85 108.78L369.8 108.48L369.75 108.2L369.69 107.9L369.63 107.62L369.55 107.33L369.48 107.05L369.3 106.49L369.2 106.22L369.09 105.95L368.98 105.67L368.87 105.41L368.74 105.15L368.61 104.89L368.47 104.63L368.33 104.38L368.18 104.13L368.03 103.88L367.87 103.64L367.7 103.4L367.53 103.17L367.35 102.93L367.17 102.71L366.79 102.27L366.59 102.06L366.38 101.85L366.18 101.64L365.96 101.45L365.74 101.25L365.52 101.07L365.29 100.88L365.05 100.7L364.82 100.53L364.57 100.36L364.32 100.2L364.07 100.05L363.81 99.9L363.32 99.62L363.07 99.49L362.58 99.23L362.08 98.98L361.58 98.74L361.32 98.62L361.07 98.51L360.56 98.28L359.79 97.96L359.53 97.86L359.27 97.75L359.01 97.66L358.75 97.56L358.48 97.47L358.22 97.37L357.96 97.28L357.7 97.2L357.43 97.11L357.17 97.03L356.09 96.72L355.82 96.64L355.55 96.58L355.28 96.51L355.01 96.44L354.74 96.38L354.47 96.32L353.92 96.2L353.64 96.15L353.37 96.1L353.16 96.06L352.95 96.02L352.75 95.98L352.55 95.95L352.35 95.91L352.16 95.87L351.97 95.84L351.79 95.81L351.61 95.77L351.44 95.74L351.26 95.71L350.94 95.65L350.47 95.56L350.33 95.53L350.18 95.5L350.05 95.48L349.91 95.45L349.78 95.43L349.65 95.4L349.41 95.36L349.3 95.34L349.19 95.31L349.09 95.3L348.98 95.27L348.79 95.24L348.7 95.22L348.46 95.16L348.39 95.15L348.32 95.13L348.25 95.12L348.19 95.11L348.08 95.09L347.89 95.04L347.7 95L347.5 94.96L347.09 94.87L346.89 94.82L346.68 94.78L346.26 94.69L345.83 94.59L345.41 94.49L344.98 94.38L344.34 94.2L344.12 94.14L343.91 94.08L343.7 94.01L343.49 93.94L343.28 93.86L343.08 93.79L342.87 93.71L342.67 93.63L342.28 93.46L341.9 93.28L341.72 93.18L341.53 93.08L341.18 92.87L341.02 92.75L340.86 92.64L340.7 92.51L340.4 92.26L340.26 92.13L340.25 92.13L340.25 92.12L340.24 92.1L340.22 92.09L340.22 92.07L340.21 92.06L340.21 92.05L340.18 92L340.17 91.99L340.16 91.97L340.15 91.95L340.14 91.94L340.13 91.92L340.12 91.91L340.12 91.89L340.09 91.85L340.09 91.83L340.06 91.8L340.06 91.77L340.04 91.76L340.03 91.73L340.02 91.72L339.99 91.64L339.97 91.62L339.96 91.6L339.9 91.47L339.84 91.35L339.74 91.1L339.7 90.97L339.67 90.84L339.64 90.72L339.6 90.46L339.58 90.2L339.58 90.07L339.59 89.94L339.59 89.82L339.6 89.69L339.62 89.56L339.65 89.44L339.67 89.32L339.7 89.19L339.79 88.95L339.89 88.71L339.94 88.6L340 88.49L340.14 88.27L340.21 88.17L340.38 87.97L340.46 87.87L340.75 87.6L341.07 87.37L341.31 87.24L341.43 87.18L342.13 86.85L342.25 86.8L342.36 86.74L342.48 86.7L342.6 86.64L342.72 86.6L342.84 86.55L342.97 86.51L343.09 86.46L343.21 86.43L343.33 86.39L343.71 86.28L344.08 86.19L344.21 86.17L344.34 86.14L344.59 86.09L344.72 86.08L344.97 86.04L345.11 86.03L345.23 86.02L345.36 86L345.49 86L345.62 85.99L345.88 85.98L346.14 85.98L346.27 85.99L346.39 85.99L346.66 86L346.78 86.01L347.04 86.03L347.18 86.05L347.99 86.15L348.32 86.2L348.65 86.24L348.97 86.29L349.62 86.41L350.58 86.62L351.22 86.78L351.53 86.87L351.84 86.97L352.15 87.06L352.46 87.16L353.39 87.49L353.69 87.61L353.99 87.73L354.3 87.86L354.59 87.99L354.89 88.13L355.18 88.27L355.76 88.56L356.06 88.71L356.34 88.87L356.62 89.04L356.91 89.2L357.18 89.37L357.46 89.54L358.01 89.9L358.28 90.09L358.55 90.28L358.81 90.47L359.07 90.66L359.34 90.87L359.59 91.08L359.84 91.29L360.4 91.74L369.35 82.5L364.39 79.7L364.18 79.58L363.97 79.47L363.56 79.24L363.35 79.14L363.14 79.02L362.93 78.92L362.72 78.81L362.51 78.7L362.29 78.59L362.08 78.49L361.87 78.39L361.66 78.29L361.01 77.98L360.58 77.79L360.36 77.7L359.93 77.51L359.49 77.33L359.28 77.24L358.84 77.06L357.73 76.64L357.51 76.56L357.28 76.49L357.06 76.41L356.84 76.33L356.62 76.25L356.39 76.18L356.16 76.1L355.94 76.03L355.72 75.96L355.29 75.84L354.87 75.72L354.02 75.49L353.6 75.39L353.17 75.29L352.74 75.2L351.88 75.04L351.02 74.91L350.58 74.85L350.15 74.8L349.72 74.76L349.28 74.71L348.85 74.68L348.41 74.66L347.98 74.64L347.55 74.62L346.24 74.62L345.8 74.64ZM564.72 74.64L564.28 74.65L563.85 74.68L563.42 74.71L562.98 74.74L562.55 74.79L562.12 74.84L561.68 74.89L561.25 74.96L560.81 75.02L560.38 75.1L559.53 75.27L559.1 75.36L558.67 75.47L558.24 75.57L557.05 75.91L556.86 75.97L556.67 76.02L556.48 76.08L555.93 76.28L555.74 76.35L555.38 76.49L554.84 76.73L554.67 76.81L554.49 76.9L554.32 76.98L553.97 77.16L553.62 77.35L553.46 77.45L552.96 77.75L552.79 77.86L552.47 78.07L552.14 78.3L551.99 78.41L551.52 78.77L551.37 78.9L551.07 79.15L550.92 79.28L550.78 79.41L550.63 79.54L550.49 79.67L550.35 79.81L549.27 80.85L549.06 81.06L548.86 81.27L548.66 81.49L548.27 81.93L548.07 82.16L547.89 82.38L547.71 82.61L547.54 82.85L547.36 83.09L547.2 83.33L547.03 83.57L546.72 84.06L546.57 84.31L546.28 84.82L546.15 85.08L546.02 85.34L545.89 85.6L545.65 86.14L545.54 86.4L545.43 86.68L545.33 86.95L545.23 87.22L545.05 87.78L544.97 88.06L544.89 88.34L544.82 88.62L544.68 89.2L544.63 89.48L544.53 90.07L544.49 90.35L544.45 90.65L544.42 90.95L544.39 91.24L544.31 92.25L544.29 92.53L544.28 92.82L544.27 93.11L544.27 93.39L544.28 93.67L544.3 93.96L544.36 94.52L544.39 94.79L544.49 95.35L544.55 95.62L544.62 95.9L544.69 96.17L544.77 96.44L544.95 96.96L545.05 97.22L545.26 97.74L545.38 97.99L545.51 98.24L545.64 98.48L545.78 98.73L545.92 98.97L546.07 99.2L546.22 99.44L546.39 99.66L546.55 99.89L546.73 100.11L546.9 100.33L547.09 100.54L547.28 100.74L547.48 100.95L547.68 101.15L547.88 101.34L548.1 101.53L548.32 101.72L548.54 101.9L548.77 102.07L548.94 102.19L549.15 102.35L549.36 102.5L549.58 102.65L549.79 102.8L550.01 102.95L550.23 103.09L550.45 103.23L550.68 103.36L550.9 103.5L551.12 103.63L551.58 103.89L551.81 104.01L552.27 104.25L552.5 104.37L552.74 104.48L552.97 104.59L553.45 104.81L553.93 105.01L554.42 105.2L554.66 105.29L554.91 105.38L555.15 105.47L555.4 105.55L555.9 105.71L556.14 105.79L556.39 105.86L556.65 105.93L556.9 106L557.16 106.06L557.41 106.12L557.66 106.18L558.43 106.34L558.78 106.41L559.13 106.47L559.45 106.53L559.78 106.59L560.1 106.65L560.73 106.77L561.02 106.82L561.32 106.88L561.6 106.94L561.88 106.99L562.15 107.04L562.67 107.14L562.92 107.19L563.17 107.23L563.4 107.28L563.63 107.32L564.07 107.4L564.28 107.45L564.48 107.48L564.68 107.52L565.05 107.59L565.22 107.62L565.39 107.66L565.55 107.69L565.85 107.75L565.98 107.77L566.24 107.83L566.36 107.85L566.47 107.87L566.57 107.89L566.67 107.92L566.76 107.93L566.84 107.95L566.92 107.96L567.09 108L567.27 108.04L567.44 108.08L567.62 108.11L567.8 108.15L568.15 108.22L568.33 108.26L568.69 108.33L568.86 108.37L569.04 108.41L569.4 108.49L569.57 108.53L569.74 108.58L569.92 108.62L570.09 108.67L570.27 108.72L570.43 108.77L570.61 108.83L570.77 108.88L571.11 109L571.28 109.07L571.44 109.13L571.76 109.28L572.07 109.43L572.22 109.52L572.37 109.6L572.52 109.69L572.67 109.78L572.81 109.89L572.95 109.99L573.08 110.09L573.21 110.2L573.35 110.32L573.48 110.45L573.49 110.45L573.5 110.46L573.51 110.48L573.53 110.51L573.54 110.52L573.55 110.54L573.56 110.55L573.57 110.57L573.59 110.6L573.6 110.63L573.61 110.64L573.65 110.72L573.67 110.74L573.68 110.76L573.7 110.79L573.71 110.82L573.73 110.85L573.74 110.88L573.76 110.91L573.78 110.94L573.79 110.97L573.87 111.12L573.88 111.16L573.91 111.19L573.94 111.28L573.97 111.32L573.98 111.36L574.01 111.4L574.06 111.5L574.1 111.59L574.18 111.8L574.22 111.9L574.25 112L574.29 112.21L574.31 112.31L574.32 112.42L574.34 112.52L574.34 112.62L574.35 112.73L574.34 112.83L574.34 112.94L574.33 113.04L574.32 113.15L574.31 113.25L574.28 113.35L574.27 113.45L574.24 113.55L574.18 113.75L574.13 113.85L574.1 113.94L574.05 114.03L574 114.13L573.9 114.31L573.84 114.4L573.78 114.48L573.65 114.65L573.51 114.8L573.35 114.95L573.27 115.02L573.09 115.14L573 115.21L572.82 115.32L572.62 115.44L572.24 115.65L572.05 115.75L571.85 115.85L571.66 115.94L571.46 116.04L571.26 116.12L571.07 116.21L570.46 116.44L570.25 116.52L570.05 116.58L569.84 116.64L569.63 116.71L569.21 116.81L569 116.86L568.79 116.91L568.58 116.95L568.15 117.02L567.72 117.08L567.5 117.11L567.07 117.14L566.86 117.15L566.64 117.17L565.77 117.17L565.55 117.15L565.33 117.14L565.12 117.12L564.9 117.11L564.68 117.08L562.92 116.86L562.73 116.84L562.55 116.81L562.37 116.79L562.18 116.76L562 116.72L561.82 116.69L561.64 116.65L561.45 116.62L560.92 116.49L560.56 116.4L560.38 116.34L560.2 116.29L560.03 116.24L559.85 116.18L559.5 116.06L559.32 116L559.15 115.94L558.98 115.87L558.47 115.66L558.3 115.58L557.8 115.35L557.63 115.27L557.47 115.18L557.3 115.1L556.98 114.92L556.66 114.74L556.49 114.64L556.34 114.54L556.02 114.34L550.22 110.54L540.82 118.75L544.91 122.22L545.05 122.35L545.2 122.47L545.35 122.59L545.5 122.71L545.65 122.82L545.95 123.06L546.11 123.18L546.26 123.28L546.41 123.4L546.56 123.51L546.73 123.62L547.04 123.83L547.2 123.94L547.35 124.04L547.84 124.34L548 124.45L548.32 124.64L548.66 124.83L549.33 125.19L549.5 125.27L549.67 125.36L550.01 125.53L550.18 125.6L550.35 125.69L550.53 125.77L550.71 125.84L550.88 125.91L551.06 125.99L551.23 126.06L551.41 126.14L552.06 126.39L552.44 126.54L552.81 126.68L553.19 126.82L553.95 127.08L554.33 127.21L554.72 127.33L555.1 127.45L555.49 127.56L555.87 127.67L557.04 127.97L557.43 128.06L558.22 128.22L558.61 128.3L559.4 128.44L559.79 128.51L560.19 128.57L560.59 128.62L561.39 128.72L561.79 128.76L562.18 128.8L562.58 128.83L562.99 128.86L563.79 128.91L564.99 128.94L565.8 128.94L566.2 128.93L566.6 128.92L567.4 128.89L567.81 128.86L571 128.64L571.2 128.63L571.59 128.59L571.79 128.57L572.19 128.52L572.78 128.43L573.17 128.36L573.36 128.32L573.76 128.24L573.95 128.19L574.14 128.15L574.34 128.09L574.53 128.04L574.72 127.99L575.1 127.87L575.29 127.81L575.48 127.75L575.67 127.69L575.85 127.62L576.59 127.33L576.78 127.26L576.96 127.17L577.14 127.1L577.32 127.01L577.51 126.92L577.68 126.84L577.86 126.75L578.04 126.65L578.22 126.56L578.39 126.47L578.56 126.37L581.12 124.92L581.69 124.58L581.88 124.46L582.06 124.34L582.24 124.21L582.43 124.09L582.61 123.96L582.78 123.83L582.96 123.69L583.47 123.27L583.63 123.12L583.8 122.98L583.96 122.83L584.12 122.67L584.59 122.2L584.89 121.88L585.17 121.55L585.31 121.37L585.45 121.2L585.59 121.03L585.72 120.85L585.85 120.67L585.98 120.5L586.1 120.31L586.34 119.94L586.46 119.75L586.58 119.56L586.8 119.18L586.9 118.98L587.11 118.59L587.31 118.16L587.41 117.94L587.51 117.72L587.69 117.28L587.85 116.84L588.01 116.38L588.09 116.16L588.15 115.94L588.22 115.71L588.28 115.48L588.35 115.25L588.4 115.02L588.51 114.56L588.56 114.33L588.6 114.1L588.65 113.87L588.68 113.63L588.72 113.39L588.75 113.16L588.78 112.93L588.81 112.69L588.83 112.46L588.85 112.22L588.87 111.99L588.89 111.51L588.9 111.28L588.9 110.56L588.89 110.32L588.88 110.08L588.87 109.85L588.83 109.37L588.8 109.07L588.77 108.78L588.72 108.48L588.67 108.2L588.61 107.9L588.55 107.62L588.47 107.33L588.4 107.05L588.22 106.49L588.12 106.22L588.01 105.95L587.9 105.67L587.66 105.15L587.53 104.89L587.39 104.63L587.25 104.38L587.1 104.13L586.79 103.64L586.62 103.4L586.45 103.17L586.27 102.93L586.09 102.71L585.71 102.27L585.51 102.06L585.3 101.85L585.1 101.64L584.88 101.45L584.66 101.25L584.44 101.07L584.21 100.88L583.97 100.7L583.74 100.53L583.49 100.36L583.24 100.2L582.99 100.05L582.73 99.9L582.49 99.76L582.24 99.62L581.75 99.36L581.25 99.1L581 98.98L580.75 98.86L580.5 98.74L580.24 98.62L579.99 98.51L579.48 98.28L578.71 97.96L578.45 97.86L578.19 97.75L577.93 97.66L577.67 97.56L577.4 97.47L577.14 97.37L576.88 97.28L576.62 97.2L576.35 97.11L576.08 97.03L575.82 96.95L575.01 96.72L574.74 96.64L574.47 96.58L573.93 96.44L573.38 96.32L573.11 96.26L572.84 96.2L572.56 96.15L572.29 96.1L572.08 96.06L571.87 96.02L571.66 95.98L571.27 95.91L571.08 95.87L570.89 95.84L570.71 95.81L570.53 95.77L570.36 95.74L570.18 95.71L570.02 95.68L569.69 95.62L569.54 95.59L569.39 95.56L569.25 95.53L569.1 95.5L568.97 95.48L568.83 95.45L568.7 95.43L568.57 95.4L568.33 95.36L568.22 95.34L568.11 95.31L568.01 95.3L567.9 95.27L567.8 95.25L567.53 95.2L567.38 95.16L567.31 95.15L567.24 95.13L567.17 95.12L567.05 95.1L567 95.09L566.81 95.04L566.61 95L566.42 94.96L566.01 94.87L565.81 94.82L565.6 94.78L565.39 94.73L565.18 94.69L564.97 94.64L564.75 94.59L564.54 94.54L564.32 94.49L563.89 94.38L563.46 94.26L563.26 94.2L563.04 94.14L562.83 94.08L562.62 94.01L562.41 93.94L562.2 93.86L562 93.79L561.79 93.71L561.59 93.63L561.2 93.46L561.01 93.37L560.82 93.28L560.64 93.18L560.45 93.08L560.1 92.87L559.94 92.75L559.78 92.64L559.62 92.51L559.32 92.26L559.17 92.13L559.17 92.11L559.16 92.11L559.16 92.1L559.14 92.09L559.14 92.07L559.13 92.07L559.13 92.05L559.11 92.03L559.1 92.01L559.08 91.97L559.07 91.95L559.06 91.94L559.05 91.92L559.04 91.91L559.03 91.89L559.01 91.85L559.01 91.83L558.98 91.8L558.97 91.77L558.96 91.76L558.95 91.73L558.94 91.72L558.92 91.67L558.9 91.64L558.88 91.6L558.82 91.47L558.76 91.35L558.66 91.1L558.62 90.97L558.59 90.84L558.56 90.72L558.52 90.46L558.51 90.33L558.5 90.2L558.5 89.94L558.52 89.69L558.54 89.56L558.56 89.44L558.59 89.32L558.62 89.19L558.8 88.71L558.86 88.6L558.92 88.49L558.99 88.38L559.06 88.27L559.13 88.17L559.21 88.07L559.29 87.97L559.38 87.87L559.47 87.78L559.67 87.6L559.77 87.53L559.99 87.37L560.1 87.31L560.22 87.24L560.35 87.18L561.04 86.85L561.28 86.74L561.4 86.7L561.52 86.64L561.64 86.6L561.88 86.51L562.01 86.46L562.13 86.43L562.25 86.39L562.63 86.28L563 86.19L563.26 86.14L563.39 86.12L563.51 86.09L563.64 86.08L563.77 86.06L563.89 86.04L564.03 86.03L564.15 86.02L564.28 86L564.41 86L564.67 85.99L564.79 85.98L565.06 85.98L565.18 85.99L565.31 85.99L565.58 86L565.7 86.01L565.96 86.03L566.09 86.05L566.91 86.15L567.24 86.2L567.57 86.24L567.89 86.29L568.54 86.41L568.86 86.48L569.18 86.55L569.5 86.62L569.81 86.7L570.13 86.78L570.45 86.87L570.76 86.97L571.07 87.06L571.38 87.16L572 87.38L572.3 87.49L572.61 87.61L572.91 87.73L573.21 87.86L573.51 87.99L573.81 88.13L574.39 88.42L574.68 88.56L574.97 88.71L575.54 89.04L575.82 89.2L576.38 89.54L576.66 89.72L576.93 89.9L577.47 90.28L577.99 90.66L578.51 91.08L578.76 91.29L579.31 91.74L588.26 82.5L583.31 79.7L583.1 79.58L582.89 79.47L582.69 79.36L582.48 79.24L582.27 79.14L582.06 79.02L581.84 78.92L581.43 78.7L581.21 78.59L581 78.49L580.57 78.29L580.36 78.19L579.93 77.98L579.72 77.89L579.5 77.79L579.07 77.6L578.85 77.51L578.63 77.42L578.41 77.33L578.2 77.24L577.76 77.06L576.65 76.64L576.43 76.56L575.98 76.41L575.76 76.33L575.54 76.25L575.31 76.18L575.08 76.1L574.86 76.03L574.64 75.96L574.21 75.84L573.79 75.72L572.94 75.49L572.52 75.39L572.09 75.29L571.66 75.2L571.23 75.12L570.8 75.04L570.37 74.98L569.93 74.91L569.5 74.85L569.07 74.8L568.64 74.76L568.2 74.71L567.77 74.68L566.9 74.64L566.46 74.62L565.15 74.62L564.72 74.64ZM511.2 74.64L510.76 74.65L510.32 74.68L509.89 74.71L509.45 74.74L508.59 74.84L508.15 74.89L507.29 75.02L506.86 75.1L506 75.27L505.57 75.36L505.14 75.47L504.72 75.57L504.3 75.69L503.87 75.81L503.52 75.91L503.33 75.97L503.15 76.02L502.95 76.08L502.4 76.28L501.86 76.49L501.68 76.57L501.49 76.65L501.32 76.73L501.14 76.81L500.96 76.9L500.79 76.98L500.44 77.16L500.27 77.26L500.1 77.35L499.93 77.45L499.43 77.75L499.27 77.86L499.1 77.97L498.94 78.07L498.78 78.19L498.62 78.3L498.46 78.41L498 78.77L497.85 78.9L497.69 79.02L497.54 79.15L497.4 79.28L497.25 79.41L496.96 79.67L496.82 79.81L495.75 80.85L495.33 81.27L495.13 81.49L494.74 81.93L494.37 82.38L494.18 82.61L493.84 83.09L493.67 83.33L493.35 83.81L493.19 84.06L493.04 84.31L492.76 84.82L492.63 85.08L492.36 85.6L492.12 86.14L492.02 86.4L491.91 86.68L491.8 86.95L491.71 87.22L491.61 87.5L491.44 88.06L491.29 88.62L491.16 89.2L491.1 89.48L491.05 89.78L491 90.07L490.96 90.35L490.92 90.65L490.89 90.95L490.86 91.24L490.78 92.25L490.76 92.53L490.75 92.82L490.75 93.39L490.76 93.67L490.78 93.96L490.8 94.24L490.83 94.52L490.87 94.79L490.91 95.07L490.97 95.35L491.03 95.62L491.09 95.9L491.16 96.17L491.25 96.44L491.33 96.7L491.52 97.22L491.63 97.48L491.74 97.74L491.98 98.24L492.11 98.48L492.25 98.73L492.39 98.97L492.54 99.2L492.7 99.44L492.86 99.66L493.03 99.89L493.2 100.11L493.56 100.54L493.75 100.74L493.95 100.95L494.15 101.15L494.57 101.53L494.79 101.72L495.01 101.9L495.24 102.07L495.41 102.19L495.62 102.35L495.84 102.5L496.05 102.65L496.27 102.8L496.49 102.95L496.71 103.09L497.37 103.5L497.6 103.63L497.82 103.76L498.05 103.89L498.28 104.01L498.52 104.13L498.75 104.25L499.45 104.59L499.92 104.81L500.16 104.91L500.41 105.01L500.65 105.11L500.89 105.2L501.62 105.47L501.87 105.55L502.37 105.71L503.12 105.93L503.37 106L503.63 106.06L503.88 106.12L504.14 106.18L504.91 106.34L505.26 106.41L505.6 106.47L506.26 106.59L506.89 106.71L507.2 106.77L507.5 106.82L507.79 106.88L508.07 106.94L508.36 106.99L508.62 107.04L508.89 107.09L509.15 107.14L509.4 107.19L509.64 107.23L509.88 107.28L510.33 107.36L510.55 107.4L510.75 107.45L510.96 107.48L511.34 107.56L511.52 107.59L511.69 107.62L511.86 107.66L512.02 107.69L512.32 107.75L512.45 107.77L512.59 107.8L512.83 107.85L512.94 107.87L513.05 107.89L513.15 107.92L513.24 107.93L513.32 107.95L513.4 107.96L513.74 108.04L513.92 108.08L514.27 108.15L514.45 108.19L514.99 108.29L515.16 108.33L515.34 108.37L515.52 108.41L515.69 108.45L515.87 108.49L516.04 108.53L516.22 108.58L516.39 108.62L516.57 108.67L516.91 108.77L517.08 108.83L517.25 108.88L517.59 109L517.91 109.13L518.23 109.28L518.54 109.43L518.7 109.52L518.85 109.6L519 109.69L519.14 109.78L519.28 109.89L519.42 109.99L519.69 110.2L519.82 110.32L519.95 110.44L519.96 110.45L519.99 110.48L519.99 110.49L520 110.51L520.01 110.52L520.03 110.55L520.04 110.57L520.08 110.63L520.09 110.64L520.11 110.69L520.13 110.72L520.15 110.76L520.17 110.79L520.18 110.82L520.22 110.88L520.23 110.91L520.27 110.97L520.34 111.12L520.36 111.16L520.38 111.19L520.4 111.23L520.42 111.28L520.44 111.32L520.46 111.36L520.48 111.4L520.58 111.59L520.62 111.69L520.69 111.9L520.72 112L520.77 112.21L520.79 112.31L520.8 112.42L520.81 112.52L520.82 112.62L520.82 112.94L520.81 113.04L520.8 113.15L520.76 113.35L520.74 113.45L520.71 113.55L520.68 113.65L520.65 113.75L520.61 113.85L520.57 113.94L520.52 114.03L520.48 114.13L520.37 114.31L520.31 114.4L520.25 114.48L520.12 114.65L519.98 114.8L519.82 114.95L519.74 115.02L519.66 115.08L519.57 115.14L519.47 115.21L519.29 115.32L519.1 115.44L518.91 115.54L518.72 115.65L518.52 115.75L518.33 115.85L517.94 116.04L517.74 116.12L517.54 116.21L516.93 116.44L516.73 116.52L516.52 116.58L516.32 116.64L516.11 116.71L515.9 116.76L515.68 116.81L515.27 116.91L515.05 116.95L514.84 116.99L514.63 117.02L514.2 117.08L513.98 117.11L513.76 117.12L513.55 117.14L513.33 117.15L513.11 117.17L512.25 117.17L511.8 117.14L511.59 117.12L511.37 117.11L511.15 117.08L509.39 116.86L508.84 116.79L508.65 116.76L508.47 116.72L508.29 116.69L508.11 116.65L507.93 116.62L507.39 116.49L507.03 116.4L506.85 116.34L506.68 116.29L506.5 116.24L506.32 116.18L505.8 116L505.46 115.87L505.28 115.8L504.94 115.66L504.77 115.58L504.6 115.51L504.27 115.35L504.11 115.27L503.94 115.18L503.78 115.1L503.61 115.01L503.45 114.92L503.29 114.83L503.13 114.74L502.81 114.54L502.66 114.44L502.5 114.34L496.7 110.54L487.3 118.75L491.38 122.22L491.53 122.35L491.68 122.47L491.83 122.59L491.97 122.71L492.12 122.82L492.27 122.94L492.43 123.06L492.58 123.18L492.73 123.28L493.04 123.51L493.51 123.83L493.67 123.94L494.48 124.45L494.64 124.54L494.8 124.64L494.96 124.73L495.13 124.83L495.63 125.1L495.81 125.19L496.49 125.53L496.66 125.6L496.83 125.69L497.18 125.84L497.35 125.91L497.53 125.99L497.7 126.06L497.88 126.14L498.53 126.39L498.91 126.54L499.28 126.68L499.67 126.82L500.04 126.95L500.42 127.08L500.81 127.21L501.19 127.33L501.58 127.45L501.96 127.56L502.35 127.67L502.73 127.77L503.13 127.87L503.52 127.97L503.91 128.06L504.3 128.14L504.69 128.22L505.09 128.3L505.87 128.44L506.27 128.51L506.67 128.57L507.07 128.62L507.46 128.67L507.86 128.72L508.66 128.8L509.46 128.86L510.26 128.91L510.66 128.92L511.06 128.93L511.46 128.94L512.27 128.94L512.67 128.93L513.08 128.92L513.48 128.9L513.88 128.89L514.28 128.86L517.47 128.64L517.67 128.63L517.87 128.61L518.07 128.59L518.66 128.52L519.25 128.43L519.65 128.36L520.03 128.28L520.23 128.24L520.42 128.19L520.62 128.15L520.81 128.09L521 128.04L521.19 127.99L522.14 127.69L522.32 127.62L522.51 127.55L522.7 127.48L523.07 127.33L523.25 127.26L523.43 127.17L523.61 127.1L523.8 127.01L523.98 126.92L524.16 126.84L524.34 126.75L524.51 126.65L524.87 126.47L525.04 126.37L527.59 124.92L527.79 124.81L527.98 124.7L528.16 124.58L528.35 124.46L528.72 124.21L528.9 124.09L529.26 123.83L529.78 123.41L529.95 123.27L530.11 123.12L530.27 122.98L530.43 122.83L530.6 122.67L530.91 122.36L531.36 121.88L531.65 121.55L531.79 121.37L532.06 121.03L532.2 120.85L532.33 120.67L532.45 120.5L532.7 120.13L532.82 119.94L532.93 119.75L533.05 119.56L533.27 119.18L533.38 118.98L533.58 118.59L533.78 118.16L533.88 117.94L533.98 117.72L534.25 117.06L534.33 116.84L534.49 116.38L534.56 116.16L534.63 115.94L534.7 115.71L534.88 115.02L534.93 114.79L534.98 114.56L535.03 114.33L535.08 114.1L535.12 113.87L535.15 113.63L535.19 113.39L535.23 113.16L535.26 112.93L535.28 112.69L535.3 112.46L535.32 112.22L535.34 111.99L535.36 111.51L535.37 111.28L535.37 111.04L535.38 110.8L535.36 110.32L535.35 110.08L535.34 109.85L535.3 109.37L535.27 109.07L535.24 108.78L535.19 108.48L535.14 108.2L535.08 107.9L535.02 107.62L534.95 107.33L534.87 107.05L534.69 106.49L534.59 106.22L534.49 105.95L534.37 105.67L534.26 105.41L533.87 104.63L533.58 104.13L533.42 103.88L533.26 103.64L533.1 103.4L532.75 102.93L532.56 102.71L532.37 102.49L532.18 102.27L531.99 102.06L531.57 101.64L531.35 101.45L531.13 101.25L530.91 101.07L530.68 100.88L530.45 100.7L530.21 100.53L529.96 100.36L529.71 100.2L529.21 99.9L528.72 99.62L528.47 99.49L528.22 99.36L527.98 99.23L527.47 98.98L526.72 98.62L526.47 98.51L525.95 98.28L525.18 97.96L524.93 97.86L524.66 97.75L524.4 97.66L524.14 97.56L523.88 97.47L523.61 97.37L523.35 97.28L523.09 97.2L522.82 97.11L522.56 97.03L521.48 96.72L521.21 96.64L520.95 96.58L520.67 96.51L520.4 96.44L519.86 96.32L519.31 96.2L519.04 96.15L518.76 96.1L518.55 96.06L518.34 96.02L518.14 95.98L517.94 95.95L517.37 95.84L517.18 95.81L517 95.77L516.66 95.71L516.49 95.68L516.33 95.65L516.02 95.59L515.87 95.56L515.72 95.53L515.58 95.5L515.44 95.48L515.3 95.45L514.93 95.38L514.81 95.36L514.69 95.34L514.59 95.31L514.48 95.3L514.38 95.27L514.19 95.24L514.1 95.22L513.93 95.18L513.85 95.16L513.78 95.15L513.71 95.13L513.65 95.12L513.58 95.11L513.48 95.09L513.28 95.04L513.09 95L512.89 94.96L512.48 94.87L512.28 94.82L512.07 94.78L511.66 94.69L511.44 94.64L511.02 94.54L510.8 94.49L510.37 94.38L509.73 94.2L509.51 94.14L509.3 94.08L509.09 94.01L508.88 93.94L508.67 93.86L508.47 93.79L508.27 93.71L508.06 93.63L507.87 93.55L507.67 93.46L507.48 93.37L507.29 93.28L507.11 93.18L506.93 93.08L506.75 92.97L506.58 92.87L506.41 92.75L506.25 92.64L506.09 92.51L505.79 92.26L505.65 92.13L505.65 92.12L505.63 92.11L505.63 92.1L505.62 92.09L505.62 92.07L505.61 92.07L505.6 92.06L505.6 92.05L505.57 92L505.56 91.99L505.55 91.97L505.54 91.95L505.53 91.94L505.53 91.92L505.51 91.91L505.51 91.89L505.49 91.85L505.46 91.8L505.45 91.77L505.44 91.76L505.43 91.73L505.41 91.72L505.37 91.62L505.35 91.6L505.29 91.47L505.23 91.35L505.18 91.23L505.14 91.1L505.1 90.97L505.06 90.84L505.04 90.72L505.01 90.59L505 90.46L504.98 90.33L504.97 90.2L504.97 90.07L504.98 89.94L504.98 89.82L505 89.69L505.01 89.56L505.04 89.44L505.07 89.32L505.1 89.19L505.14 89.07L505.18 88.95L505.28 88.71L505.46 88.38L505.53 88.27L505.69 88.07L505.77 87.97L505.85 87.87L506.14 87.6L506.46 87.37L506.7 87.24L506.82 87.18L507.52 86.85L507.76 86.74L507.88 86.7L508 86.64L508.12 86.6L508.24 86.55L508.36 86.51L508.48 86.46L508.61 86.43L508.73 86.39L508.85 86.35L509.1 86.28L509.48 86.19L509.6 86.17L509.73 86.14L509.98 86.09L510.12 86.08L510.24 86.06L510.37 86.04L510.5 86.03L510.63 86.02L510.75 86L510.89 86L511.01 85.99L511.27 85.98L511.53 85.98L511.66 85.99L511.79 85.99L512.05 86L512.18 86.01L512.44 86.03L512.57 86.05L513.39 86.15L513.71 86.2L514.04 86.24L514.36 86.29L514.69 86.35L515.01 86.41L515.33 86.48L515.98 86.62L516.29 86.7L516.61 86.78L516.92 86.87L517.23 86.97L517.55 87.06L517.86 87.16L518.48 87.38L518.78 87.49L519.08 87.61L519.38 87.73L519.69 87.86L519.99 87.99L520.28 88.13L520.58 88.27L520.87 88.42L521.16 88.56L521.45 88.71L521.73 88.87L522.01 89.04L522.3 89.2L522.86 89.54L523.41 89.9L523.67 90.09L523.94 90.28L524.2 90.47L524.47 90.66L524.73 90.87L525.24 91.29L525.79 91.74L534.74 82.5L529.78 79.7L529.57 79.58L529.37 79.47L528.95 79.24L528.74 79.14L528.53 79.02L528.32 78.92L528.11 78.81L527.69 78.59L527.26 78.39L527.05 78.29L526.41 77.98L525.98 77.79L525.76 77.7L525.33 77.51L525.11 77.42L524.89 77.33L524.23 77.06L523.12 76.64L522.9 76.56L522.68 76.49L522.46 76.41L522.23 76.33L522.01 76.25L521.78 76.18L521.56 76.1L521.11 75.96L520.68 75.84L520.27 75.72L519.84 75.6L519.41 75.49L518.99 75.39L518.56 75.29L518.13 75.2L517.27 75.04L516.41 74.91L515.98 74.85L515.55 74.8L515.11 74.76L514.67 74.71L514.24 74.68L513.81 74.66L513.37 74.64L512.94 74.62L511.63 74.62L511.2 74.64ZM460.9 128.34L476.11 128.34L476.11 76.51L460.9 76.51L460.9 128.34ZM227.87 76.69L227.04 76.7L226.45 76.73L226.16 76.74L225.86 76.77L225.28 76.82L224.99 76.87L224.7 76.91L224.12 77L223.55 77.11L223.26 77.18L222.98 77.24L222.41 77.39L222.13 77.47L221.85 77.56L221.57 77.64L221.3 77.73L221.02 77.83L220.48 78.04L219.94 78.26L219.41 78.5L219.15 78.63L218.88 78.76L218.62 78.9L218.37 79.04L218.11 79.18L217.86 79.33L217.6 79.48L217.11 79.79L216.38 80.29L216.15 80.47L214.42 81.77L214.41 81.77L214.41 81.78L214.37 81.78L214.37 81.79L214.35 81.79L214.35 81.78L214.31 81.78L214.31 81.77L214.3 81.77L214.3 81.76L214.29 81.76L214.29 81.75L214.28 81.75L214.28 81.74L214.27 81.74L214.27 81.73L214.26 81.72L214.26 81.69L214.12 77.77L199.74 77.77L199.74 127.74L214.12 127.74L214.26 95.85L214.26 95.62L214.27 95.39L214.31 94.95L214.33 94.83L214.38 94.51L214.41 94.39L214.43 94.28L214.46 94.17L214.48 94.07L214.57 93.74L214.61 93.64L214.64 93.53L214.68 93.43L214.72 93.32L214.75 93.21L214.8 93.11L214.88 92.91L214.98 92.7L215.02 92.6L215.07 92.5L215.12 92.4L215.18 92.3L215.23 92.21L215.35 92.01L215.41 91.92L215.47 91.82L215.6 91.64L215.72 91.46L215.8 91.34L215.9 91.23L215.98 91.11L216.08 91L216.17 90.89L216.27 90.78L216.37 90.68L216.57 90.47L216.68 90.37L216.79 90.28L216.9 90.18L217.01 90.09L217.13 90L217.24 89.92L217.36 89.84L217.6 89.67L217.72 89.6L217.85 89.53L217.97 89.46L218.1 89.39L218.23 89.32L218.36 89.27L218.49 89.2L218.62 89.15L218.75 89.09L218.89 89.05L219.02 89L219.16 88.96L219.3 88.91L219.44 88.88L219.73 88.81L219.86 88.78L220.01 88.75L220.15 88.73L220.3 88.71L220.45 88.69L220.59 88.68L221.61 88.59L221.84 88.58L221.95 88.58L222.07 88.57L222.29 88.57L222.41 88.58L222.63 88.58L222.75 88.59L222.97 88.61L223.08 88.62L223.19 88.63L223.41 88.67L223.52 88.69L223.64 88.71L223.86 88.75L223.97 88.78L224.07 88.81L224.18 88.83L224.29 88.87L224.51 88.93L224.61 88.97L224.72 89.01L224.93 89.09L225.04 89.13L225.14 89.17L225.24 89.21L225.34 89.27L225.44 89.31L225.55 89.36L225.65 89.42L225.75 89.47L225.85 89.52L225.94 89.58L226.05 89.64L226.15 89.7L226.24 89.77L226.34 89.83L226.43 89.9L226.53 89.97L226.61 90.04L226.7 90.11L226.79 90.19L226.87 90.27L226.96 90.35L227.12 90.51L227.34 90.77L227.55 91.04L227.61 91.14L227.68 91.23L227.8 91.43L227.85 91.53L227.91 91.62L228.01 91.83L228.1 92.04L228.18 92.26L228.22 92.36L228.26 92.47L228.29 92.59L228.32 92.69L228.35 92.81L228.38 92.92L228.42 93.15L228.44 93.26L228.5 93.67L228.52 93.78L228.53 93.89L228.56 94.11L228.57 94.22L228.59 94.33L228.6 94.45L228.61 94.56L228.63 94.67L228.64 94.78L228.65 94.9L228.67 95.01L228.69 95.23L228.69 95.35L228.71 95.46L228.72 95.57L228.72 95.68L228.73 95.79L228.74 95.91L228.76 96.13L228.76 96.24L228.77 96.36L228.77 96.47L228.79 96.7L228.79 96.92L228.8 97.03L228.8 97.26L228.81 97.37L228.81 98.16L228.65 127.74L243.17 127.74L243.17 91.98L242.99 88.98L242.77 87.19L242.73 86.84L242.7 86.67L242.67 86.49L242.64 86.32L242.52 85.81L242.48 85.64L242.44 85.48L242.38 85.3L242.28 84.97L242.22 84.81L242.16 84.64L242.11 84.48L242.04 84.32L241.98 84.15L241.91 84L241.84 83.84L241.76 83.68L241.61 83.36L241.53 83.21L241.45 83.05L241.19 82.61L241.1 82.46L241 82.31L240.91 82.16L240.8 82.02L240.7 81.88L240.6 81.73L240.49 81.59L240.39 81.46L240.28 81.32L239.93 80.92L239.69 80.64L239.52 80.46L239.43 80.37L239.35 80.28L239.26 80.2L239.08 80.02L238.99 79.94L238.89 79.86L238.8 79.78L238.71 79.69L238.51 79.53L238.42 79.46L238.32 79.38L238.22 79.31L238.12 79.23L237.92 79.09L237.71 78.95L237.6 78.88L237.4 78.76L237.18 78.63L237.07 78.57L236.85 78.46L236.63 78.34L236.41 78.24L236.29 78.19L236.18 78.14L236.06 78.09L235.95 78.04L235.83 78L235.71 77.96L235.6 77.92L235.53 77.89L235.34 77.83L235.16 77.77L234.79 77.65L234.6 77.6L234.42 77.54L234.04 77.43L233.85 77.38L233.09 77.2L232.71 77.12L232.52 77.08L232.33 77.04L231.95 76.98L231.75 76.95L231.37 76.89L231.18 76.87L230.98 76.84L230.79 76.81L230.6 76.8L230.4 76.77L230.21 76.76L230.02 76.74L229.82 76.73L229.43 76.7L229.04 76.69L228.85 76.69L228.65 76.68L228.07 76.68L227.87 76.69ZM175.44 127.74L190.11 127.74L190.11 77.77L175.44 77.77L175.44 127.74ZM391.72 127.66L406.79 127.66L414.25 94.69L422.01 127.66L436.78 127.66L453.94 76.49L438.28 76.49L430.07 111.94L423.06 76.49L406.79 76.49L399.04 112.39L391.72 76.49L376.06 76.49L391.72 127.66Z" id="a5KKcGxES5"></path><path d="M69.13 103.42L69.13 127.74L88.36 127.74L88.36 103.42L112.03 103.42L112.03 85.33L88.36 85.33L88.36 66.34L120.9 66.34L120.9 127.74L135.85 127.74L136.02 98.42L136.02 98.26L136.02 98.1L136.03 97.95L136.03 97.79L136.05 97.62L136.06 97.47L136.08 97.15L136.1 96.99L136.12 96.83L136.13 96.67L136.16 96.52L136.18 96.36L136.2 96.2L136.29 95.74L136.32 95.58L136.35 95.42L136.39 95.27L136.42 95.12L136.5 94.81L136.54 94.66L136.59 94.5L136.63 94.35L136.67 94.2L136.78 93.9L136.83 93.74L136.93 93.44L136.99 93.3L137.05 93.15L137.11 93L137.17 92.86L137.23 92.71L137.3 92.56L137.36 92.42L137.43 92.27L137.48 92.17L137.62 91.91L137.69 91.78L137.84 91.53L138 91.29L138.08 91.16L138.17 91.05L138.35 90.82L138.45 90.71L138.54 90.61L138.65 90.5L138.74 90.39L138.85 90.3L138.96 90.2L139.07 90.1L139.18 90.01L139.29 89.92L139.52 89.74L139.64 89.66L139.76 89.58L139.88 89.51L140 89.43L140.13 89.36L140.26 89.29L140.65 89.1L140.79 89.04L140.92 88.99L141.06 88.94L141.19 88.89L141.34 88.85L141.48 88.81L141.62 88.77L141.91 88.7L142.3 88.63L142.44 88.61L142.57 88.59L142.84 88.57L142.97 88.56L143.11 88.56L143.51 88.56L143.64 88.56L144.04 88.6L144.3 88.63L144.57 88.68L144.69 88.71L144.82 88.74L144.95 88.77L145.08 88.8L145.21 88.84L145.34 88.88L145.46 88.92L145.59 88.96L145.71 89.01L145.84 89.06L145.96 89.11L146.08 89.17L146.2 89.23L146.32 89.28L146.56 89.41L146.91 89.62L147.02 89.69L147.06 89.72L147.16 89.8L147.27 89.86L147.37 89.95L147.48 90.02L147.57 90.1L147.68 90.18L147.77 90.27L147.87 90.35L147.96 90.43L148.05 90.53L148.14 90.61L148.32 90.8L148.4 90.89L148.49 90.99L148.65 91.18L148.72 91.29L148.8 91.38L148.95 91.59L149.02 91.69L149.16 91.91L149.22 92.02L149.28 92.13L149.34 92.24L149.4 92.36L149.45 92.46L149.51 92.58L149.56 92.69L149.62 92.82L149.66 92.93L149.71 93.05L149.75 93.17L149.8 93.29L149.84 93.41L149.91 93.66L149.98 93.91L150.01 94.04L150.04 94.17L150.07 94.3L150.1 94.43L150.13 94.56L150.16 94.68L150.18 94.82L150.21 94.94L150.26 95.21L150.28 95.33L150.35 95.73L150.37 95.86L150.39 95.99L150.46 96.52L150.47 96.65L150.49 96.78L150.56 97.57L150.59 98.23L150.59 98.37L150.59 98.5L150.6 98.64L150.6 99.03L150.43 127.74L165.38 127.74L165.38 92.13L165.38 92.03L165.38 91.83L165.37 91.73L165.37 91.63L165.36 91.43L165.35 91.33L165.34 91.14L165.33 91.04L165.32 90.93L165.32 90.84L165.27 90.45L165.26 90.34L165.24 90.15L165.22 90.05L165.21 89.95L165.17 89.76L165.16 89.66L165.13 89.46L165.11 89.36L165.07 89.17L165.02 88.97L165.01 88.88L164.98 88.78L164.92 88.49L164.89 88.39L164.86 88.3L164.53 87.06L164.47 86.83L164.4 86.61L164.33 86.39L164.27 86.17L164.19 85.95L164.11 85.74L164.03 85.52L163.94 85.31L163.85 85.1L163.67 84.68L163.56 84.47L163.47 84.27L163.36 84.07L163.25 83.86L163.14 83.66L163.02 83.46L162.91 83.27L162.79 83.07L162.53 82.69L162.4 82.5L162.14 82.13L161.99 81.95L161.86 81.77L161.71 81.59L161.56 81.41L161.41 81.24L161.26 81.08L161.1 80.9L160.94 80.74L160.78 80.58L160.62 80.41L160.45 80.26L160.28 80.1L159.93 79.8L159.76 79.65L159.57 79.51L159.46 79.41L159.35 79.33L159.12 79.16L158.89 79L158.78 78.92L158.66 78.85L158.54 78.77L158.42 78.7L158.3 78.63L158.06 78.49L157.93 78.42L157.81 78.35L157.43 78.16L157.05 77.99L156.92 77.93L156.79 77.88L156.66 77.83L156.54 77.77L156.4 77.73L156.27 77.68L156.14 77.63L156 77.59L155.87 77.54L155.74 77.5L155.6 77.47L155.47 77.43L155.19 77.36L155.06 77.33L154.64 77.24L154.5 77.22L153.15 76.97L152.96 76.94L152.77 76.91L152.58 76.88L152.38 76.85L152.19 76.82L151.8 76.78L151.61 76.76L151.22 76.73L151.03 76.71L150.83 76.7L150.64 76.69L150.45 76.68L150.06 76.67L149.48 76.67L149.28 76.68L149.09 76.68L148.9 76.69L148.7 76.69L148.51 76.7L148.32 76.72L147.92 76.75L147.73 76.77L147.34 76.81L147.15 76.84L146.96 76.86L146.58 76.92L146.38 76.95L146 77.02L145.81 77.06L145.43 77.14L145.4 77.15L145.23 77.19L145.06 77.23L144.89 77.27L144.73 77.31L144.56 77.35L144.39 77.41L144.23 77.45L144.06 77.5L143.9 77.56L143.74 77.61L143.57 77.66L143.25 77.77L143.09 77.84L142.93 77.89L142.6 78.02L142.44 78.09L142.29 78.16L142.13 78.23L141.97 78.3L141.82 78.37L141.66 78.44L141.51 78.52L141.35 78.6L141.19 78.67L141.04 78.75L140.89 78.83L140.74 78.92L140.59 79L140.44 79.09L140.29 79.18L140.14 79.26L140 79.36L139.85 79.45L139.56 79.63L139.27 79.83L139.14 79.93L136.19 82.01L136.18 82.01L136.17 82.01L136.17 82.02L136.16 82.02L136.15 82.02L136.14 82.03L136.13 82.03L136.12 82.04L136.09 82.04L136.08 82.03L136.06 82.03L136.05 82.02L136.05 82.02L136.03 82.02L136.03 82.02L136.02 82.01L136.01 82.01L136 82L135.98 81.98L135.98 81.98L135.98 81.97L135.97 81.96L135.96 81.95L135.96 81.94L135.95 81.93L135.95 81.93L135.95 81.92L135.95 81.88L135.88 66.34L174.87 66.34L174.87 70.87L189.53 70.87L189.53 66.34L251.62 66.34L251.62 127.74L266.35 127.74L266.35 113.19L271.75 108.13L284.06 127.74L300.97 127.74L282.57 96.74L299.25 77.99L281.42 77.64L266.35 94.32L266.35 66.34L460.9 66.34L460.9 69.35L476.11 69.35L476.11 66.34L620.79 66.34L620.79 126.76L620.78 127.3L620.78 127.56L620.77 127.82L620.76 128.09L620.76 128.36L620.75 128.62L620.74 128.89L620.73 129.15L620.72 129.41L620.69 129.95L620.67 130.21L620.66 130.48L620.64 130.74L620.62 131L620.6 131.27L620.58 131.53L620.56 131.8L620.54 132.06L620.52 132.33L620.49 132.59L620.46 132.86L620.41 133.38L620.38 133.65L620.35 133.91L620.32 134.17L620.29 134.44L620.26 134.7L620.19 135.23L620.15 135.49L619.96 136.8L619.88 137.25L619.84 137.54L619.73 138.11L619.68 138.4L619.55 138.97L619.49 139.25L619.42 139.53L619.34 139.82L619.27 140.1L619.11 140.66L619.03 140.94L618.94 141.21L618.76 141.76L618.66 142.04L618.57 142.31L618.46 142.58L618.36 142.85L618.25 143.12L618.14 143.39L618.03 143.66L617.79 144.19L617.55 144.72L617.42 144.98L617.29 145.24L617.16 145.5L617.02 145.75L616.88 146.01L616.45 146.77L616.3 147.02L616.15 147.27L615.99 147.51L615.84 147.76L615.67 148L615.57 148.16L615.26 148.61L614.95 149.06L614.63 149.5L614.3 149.94L613.97 150.37L613.63 150.79L613.28 151.21L612.93 151.63L612.57 152.03L612.21 152.44L611.83 152.83L611.46 153.22L610.69 153.98L609.89 154.72L609.49 155.07L609.08 155.42L608.66 155.77L608.24 156.11L607.81 156.44L607.38 156.77L606.94 157.08L606.5 157.39L606.05 157.7L605.6 158L605.14 158.29L604.69 158.57L604.22 158.85L603.75 159.12L603.27 159.38L602.79 159.64L602.31 159.88L601.82 160.12L601.33 160.36L600.84 160.58L600.33 160.8L599.83 161.01L599.33 161.21L598.81 161.4L596.7 162.18L596.51 162.25L596.31 162.32L595.93 162.45L595.73 162.52L595.54 162.58L595.34 162.64L594.95 162.76L594.56 162.86L594.36 162.91L594.16 162.96L593.96 163.01L593.76 163.06L593.56 163.1L593.36 163.14L593.16 163.18L592.96 163.22L592.56 163.29L592.36 163.33L591.95 163.39L591.75 163.41L591.55 163.44L591.35 163.47L591.14 163.49L590.94 163.51L590.74 163.53L590.53 163.55L590.12 163.57L589.92 163.59L589.31 163.61L589.1 163.62L588.69 163.62L470.47 163.54L470.35 163.55L469.94 163.57L469.74 163.59L469.13 163.61L468.92 163.62L468.51 163.62L449.84 163.6L449.6 163.62L449.28 163.63L448.95 163.65L448.92 163.65L366.63 163.65L366.54 163.55L332.7 163.52L332.37 163.53L332.04 163.53L331.71 163.53L331.39 163.54L331.06 163.55L330.73 163.56L330.4 163.57L330.08 163.58L329.42 163.62L329.1 163.63L328.77 163.65L328.74 163.65L246.45 163.65L246.41 163.61L122.93 163.52L122.61 163.53L122.28 163.53L121.95 163.53L121.62 163.54L121.29 163.55L120.97 163.56L120.64 163.57L120.31 163.58L119.66 163.62L119.33 163.63L119.01 163.65L118.68 163.68L118.35 163.7L118.03 163.73L117.7 163.75L117.37 163.78L117.05 163.81L116.72 163.85L116.4 163.88L116.07 163.92L115.75 163.96L115.42 164L115.1 164.04L114.77 164.08L114.13 164.18L113.8 164.22L113.47 164.27L113.15 164.32L112.83 164.38L111.86 164.55L111.54 164.61L111.22 164.68L110.9 164.74L110.58 164.81L110.26 164.88L109.94 164.95L109.61 165.02L108.96 165.18L108.63 165.27L108.31 165.35L107.99 165.45L107.67 165.54L107.35 165.64L107.03 165.75L106.72 165.85L106.4 165.96L106.09 166.08L105.78 166.19L105.16 166.44L104.85 166.56L104.54 166.7L104.23 166.83L103.93 166.97L103.33 167.26L103.03 167.4L102.73 167.55L102.44 167.71L102.15 167.86L101.85 168.02L101.56 168.19L101.27 168.36L100.99 168.53L100.7 168.7L100.42 168.88L100.14 169.06L99.86 169.24L99.31 169.62L99.03 169.81L98.76 170.01L98.49 170.21L98.22 170.41L97.96 170.62L97.64 170.87L97.32 171.12L97.01 171.38L96.71 171.63L96.4 171.9L96.1 172.16L95.81 172.43L95.52 172.71L95.23 172.99L94.95 173.27L94.4 173.85L94.13 174.14L93.6 174.74L93.35 175.05L92.85 175.67L92.6 175.98L92.13 176.62L91.68 177.28L91.46 177.61L91.03 178.28L90.82 178.62L90.62 178.97L90.43 179.32L90.24 179.67L90.05 180.02L89.87 180.38L89.69 180.73L89.35 181.46L89.19 181.83L89.04 182.19L88.89 182.56L88.6 183.32L88.46 183.69L87.97 185.11L87.85 185.44L87.74 185.76L87.64 186.09L87.53 186.42L87.43 186.75L87.33 187.08L87.24 187.41L87.05 188.07L86.97 188.41L86.88 188.74L86.8 189.07L86.72 189.41L86.57 190.08L86.43 190.75L86.37 191.09L86.31 191.43L86.25 191.77L86.19 192.11L86.09 192.79L86.04 193.12L86 193.47L85.95 193.81L85.92 194.15L85.88 194.49L85.85 194.83L85.82 195.18L85.79 195.52L85.74 196.21L85.72 196.55L85.68 197.59L85.68 197.93L85.67 198.62L85.67 222.84L85.66 222.9L85.66 222.95L85.63 223.05L85.61 223.1L85.57 223.18L85.54 223.23L85.52 223.27L85.46 223.34L85.42 223.37L85.39 223.4L85.35 223.43L85.27 223.48L85.23 223.5L85.18 223.52L85.14 223.54L85.05 223.56L85.01 223.57L84.96 223.58L84.91 223.58L84.82 223.58L84.77 223.58L84.68 223.56L84.63 223.55L84.59 223.53L84.54 223.51L84.5 223.49L84.45 223.46L84.42 223.43L84.34 223.36L84.3 223.32L84.26 223.28L33.59 159.78L30.18 154.73L29.97 154.42L29.76 154.1L29.56 153.79L29.36 153.47L29.16 153.15L28.97 152.82L28.77 152.5L28.59 152.17L28.4 151.84L28.22 151.51L28.05 151.18L27.87 150.84L27.7 150.51L27.53 150.18L27.21 149.49L27.05 149.15L26.9 148.81L26.6 148.12L26.46 147.77L26.32 147.42L26.18 147.07L26.05 146.72L25.92 146.37L25.8 146.02L25.67 145.66L25.55 145.3L25.33 144.59L25.22 144.23L25.11 143.87L25.01 143.5L24.92 143.14L24.82 142.78L24.65 142.04L24.56 141.67L24.48 141.3L24.41 140.94L24.27 140.28L24.15 139.66L24.1 139.35L23.98 138.72L23.93 138.4L23.82 137.77L23.78 137.45L23.73 137.13L23.68 136.82L23.64 136.51L23.59 136.19L23.55 135.87L23.51 135.55L23.48 135.24L23.44 134.92L23.4 134.6L23.37 134.29L23.34 133.97L23.3 133.65L23.28 133.33L23.25 133.01L23.22 132.69L23.2 132.38L23.16 131.74L23.14 131.42L23.12 131.1L23.1 130.78L23.09 130.46L23.07 130.14L23.04 128.86L23.03 128.23L23.03 127.58L23.12 66.34L69.13 66.34L69.13 85.33L45.18 85.33L45.18 85.33L45.18 103.42L69.13 103.42Z" id="a2YUdEZTVG"></path><path d="M258.29 32.91L258.53 32.92L258.78 32.93L259.03 32.95L259.76 33L260.25 33.04L260.74 33.1L260.98 33.12L261.47 33.18L261.71 33.22L261.95 33.25L262.06 33.27L262.28 33.23L262.54 33.2L262.81 33.17L263.08 33.13L263.35 33.11L263.62 33.08L263.89 33.05L264.7 32.99L265.25 32.95L265.52 32.94L265.79 32.92L266.61 32.9L266.88 32.89L267.15 32.89L587.25 32.89L587.49 32.89L587.74 32.9L587.99 32.9L588.23 32.91L588.48 32.92L588.73 32.93L588.97 32.95L589.7 33L590.19 33.04L590.68 33.1L590.92 33.12L591.41 33.18L591.66 33.22L591.9 33.25L592.14 33.29L592.38 33.33L592.63 33.37L592.87 33.41L593.11 33.45L593.35 33.5L593.59 33.55L593.83 33.6L594.07 33.65L594.31 33.7L594.55 33.75L594.79 33.81L595.03 33.87L595.27 33.93L595.5 34L595.74 34.06L595.98 34.12L596.21 34.19L596.45 34.26L596.69 34.33L597.17 34.48L597.56 34.6L597.95 34.72L598.33 34.86L598.72 34.99L599.1 35.13L599.49 35.28L599.86 35.43L600.24 35.59L600.61 35.75L600.99 35.91L601.36 36.08L601.73 36.26L602.09 36.44L602.45 36.62L602.82 36.81L603.17 37L603.53 37.2L603.88 37.4L604.23 37.61L604.58 37.82L604.93 38.04L605.27 38.25L605.94 38.71L606.28 38.94L606.93 39.42L607.26 39.67L607.9 40.17L608.21 40.43L608.52 40.69L608.83 40.96L609.14 41.23L609.44 41.51L609.74 41.79L610.03 42.07L610.32 42.36L610.61 42.65L610.89 42.94L611.41 43.49L611.69 43.79L612.24 44.39L612.51 44.7L613.04 45.32L613.29 45.63L613.54 45.95L613.79 46.27L614.04 46.6L614.28 46.92L614.52 47.25L614.75 47.58L614.98 47.92L615.2 48.25L615.64 48.93L615.85 49.28L616.26 49.98L616.47 50.33L616.66 50.68L616.85 51.04L617.04 51.4L617.23 51.76L617.4 52.12L617.58 52.49L617.75 52.86L617.92 53.22L618.08 53.59L618.23 53.97L618.39 54.35L618.54 54.72L618.68 55.1L618.82 55.49L618.96 55.87L619.09 56.26L619.21 56.64L619.34 57.03L619.45 57.42L619.52 57.65L619.58 57.87L619.65 58.1L619.71 58.33L619.76 58.56L619.82 58.79L619.88 59.02L619.93 59.25L619.99 59.48L620.03 59.71L620.09 59.94L620.14 60.17L620.18 60.4L620.22 60.63L620.27 60.87L620.31 61.1L620.35 61.33L620.42 61.79L620.45 62.03L620.49 62.26L620.52 62.49L620.55 62.73L620.58 62.96L620.6 63.19L620.63 63.43L620.67 63.9L620.69 64.13L620.72 64.61L620.75 65.08L620.76 65.31L620.77 65.55L620.78 65.78L620.79 66.02L620.79 66.26L620.79 67.34L476.11 67.34L476.11 58.56L460.9 58.56L460.9 67.34L266.35 67.34L266.35 61.96L251.62 61.96L251.62 67.34L189.53 67.34L189.53 60.51L174.87 60.51L174.87 67.34L135.88 67.34L135.85 62L120.9 62L120.9 67.34L88.36 67.34L88.36 62L69.13 62L69.13 67.34L23.18 67.34L23.19 65.75L23.19 65.49L23.19 65.24L23.2 64.99L23.21 64.48L23.22 64.23L23.23 63.98L23.25 63.73L23.27 63.48L23.29 63.23L23.31 62.98L23.33 62.73L23.38 62.23L23.41 61.97L23.48 61.48L23.51 61.23L23.59 60.73L23.63 60.48L23.72 59.99L23.76 59.74L23.81 59.49L23.86 59.25L23.91 59L23.97 58.75L24.02 58.51L24.08 58.27L24.14 58.02L24.2 57.78L24.27 57.54L24.33 57.29L24.4 57.05L24.54 56.57L24.62 56.33L24.69 56.08L24.77 55.84L24.81 55.72L24.93 55.36L25.05 55L25.18 54.64L25.32 54.29L25.45 53.93L25.74 53.23L25.9 52.88L26.21 52.19L26.54 51.51L26.89 50.83L27.26 50.17L27.45 49.84L27.64 49.51L27.84 49.19L28.04 48.87L28.24 48.55L28.45 48.24L28.67 47.92L28.88 47.61L29.1 47.31L29.33 47L29.56 46.7L29.79 46.4L30.02 46.11L30.26 45.81L30.51 45.52L30.76 45.23L31.01 44.95L31.26 44.66L32.05 43.84L32.32 43.57L32.59 43.31L32.87 43.04L34.52 41.49L34.78 41.25L35.05 41L35.6 40.53L35.87 40.3L36.15 40.07L36.43 39.84L36.72 39.62L37 39.4L37.29 39.19L37.58 38.97L37.88 38.76L38.17 38.56L38.47 38.36L39.07 37.96L39.68 37.59L39.99 37.4L40.3 37.22L40.62 37.04L40.93 36.87L41.25 36.7L41.57 36.54L41.9 36.38L42.22 36.22L42.54 36.07L42.87 35.92L43.2 35.77L43.53 35.63L43.86 35.49L44.2 35.35L44.53 35.22L44.87 35.1L45.21 34.97L45.89 34.74L46.58 34.52L46.93 34.42L47.19 34.34L47.45 34.27L47.72 34.2L47.98 34.13L48.24 34.06L48.51 34L48.77 33.93L49.04 33.87L49.3 33.81L49.57 33.75L49.83 33.69L50.63 33.54L51.17 33.44L51.44 33.4L51.7 33.35L51.97 33.31L52.24 33.27L52.51 33.23L52.78 33.2L53.05 33.17L53.32 33.13L53.59 33.11L53.86 33.08L54.13 33.05L54.94 32.99L55.48 32.95L55.76 32.94L56.03 32.92L56.84 32.9L57.12 32.89L57.39 32.89L257.31 32.89L257.55 32.89L257.8 32.9L257.8 32.9L258.04 32.9L258.29 32.91Z" id="b3tbFo6HgR"></path></defs><g><g><g><use xlink:href="#a5KKcGxES5" opacity="1" fill="#e81b00" fill-opacity="1"></use><g><use xlink:href="#a5KKcGxES5" opacity="1" fill-opacity="0" stroke="#000000" stroke-width="1" stroke-opacity="0"></use></g></g><g><use xlink:href="#a2YUdEZTVG" opacity="1" fill="#000000" fill-opacity="0"></use><g><use xlink:href="#a2YUdEZTVG" opacity="1" fill-opacity="0" stroke="#000000" stroke-width="1" stroke-opacity="0"></use></g></g><g><use xlink:href="#b3tbFo6HgR" opacity="1" fill="#e81b00" fill-opacity="1"></use></g></g></g></svg>