<?xml version="1.0" standalone="no"?>
<!DOCTYPE svg PUBLIC "-//W3C//DTD SVG 20010904//EN"
 "http://www.w3.org/TR/2001/REC-SVG-20010904/DTD/svg10.dtd">
<svg version="1.0" xmlns="http://www.w3.org/2000/svg"
 width="200.000000pt" height="200.000000pt" viewBox="0 0 200.000000 200.000000"
 preserveAspectRatio="xMidYMid meet">

<g transform="translate(0.000000,200.000000) scale(0.100000,-0.100000)"
fill="#000000" stroke="none">
<path d="M0 1000 l0 -1000 1000 0 1000 0 0 1000 0 1000 -1000 0 -1000 0 0
-1000z m1520 425 l0 -45 -55 0 -55 0 0 45 0 45 55 0 55 0 0 -45z m-271 -160
c54 -28 61 -55 61 -250 l0 -175 -55 0 c-49 0 -55 2 -55 20 0 20 -1 20 -31 -2
-25 -19 -43 -23 -97 -23 -113 1 -162 44 -162 143 0 55 22 92 70 117 37 19 140
19 185 1 l35 -15 0 49 c0 63 -17 80 -80 80 -50 0 -80 -17 -80 -46 0 -10 -14
-14 -55 -14 l-55 0 0 34 c0 46 32 83 83 95 58 14 199 6 236 -14z m-709 -145
c0 -150 1 -161 21 -181 17 -17 29 -20 62 -16 75 10 82 26 85 202 l3 155 55 0
54 0 0 -220 0 -220 -55 0 c-52 0 -55 1 -55 25 0 25 0 25 -19 6 -40 -40 -146
-50 -203 -20 -10 6 -28 25 -38 42 -18 29 -20 51 -20 210 l0 177 55 0 55 0 0
-160z m980 -60 l0 -220 -55 0 -55 0 0 220 0 220 55 0 55 0 0 -220z" fill="#3171BA"/>
<path d="M1060 1029 c-13 -5 -28 -15 -32 -22 -13 -20 -9 -65 8 -81 21 -21 112
-21 142 0 27 19 29 64 4 87 -23 21 -90 30 -122 16z" fill="#3171BA"/>
</g>
</svg>
