<?xml version="1.0" encoding="UTF-8" standalone="no"?>
<svg
   xmlns:dc="http://purl.org/dc/elements/1.1/"
   xmlns:cc="http://creativecommons.org/ns#"
   xmlns:rdf="http://www.w3.org/1999/02/22-rdf-syntax-ns#"
   xmlns:svg="http://www.w3.org/2000/svg"
   xmlns="http://www.w3.org/2000/svg"
   viewBox="0 0 205.98666 72"
   height="72"
   width="205.98666"
   xml:space="preserve"
   id="svg2"
   version="1.1"><metadata
     id="metadata8"><rdf:RDF><cc:Work
         rdf:about=""><dc:format>image/svg+xml</dc:format><dc:type
           rdf:resource="http://purl.org/dc/dcmitype/StillImage" /></cc:Work></rdf:RDF></metadata><defs
     id="defs6"><clipPath
       id="clipPath60"
       clipPathUnits="userSpaceOnUse"><path
         id="path58"
         d="m 219.023,6.42578 c -72.05,0 -209.84331,97.24622 -209.84331,249.70722 0,0 0,36.156 0,82.89 H 427.82 c 0,-46.734 0,-82.89 0,-82.89 C 427.82,103.672 290.723,6.42578 219.023,6.42578 Z" /></clipPath><linearGradient
       id="linearGradient66"
       spreadMethod="pad"
       gradientTransform="matrix(-1.45e-5,-332.603,-332.603,1.45e-5,218.501,339.023)"
       gradientUnits="userSpaceOnUse"
       y2="0"
       x2="1"
       y1="0"
       x1="0"><stop
         id="stop62"
         offset="0"
         style="stop-opacity:1;stop-color:#1a5dad" /><stop
         id="stop64"
         offset="1"
         style="stop-opacity:1;stop-color:#afbce3" /></linearGradient></defs><g
     transform="matrix(1.3333333,0,0,-1.3333333,0,72)"
     id="g10"><g
       transform="scale(0.1)"
       id="g12"><path
         id="path14"
         style="fill:#231f20;fill-opacity:1;fill-rule:nonzero;stroke:none"
         d="m 572.063,473.805 v -90.383 c 0,-30.293 12.566,-44.402 31.765,-44.402 20.391,0 32.656,13.972 32.656,44.402 v 90.383 h 28.329 V 385.25 c 0,-47.746 -24.571,-68.996 -62.008,-68.996 -35.762,0 -59.075,20.07 -59.075,68.84 v 88.711 h 28.333" /><path
         id="path16"
         style="fill:#231f20;fill-opacity:1;fill-rule:nonzero;stroke:none"
         d="m 695.813,397.457 c 0,12.93 -0.415,23.602 -0.93,33.301 h 24.746 l 1.394,-16.817 h 0.657 c 4.953,8.692 17.082,19.344 35.683,19.344 19.524,0 39.801,-12.578 39.801,-47.996 v -66.504 h -28.336 v 63.172 c 0,16.066 -5.898,28.313 -21.355,28.313 -11.282,0 -19.075,-7.961 -22.035,-16.614 -0.868,-2.324 -1.297,-5.761 -1.297,-8.984 v -65.887 h -28.328 v 78.672" /><path
         id="path18"
         style="fill:#231f20;fill-opacity:1;fill-rule:nonzero;stroke:none"
         d="m 841.188,448.063 c -9.883,0 -16.407,7.167 -16.368,16.152 -0.039,9.051 6.7,16.082 16.7,16.082 10.097,0 16.543,-6.961 16.64,-16.082 0.039,-8.985 -6.465,-16.152 -16.758,-16.152 z M 827.32,318.785 v 111.973 h 28.34 V 318.785 h -28.34" /><path
         id="path20"
         style="fill:#231f20;fill-opacity:1;fill-rule:nonzero;stroke:none"
         d="m 904.059,430.758 18.144,-56.867 c 3.184,-9.852 5.547,-18.868 7.637,-27.977 h 0.683 c 2.09,9.266 4.59,18.055 7.618,27.977 l 17.734,56.867 h 29.746 L 942.887,318.785 h -27.891 l -41.582,111.973 h 30.645" /><path
         id="path22"
         style="fill:#231f20;fill-opacity:1;fill-rule:nonzero;stroke:none"
         d="m 1094.39,366.938 c 0.55,2.617 1,6.828 1,12.089 0,24.532 -11.84,54.465 -48.25,54.465 -36.01,0 -54.742,-29.25 -54.742,-60.148 0,-34.317 21.292,-56.778 57.632,-56.778 16.25,0 29.55,3.047 39.14,7.11 l -4.19,19.492 c -8.56,-3.145 -17.88,-5.184 -30.9,-5.184 -18.13,0 -33.83,8.868 -34.59,29.161 z m -74.94,19.941 c 1.25,11.457 8.51,27.285 25.94,27.285 18.96,0 23.47,-16.922 23.36,-27.285 h -49.3" /><path
         id="path24"
         style="fill:#231f20;fill-opacity:1;fill-rule:nonzero;stroke:none"
         d="m 1118.39,394.75 c 0,15 -0.31,26.027 -0.91,36.008 h 24.51 l 1.05,-21.281 h 0.8 c 5.51,15.773 18.58,23.808 30.65,23.808 2.77,0 4.39,-0.105 6.64,-0.613 V 406 c -2.64,0.508 -5.12,0.813 -8.52,0.813 -13.49,0 -22.85,-8.594 -25.39,-21.426 -0.47,-2.5 -0.72,-5.489 -0.72,-8.535 v -58.067 h -28.34 l 0.23,75.965" /><path
         id="path26"
         style="fill:#231f20;fill-opacity:1;fill-rule:nonzero;stroke:none"
         d="m 1198.73,344.82 c 6.25,-3.867 18.41,-8.164 28.55,-8.164 12.46,0 18.03,5.223 18.03,12.567 0,7.578 -4.61,11.425 -18.38,16.32 -21.92,7.508 -31.06,19.434 -30.96,32.703 0,19.688 16.37,35.039 42.5,35.039 12.33,0 23.13,-3.086 29.69,-6.687 l -5.61,-19.875 c -4.7,2.668 -13.77,6.437 -23.69,6.437 -10.06,0 -15.68,-4.972 -15.68,-11.855 0,-7.11 5.41,-10.52 19.55,-15.684 20.39,-7.207 29.78,-17.598 29.88,-34.101 0,-20.422 -15.9,-35.157 -45.47,-35.157 -13.55,0 -25.88,3.25 -34.12,7.852 l 5.71,20.605" /><path
         id="path28"
         style="fill:#231f20;fill-opacity:1;fill-rule:nonzero;stroke:none"
         d="m 1309.9,448.063 c -9.87,0 -16.39,7.167 -16.35,16.152 -0.04,9.051 6.7,16.082 16.7,16.082 10.1,0 16.54,-6.961 16.64,-16.082 0.04,-8.985 -6.47,-16.152 -16.76,-16.152 z m -13.85,-129.278 v 111.973 h 28.34 V 318.785 h -28.34" /><path
         id="path30"
         style="fill:#231f20;fill-opacity:1;fill-rule:nonzero;stroke:none"
         d="m 1391.91,459.527 v -28.769 h 26.93 v -21.094 h -26.93 V 360.25 c 0,-13.703 3.65,-20.664 14.47,-20.664 5.14,0 7.79,0.352 11,1.23 l 0.58,-21.543 c -4.25,-1.593 -11.68,-2.91 -20.6,-2.91 -10.41,0 -19.08,3.543 -24.34,9.227 -6.09,6.437 -8.86,16.738 -8.86,31.406 v 52.668 h -15.98 v 21.094 h 15.98 v 20.847 l 27.75,7.922" /><path
         id="path32"
         style="fill:#231f20;fill-opacity:1;fill-rule:nonzero;stroke:none"
         d="m 1464.12,430.758 20.17,-60.031 c 2.25,-6.934 4.67,-15.489 6.31,-21.707 h 0.66 c 1.76,6.289 3.85,14.714 5.94,21.941 l 17.54,59.797 h 30.2 l -28.05,-76.418 c -15.37,-41.797 -25.76,-60.36 -38.95,-71.981 -11.13,-9.707 -22.65,-13.39 -29.68,-14.316 l -6.39,23.836 c 4.73,1.184 10.66,3.73 16.35,7.726 5.39,3.536 11.64,10.145 15.54,17.852 1.12,1.934 1.78,3.582 1.78,4.969 0,1.23 -0.31,2.883 -1.48,5.519 l -41.15,102.813 h 31.21" /><path
         id="path34"
         style="fill:#231f20;fill-opacity:1;fill-rule:nonzero;stroke:none"
         d="m 592.02,92.8711 c 28.402,0 57.296,18.4569 57.296,59.6089 0,33.946 -22.304,57.422 -55.625,57.422 -33.742,0 -57.929,-22.617 -57.929,-59.355 0,-35.879 24.441,-57.6759 56.023,-57.6759 z m 0.214,20.5669 c -16.843,0 -27.605,16.289 -27.605,37.832 0,18.671 8.152,38.066 28.027,38.066 19.539,0 27.324,-20.098 27.324,-37.695 0,-22.539 -11.281,-38.203 -27.507,-38.203 h -0.239" /><path
         id="path36"
         style="fill:#231f20;fill-opacity:1;fill-rule:nonzero;stroke:none"
         d="M 675.781,95.3906 V 186.27 h -15.176 v 21.093 h 15.176 v 4.766 c 0,14.512 3.899,29.101 13.594,38.301 8.293,7.871 19.473,10.804 29.309,10.804 7.515,0 13.55,-1.257 17.964,-2.777 l -1.968,-21.758 c -3.078,1.114 -6.821,2.012 -12.075,2.012 -14.011,0 -18.687,-11.777 -18.687,-25.488 v -5.86 h 24.48 V 186.27 H 704.109 V 95.3906 h -28.328" /><path
         id="path38"
         style="fill:#231f20;fill-opacity:1;fill-rule:nonzero;stroke:none"
         d="M 831.637,95.3906 781.438,250.43 h 30.902 l 21.152,-70.508 c 5.977,-19.531 11.153,-37.695 15.156,-56.445 h 0.508 c 4.121,18.3 9.727,37.207 15.762,56.035 l 22.617,70.918 h 30.137 L 864.078,95.3906 h -32.441" /><path
         id="path40"
         style="fill:#231f20;fill-opacity:1;fill-rule:nonzero;stroke:none"
         d="m 948.668,224.668 c -9.883,0 -16.406,7.187 -16.367,16.152 -0.039,9.063 6.699,16.094 16.699,16.094 10.117,0 16.563,-6.953 16.66,-16.094 0.02,-8.965 -6.484,-16.152 -16.758,-16.152 z M 934.801,95.3906 V 207.363 h 28.34 V 95.3906 h -28.34" /><path
         id="path42"
         style="fill:#231f20;fill-opacity:1;fill-rule:nonzero;stroke:none"
         d="m 1075.83,98.7695 c -5.87,-2.7734 -17.55,-5.7812 -31.62,-5.7812 -35.09,0 -57.71,22.5197 -57.71,57.2657 0,33.535 22.91,59.59 62.28,59.59 10.47,0 20.88,-2.285 27.35,-5.117 l -5.02,-21.289 c -4.55,2.226 -11.35,4.375 -21.43,4.375 -21.58,0 -34.37,-15.782 -34.27,-36.309 0,-22.969 15.07,-36.133 34.37,-36.133 9.71,0 16.7,2.109 22.25,4.414 l 3.8,-21.0155" /><path
         id="path44"
         style="fill:#231f20;fill-opacity:1;fill-rule:nonzero;stroke:none"
         d="m 1132.75,236.152 v -28.789 h 26.93 V 186.27 h -26.93 v -49.395 c 0,-13.711 3.65,-20.684 14.47,-20.684 5.14,0 7.79,0.372 11,1.25 l 0.58,-21.5426 c -4.25,-1.6015 -11.68,-2.9101 -20.6,-2.9101 -10.41,0 -19.08,3.5351 -24.34,9.2187 -6.09,6.426 -8.86,16.738 -8.86,31.406 v 52.657 h -15.98 v 21.093 H 1105 v 20.86 l 27.75,7.929" /><path
         id="path46"
         style="fill:#231f20;fill-opacity:1;fill-rule:nonzero;stroke:none"
         d="m 1228.9,92.8711 c 28.42,0 57.31,18.4569 57.31,59.6089 0,33.946 -22.31,57.422 -55.63,57.422 -33.75,0 -57.93,-22.617 -57.93,-59.355 0,-35.879 24.43,-57.6759 56.04,-57.6759 z m 0.24,20.5669 c -16.86,0 -27.62,16.289 -27.62,37.832 0,18.671 8.14,38.066 28.03,38.066 19.53,0 27.32,-20.098 27.32,-37.695 0,-22.539 -11.27,-38.203 -27.52,-38.203 h -0.21" /><path
         id="path48"
         style="fill:#231f20;fill-opacity:1;fill-rule:nonzero;stroke:none"
         d="m 1309.76,171.367 c 0,15 -0.31,26.035 -0.92,35.996 h 24.51 l 1.06,-21.269 h 0.8 c 5.51,15.761 18.57,23.808 30.64,23.808 2.76,0 4.38,-0.117 6.65,-0.625 v -26.66 c -2.64,0.508 -5.12,0.801 -8.54,0.801 -13.48,0 -22.83,-8.574 -25.37,-21.406 -0.47,-2.5 -0.72,-5.508 -0.72,-8.535 V 95.3906 h -28.34 l 0.23,75.9764" /><path
         id="path50"
         style="fill:#231f20;fill-opacity:1;fill-rule:nonzero;stroke:none"
         d="m 1405.48,224.668 c -9.88,0 -16.4,7.187 -16.36,16.152 -0.04,9.063 6.7,16.094 16.7,16.094 10.09,0 16.54,-6.953 16.64,-16.094 0.04,-8.965 -6.47,-16.152 -16.76,-16.152 z M 1391.62,95.3906 V 207.363 h 28.34 V 95.3906 h -28.34" /><path
         id="path52"
         style="fill:#231f20;fill-opacity:1;fill-rule:nonzero;stroke:none"
         d="m 1537.28,162.695 c 0,24.571 -10.25,47.207 -46.17,47.207 -17.64,0 -32.13,-4.804 -40.59,-9.941 l 5.61,-18.379 c 7.63,4.824 19.14,8.359 30.1,8.359 19.82,0.079 22.75,-12.168 22.75,-19.511 v -1.856 c -41.25,0.156 -66.43,-14.14 -66.43,-42.402 0,-17.07 12.58,-33.3009 35.3,-33.3009 14.51,0 26.21,6.1719 33,14.9999 h 0.69 l 1.93,-12.4804 h 25.55 c -1.23,6.9144 -1.74,16.7974 -1.74,26.9724 z m -27.56,-27.929 c 0,-1.973 -0.17,-4.2 -0.78,-6.153 -2.71,-8.203 -10.86,-15.508 -22.17,-15.508 -8.94,0 -16.13,5.176 -16.13,16.133 0,17.051 19.1,21.27 39.08,20.996 v -15.468" /><g
         id="g54"><g
           clip-path="url(#clipPath60)"
           id="g56"><path
             id="path68"
             style="fill:url(#linearGradient66);fill-opacity:1;fill-rule:nonzero;stroke:none"
             d="m 219.023,6.42578 c -72.05,0 -209.84331,97.24622 -209.84331,249.70722 0,0 0,36.156 0,82.89 H 427.82 c 0,-46.734 0,-82.89 0,-82.89 C 427.82,103.672 290.723,6.42578 219.023,6.42578" /></g></g><path
         id="path70"
         style="fill:#ffffff;fill-opacity:1;fill-rule:nonzero;stroke:none"
         d="M 420.754,351.633 V 525.801 H 14.7656 V 351.633 H 420.754" /><path
         id="path72"
         style="fill:#ee293d;fill-opacity:1;fill-rule:nonzero;stroke:none"
         d="m 264.043,451.383 c -7.559,-7.746 -13.613,-9.481 -15.371,-9.871 -5.899,3.418 -10.203,6.511 -11.692,7.804 -0.75,0.645 -1.433,1.254 -2.125,1.872 4.305,-0.641 18.946,-2.473 29.188,0.195" /><path
         id="path74"
         style="fill:none;stroke:#ee293d;stroke-width:1.44000006;stroke-linecap:butt;stroke-linejoin:miter;stroke-miterlimit:4;stroke-dasharray:none;stroke-opacity:1"
         d="m 264.043,451.383 c -7.559,-7.746 -13.613,-9.481 -15.371,-9.871 -5.899,3.418 -10.203,6.511 -11.692,7.804 -0.75,0.645 -1.433,1.254 -2.125,1.872 4.305,-0.641 18.946,-2.473 29.188,0.195 z" /><path
         id="path76"
         style="fill:#ee293d;fill-opacity:1;fill-rule:nonzero;stroke:none"
         d="m 183.047,399.219 c 2.207,3.929 6.094,10.394 5.996,17.816 2.266,-1.644 4.402,-2.742 6.133,-3.305 0.527,-4.566 0.488,-8.73 0.078,-12.492 -2.051,-1.015 -5.625,-1.953 -12.207,-2.019" /><path
         id="path78"
         style="fill:none;stroke:#ee293d;stroke-width:1.44000006;stroke-linecap:butt;stroke-linejoin:miter;stroke-miterlimit:4;stroke-dasharray:none;stroke-opacity:1"
         d="m 183.047,399.219 c 2.207,3.929 6.094,10.394 5.996,17.816 2.266,-1.644 4.402,-2.742 6.133,-3.305 0.527,-4.566 0.488,-8.73 0.078,-12.492 -2.051,-1.015 -5.625,-1.953 -12.207,-2.019 z" /><path
         id="path80"
         style="fill:#ee293d;fill-opacity:1;fill-rule:nonzero;stroke:none"
         d="m 250.137,406.738 c 3.398,-5.484 11.445,-9.718 9.746,-28.144 -8.535,14.691 -31.934,35.883 -38.496,37.09 -3.633,-9.946 3.496,-33.512 5.437,-37.246 -7.554,3.734 -12.183,7.136 -15.164,21.824 -3.164,-7.235 -4.512,-16.477 -19.277,-21.371 4.355,7.984 10.625,14.457 10.019,38.8 -8.183,4.793 -24.953,2.938 -27.187,48.262 -0.469,11.453 -5.227,14.637 -13.77,20.395 0,0 6.485,4.625 11.407,8.5 6.171,4.843 25.656,7.754 26.621,-22.364 14.804,-8.48 14.882,-11.257 26.093,-22.086 10.723,-10.339 35.11,-23.714 46.778,-24.035 -9.746,-3.488 -22.207,-3.691 -28.555,-3.691 3.418,2.992 5.059,4.676 6.106,7.719 -6.34,-4.231 -19.231,-10.207 -34.348,-2.746 6.23,-0.305 12.637,-0.793 19.004,6.464 -7.305,-2.234 -25.957,-8.019 -39.688,8.243 -12.414,14.644 4.004,16.824 12.168,10.933 8.438,-6.055 11.934,-10.59 13.555,-16.48 2.422,8.957 -10.391,29.937 -26.707,26.457 -16.313,-3.492 -1.399,-30.617 9.488,-35.86 4.16,-1.988 14.387,-11.191 47.492,-10.949 5.332,-2.644 11.043,-5.617 23.875,-6.742 -6.336,-6.707 -21.921,-5.719 -24.597,-2.973" /><path
         id="path82"
         style="fill:none;stroke:#ee293d;stroke-width:1.44000006;stroke-linecap:butt;stroke-linejoin:miter;stroke-miterlimit:4;stroke-dasharray:none;stroke-opacity:1"
         d="m 250.137,406.738 c 3.398,-5.484 11.445,-9.718 9.746,-28.144 -8.535,14.691 -31.934,35.883 -38.496,37.09 -3.633,-9.946 3.496,-33.512 5.437,-37.246 -7.554,3.734 -12.183,7.136 -15.164,21.824 -3.164,-7.235 -4.512,-16.477 -19.277,-21.371 4.355,7.984 10.625,14.457 10.019,38.8 -8.183,4.793 -24.953,2.938 -27.187,48.262 -0.469,11.453 -5.227,14.637 -13.77,20.395 0,0 6.485,4.625 11.407,8.5 6.171,4.843 25.656,7.754 26.621,-22.364 14.804,-8.48 14.882,-11.257 26.093,-22.086 10.723,-10.339 35.11,-23.714 46.778,-24.035 -9.746,-3.488 -22.207,-3.691 -28.555,-3.691 3.418,2.992 5.059,4.676 6.106,7.719 -6.34,-4.231 -19.231,-10.207 -34.348,-2.746 6.23,-0.305 12.637,-0.793 19.004,6.464 -7.305,-2.234 -25.957,-8.019 -39.688,8.243 -12.414,14.644 4.004,16.824 12.168,10.933 8.438,-6.055 11.934,-10.59 13.555,-16.48 2.422,8.957 -10.391,29.937 -26.707,26.457 -16.313,-3.492 -1.399,-30.617 9.488,-35.86 4.16,-1.988 14.387,-11.191 47.492,-10.949 5.332,-2.644 11.043,-5.617 23.875,-6.742 -6.336,-6.707 -21.921,-5.719 -24.597,-2.973 z" /><path
         id="path84"
         style="fill:#231f20;fill-opacity:1;fill-rule:nonzero;stroke:none"
         d="m 174.688,490.039 c 1.23,-0.832 4.296,-2.523 7.402,-2.035 -2.422,-1.805 -7.277,-0.426 -9.336,0.73 -0.234,-0.183 -0.457,-0.351 -0.703,-0.55 -0.879,-0.61 -1.731,-0.7 -1.953,-0.883 -0.34,-0.301 -0.196,-0.762 -0.196,-0.762 1.309,0.461 4.493,-1.562 4.493,-1.562 4.707,-2.723 8.457,-0.262 9.929,0.437 1.496,0.684 2.297,1.152 4.016,2.238 -4.363,5.727 -9.578,4.789 -13.652,2.387" /><path
         id="path86"
         style="fill:#231f20;fill-opacity:1;fill-rule:nonzero;stroke:none"
         d="m 250.176,406.797 c 3.418,-5.481 11.457,-9.719 9.758,-28.145 -8.528,14.696 -31.946,35.887 -38.489,37.102 -3.652,-9.957 3.477,-33.508 5.41,-37.246 -7.531,3.738 -12.167,7.133 -15.144,21.82 -3.176,-7.234 -4.504,-16.484 -19.289,-21.379 4.375,7.989 10.637,14.449 10.019,38.801 -8.171,4.793 -24.953,2.934 -27.168,48.262 -0.476,11.457 -5.234,14.636 -13.789,20.39 0,0 6.496,4.633 11.407,8.504 6.172,4.844 25.656,7.766 26.64,-22.371 14.805,-8.476 14.883,-11.25 26.074,-22.078 10.743,-10.344 35.118,-23.719 46.797,-24.043 -9.746,-3.465 -22.226,-3.68 -28.554,-3.68 3.418,2.985 5.047,4.688 6.093,7.719 -6.328,-4.234 -19.226,-10.211 -34.336,-2.754 6.211,-0.297 12.637,-0.773 18.985,6.477 -7.285,-2.238 -25.918,-8.028 -39.695,8.234 -12.375,14.649 4,16.824 12.175,10.945 8.457,-6.066 11.946,-10.605 13.567,-16.496 2.429,8.965 -10.395,29.954 -26.711,26.469 -16.309,-3.5 -1.406,-30.629 9.492,-35.863 4.141,-1.992 14.375,-11.199 47.52,-10.957 5.312,-2.641 11.015,-5.606 23.847,-6.727 -6.328,-6.718 -21.914,-5.718 -24.609,-2.984 z m -67.071,-7.516 c 2.208,3.926 6.075,10.391 5.997,17.813 2.253,-1.633 4.394,-2.731 6.113,-3.293 0.527,-4.578 0.5,-8.738 0.098,-12.508 -2.071,-1 -5.645,-1.953 -12.208,-2.012 z m 80.965,52.16 c -7.547,-7.734 -13.582,-9.48 -15.347,-9.863 -5.891,3.418 -10.207,6.508 -11.692,7.797 -0.742,0.641 -1.445,1.266 -2.109,1.875 4.277,-0.645 18.926,-2.48 29.148,0.191 z m 24.524,-35.406 c -13.321,-3.762 -25.977,2.219 -26.172,2.379 13.016,2.879 19.48,4.84 25.898,10.918 -10.976,-0.504 -22.859,3.711 -32.5,8.445 3.035,1.758 14.317,8.938 17.996,20.453 -5.086,-1.937 -38.445,-4.128 -45.457,-0.382 -5.82,6.418 -8.984,11.125 -22.707,18.851 -6.074,38.09 -30.64,27.75 -37.742,19.668 -4.289,-4.867 -14.015,-9.234 -14.015,-9.234 15.363,-8.086 15.507,-14.813 16.398,-22.059 -1.023,-19.894 5.195,-33.484 12.148,-41.719 1.961,-5.171 3.301,-15.41 -7.168,-27.968 8.387,-1.172 15.54,-0.188 19.141,0.539 -2.051,-9.145 -6.394,-15.672 -10,-20.383 5.606,-1.367 21.277,2.289 26.582,7.879 5.82,-4.02 15.574,-12.723 28.965,-11.781 -14.375,11.422 -13.391,28.933 -12.305,33.519 10.821,-8.082 27.879,-25.015 35.43,-40.68 3.672,17.918 2.684,21.899 1.504,33.071 10.43,4.773 17.5,8.996 24.004,18.484" /><path
         id="path88"
         style="fill:#ee293d;fill-opacity:1;fill-rule:nonzero;stroke:none"
         d="m 387.129,451.383 c -7.551,-7.746 -13.594,-9.481 -15.371,-9.871 -5.879,3.418 -10.176,6.511 -11.68,7.804 -0.742,0.645 -1.433,1.254 -2.117,1.872 4.305,-0.641 18.941,-2.473 29.168,0.195" /><path
         id="path90"
         style="fill:none;stroke:#ee293d;stroke-width:1.44000006;stroke-linecap:butt;stroke-linejoin:miter;stroke-miterlimit:4;stroke-dasharray:none;stroke-opacity:1"
         d="m 387.129,451.383 c -7.551,-7.746 -13.594,-9.481 -15.371,-9.871 -5.879,3.418 -10.176,6.511 -11.68,7.804 -0.742,0.645 -1.433,1.254 -2.117,1.872 4.305,-0.641 18.941,-2.473 29.168,0.195 z" /><path
         id="path92"
         style="fill:#ee293d;fill-opacity:1;fill-rule:nonzero;stroke:none"
         d="m 306.152,399.219 c 2.207,3.929 6.075,10.394 5.977,17.816 2.266,-1.644 4.414,-2.742 6.133,-3.305 0.527,-4.566 0.508,-8.73 0.097,-12.492 -2.058,-1.015 -5.625,-1.953 -12.207,-2.019" /><path
         id="path94"
         style="fill:none;stroke:#ee293d;stroke-width:1.44000006;stroke-linecap:butt;stroke-linejoin:miter;stroke-miterlimit:4;stroke-dasharray:none;stroke-opacity:1"
         d="m 306.152,399.219 c 2.207,3.929 6.075,10.394 5.977,17.816 2.266,-1.644 4.414,-2.742 6.133,-3.305 0.527,-4.566 0.508,-8.73 0.097,-12.492 -2.058,-1.015 -5.625,-1.953 -12.207,-2.019 z" /><path
         id="path96"
         style="fill:#ee293d;fill-opacity:1;fill-rule:nonzero;stroke:none"
         d="m 373.242,406.738 c 3.399,-5.484 11.446,-9.718 9.746,-28.144 -8.535,14.691 -31.941,35.883 -38.484,37.09 -3.664,-9.946 3.465,-33.512 5.437,-37.246 -7.578,3.734 -12.199,7.136 -15.183,21.824 -3.176,-7.235 -4.516,-16.477 -19.278,-21.371 4.364,7.984 10.614,14.457 10.008,38.8 -8.183,4.793 -24.941,2.938 -27.168,48.262 -0.488,11.453 -5.234,14.637 -13.789,20.395 0,0 6.504,4.625 11.407,8.5 6.191,4.843 25.664,7.754 26.64,-22.364 14.793,-8.48 14.871,-11.257 26.094,-22.086 10.723,-10.339 35.098,-23.714 46.766,-24.035 -9.715,-3.488 -22.196,-3.691 -28.543,-3.691 3.418,2.992 5.046,4.676 6.074,7.719 -6.309,-4.231 -19.207,-10.207 -34.317,-2.746 6.211,-0.305 12.625,-0.793 18.993,6.464 -7.313,-2.234 -25.946,-8.019 -39.696,8.243 -12.39,14.644 4.004,16.824 12.18,10.933 8.445,-6.055 11.941,-10.59 13.543,-16.48 2.441,8.957 -10.379,29.937 -26.699,26.457 -16.309,-3.492 -1.387,-30.617 9.504,-35.86 4.148,-1.988 14.363,-11.191 47.488,-10.949 5.332,-2.644 11.035,-5.617 23.867,-6.742 -6.328,-6.707 -21.914,-5.719 -24.59,-2.973" /><path
         id="path98"
         style="fill:none;stroke:#ee293d;stroke-width:1.44000006;stroke-linecap:butt;stroke-linejoin:miter;stroke-miterlimit:4;stroke-dasharray:none;stroke-opacity:1"
         d="m 373.242,406.738 c 3.399,-5.484 11.446,-9.718 9.746,-28.144 -8.535,14.691 -31.941,35.883 -38.484,37.09 -3.664,-9.946 3.465,-33.512 5.437,-37.246 -7.578,3.734 -12.199,7.136 -15.183,21.824 -3.176,-7.235 -4.516,-16.477 -19.278,-21.371 4.364,7.984 10.614,14.457 10.008,38.8 -8.183,4.793 -24.941,2.938 -27.168,48.262 -0.488,11.453 -5.234,14.637 -13.789,20.395 0,0 6.504,4.625 11.407,8.5 6.191,4.843 25.664,7.754 26.64,-22.364 14.793,-8.48 14.871,-11.257 26.094,-22.086 10.723,-10.339 35.098,-23.714 46.766,-24.035 -9.715,-3.488 -22.196,-3.691 -28.543,-3.691 3.418,2.992 5.046,4.676 6.074,7.719 -6.309,-4.231 -19.207,-10.207 -34.317,-2.746 6.211,-0.305 12.625,-0.793 18.993,6.464 -7.313,-2.234 -25.946,-8.019 -39.696,8.243 -12.39,14.644 4.004,16.824 12.18,10.933 8.445,-6.055 11.941,-10.59 13.543,-16.48 2.441,8.957 -10.379,29.937 -26.699,26.457 -16.309,-3.492 -1.387,-30.617 9.504,-35.86 4.148,-1.988 14.363,-11.191 47.488,-10.949 5.332,-2.644 11.035,-5.617 23.867,-6.742 -6.328,-6.707 -21.914,-5.719 -24.59,-2.973 z" /><path
         id="path100"
         style="fill:#231f20;fill-opacity:1;fill-rule:nonzero;stroke:none"
         d="m 297.793,490.039 c 1.23,-0.832 4.285,-2.523 7.402,-2.035 -2.422,-1.805 -7.285,-0.426 -9.336,0.73 -0.254,-0.183 -0.468,-0.351 -0.703,-0.55 -0.886,-0.61 -1.726,-0.7 -1.953,-0.883 -0.351,-0.301 -0.195,-0.762 -0.195,-0.762 1.308,0.461 4.472,-1.562 4.472,-1.562 4.739,-2.723 8.465,-0.262 9.942,0.437 1.492,0.684 2.305,1.152 4.004,2.238 -4.356,5.727 -9.571,4.789 -13.633,2.387" /><path
         id="path102"
         style="fill:#231f20;fill-opacity:1;fill-rule:nonzero;stroke:none"
         d="m 373.281,406.797 c 3.418,-5.481 11.446,-9.719 9.746,-28.145 -8.535,14.696 -31.941,35.887 -38.496,37.102 -3.633,-9.957 3.496,-33.508 5.43,-37.246 -7.539,3.738 -12.168,7.133 -15.156,21.82 -3.164,-7.234 -4.512,-16.484 -19.285,-21.379 4.382,7.989 10.632,14.449 10.027,38.801 -8.184,4.793 -24.961,2.934 -27.168,48.262 -0.481,11.457 -5.254,14.636 -13.789,20.39 0,0 6.484,4.633 11.394,8.504 6.172,4.844 25.657,7.766 26.645,-22.371 14.805,-8.476 14.871,-11.25 26.082,-22.078 10.742,-10.344 35.105,-23.719 46.797,-24.043 -9.738,-3.465 -22.227,-3.68 -28.555,-3.68 3.406,2.985 5.039,4.688 6.082,7.719 -6.324,-4.234 -19.226,-10.211 -34.336,-2.754 6.223,-0.297 12.641,-0.773 18.996,6.477 -7.285,-2.238 -25.937,-8.028 -39.707,8.234 -12.383,14.649 4.004,16.824 12.188,10.945 8.457,-6.066 11.933,-10.605 13.554,-16.496 2.43,8.965 -10.39,29.954 -26.699,26.469 -16.308,-3.5 -1.406,-30.629 9.5,-35.863 4.133,-1.992 14.367,-11.199 47.492,-10.957 5.332,-2.641 11.036,-5.606 23.868,-6.727 -6.348,-6.718 -21.914,-5.718 -24.61,-2.984 z m -67.07,-7.516 c 2.195,3.926 6.055,10.391 5.977,17.813 2.265,-1.633 4.406,-2.731 6.132,-3.293 0.528,-4.578 0.489,-8.738 0.078,-12.508 -2.058,-1 -5.625,-1.953 -12.187,-2.012 z m 80.977,52.16 c -7.579,-7.734 -13.583,-9.48 -15.372,-9.863 -5.898,3.418 -10.195,6.508 -11.679,7.797 -0.75,0.641 -1.453,1.266 -2.117,1.875 4.277,-0.645 18.933,-2.48 29.168,0.191 z m 24.5,-35.406 c -13.329,-3.762 -25.958,2.219 -26.153,2.379 13,2.879 19.465,4.84 25.891,10.918 -10.988,-0.504 -22.871,3.711 -32.508,8.445 3.035,1.758 14.324,8.938 17.996,20.453 -5.078,-1.937 -38.445,-4.128 -45.469,-0.382 -5.82,6.418 -8.965,11.125 -22.695,18.851 -6.074,38.09 -30.625,27.75 -37.734,19.668 -4.297,-4.867 -14.024,-9.234 -14.024,-9.234 15.352,-8.086 15.508,-14.813 16.426,-22.059 -1.055,-19.894 5.176,-33.484 12.129,-41.719 1.953,-5.171 3.301,-15.41 -7.168,-27.968 8.379,-1.172 15.516,-0.188 19.141,0.539 -2.059,-9.145 -6.399,-15.672 -10.008,-20.383 5.613,-1.367 21.277,2.289 26.59,7.879 5.82,-4.02 15.566,-12.723 28.964,-11.781 -14.375,11.422 -13.398,28.933 -12.312,33.519 10.848,-8.082 27.879,-25.015 35.43,-40.68 3.679,17.918 2.683,21.899 1.511,33.071 10.43,4.773 17.5,8.996 23.993,18.484" /><path
         id="path104"
         style="fill:#ee293d;fill-opacity:1;fill-rule:nonzero;stroke:none"
         d="m 138.801,451.383 c -7.571,-7.746 -13.606,-9.481 -15.363,-9.871 -5.899,3.418 -10.196,6.511 -11.68,7.804 -0.762,0.645 -1.465,1.254 -2.129,1.872 4.277,-0.641 18.926,-2.473 29.172,0.195" /><path
         id="path106"
         style="fill:none;stroke:#ee293d;stroke-width:1.44000006;stroke-linecap:butt;stroke-linejoin:miter;stroke-miterlimit:4;stroke-dasharray:none;stroke-opacity:1"
         d="m 138.801,451.383 c -7.571,-7.746 -13.606,-9.481 -15.363,-9.871 -5.899,3.418 -10.196,6.511 -11.68,7.804 -0.762,0.645 -1.465,1.254 -2.129,1.872 4.277,-0.641 18.926,-2.473 29.172,0.195 z" /><path
         id="path108"
         style="fill:#ee293d;fill-opacity:1;fill-rule:nonzero;stroke:none"
         d="m 57.8125,399.219 c 2.207,3.929 6.0742,10.394 5.9844,17.816 2.2578,-1.644 4.4062,-2.742 6.1445,-3.305 0.5274,-4.566 0.4883,-8.73 0.0781,-12.492 -2.0586,-1.015 -5.6328,-1.953 -12.207,-2.019" /><path
         id="path110"
         style="fill:none;stroke:#ee293d;stroke-width:1.44000006;stroke-linecap:butt;stroke-linejoin:miter;stroke-miterlimit:4;stroke-dasharray:none;stroke-opacity:1"
         d="m 57.8125,399.219 c 2.207,3.929 6.0742,10.394 5.9844,17.816 2.2578,-1.644 4.4062,-2.742 6.1445,-3.305 0.5274,-4.566 0.4883,-8.73 0.0781,-12.492 -2.0586,-1.015 -5.6328,-1.953 -12.207,-2.019 z" /><path
         id="path112"
         style="fill:#ee293d;fill-opacity:1;fill-rule:nonzero;stroke:none"
         d="m 124.895,406.738 c 3.406,-5.484 11.445,-9.718 9.746,-28.144 -8.528,14.691 -31.938,35.883 -38.4887,37.09 -3.6523,-9.946 3.4766,-33.512 5.4297,-37.246 -7.5586,3.734 -12.1875,7.136 -15.1757,21.824 -3.1641,-7.235 -4.4844,-16.477 -19.2657,-21.371 4.3633,7.984 10.625,14.457 10.0274,38.8 -8.2032,4.793 -24.961,2.938 -27.1875,48.262 -0.4688,11.453 -5.2735,14.637 -13.836,20.395 0,0 6.5118,4.625 11.461,8.5 6.164,4.843 25.6562,7.754 26.6328,-22.364 14.8125,-8.48 14.8945,-11.257 26.0937,-22.086 10.723,-10.339 35.098,-23.714 46.777,-24.035 -9.746,-3.488 -22.214,-3.691 -28.554,-3.691 3.425,2.992 5.039,4.676 6.093,7.719 -6.328,-4.231 -19.226,-10.207 -34.3355,-2.746 6.2109,-0.305 12.6365,-0.793 19.0035,6.464 -7.312,-2.234 -25.9371,-8.019 -39.7066,8.243 -12.3828,14.644 4.0039,16.824 12.1875,10.933 8.4375,-6.055 11.914,-10.59 13.5547,-16.48 2.4218,8.957 -10.4102,29.937 -26.7188,26.457 -16.3164,-3.492 -1.4062,-30.617 9.5039,-35.86 4.1289,-1.988 14.3633,-11.191 47.4883,-10.949 5.332,-2.644 11.047,-5.617 23.867,-6.742 -6.316,-6.707 -21.914,-5.719 -24.597,-2.973" /><path
         id="path114"
         style="fill:none;stroke:#ee293d;stroke-width:1.44000006;stroke-linecap:butt;stroke-linejoin:miter;stroke-miterlimit:4;stroke-dasharray:none;stroke-opacity:1"
         d="m 124.895,406.738 c 3.406,-5.484 11.445,-9.718 9.746,-28.144 -8.528,14.691 -31.938,35.883 -38.4887,37.09 -3.6523,-9.946 3.4766,-33.512 5.4297,-37.246 -7.5586,3.734 -12.1875,7.136 -15.1757,21.824 -3.1641,-7.235 -4.4844,-16.477 -19.2657,-21.371 4.3633,7.984 10.625,14.457 10.0274,38.8 -8.2032,4.793 -24.961,2.938 -27.1875,48.262 -0.4688,11.453 -5.2735,14.637 -13.836,20.395 0,0 6.5118,4.625 11.461,8.5 6.164,4.843 25.6562,7.754 26.6328,-22.364 14.8125,-8.48 14.8945,-11.257 26.0937,-22.086 10.723,-10.339 35.098,-23.714 46.777,-24.035 -9.746,-3.488 -22.214,-3.691 -28.554,-3.691 3.425,2.992 5.039,4.676 6.093,7.719 -6.328,-4.231 -19.226,-10.207 -34.3355,-2.746 6.2109,-0.305 12.6365,-0.793 19.0035,6.464 -7.312,-2.234 -25.9371,-8.019 -39.7066,8.243 -12.3828,14.644 4.0039,16.824 12.1875,10.933 8.4375,-6.055 11.914,-10.59 13.5547,-16.48 2.4218,8.957 -10.4102,29.937 -26.7188,26.457 -16.3164,-3.492 -1.4062,-30.617 9.5039,-35.86 4.1289,-1.988 14.3633,-11.191 47.4883,-10.949 5.332,-2.644 11.047,-5.617 23.867,-6.742 -6.316,-6.707 -21.914,-5.719 -24.597,-2.973 z" /><path
         id="path116"
         style="fill:#231f20;fill-opacity:1;fill-rule:nonzero;stroke:none"
         d="m 49.4453,490.039 c 1.2383,-0.832 4.293,-2.523 7.4102,-2.035 -2.4219,-1.805 -7.2657,-0.426 -9.336,0.73 -0.2539,-0.183 -0.5078,-0.351 -0.7343,-0.55 -0.9063,-0.61 -1.7461,-0.7 -1.9688,-0.883 -0.3633,-0.301 -0.1875,-0.762 -0.1875,-0.762 1.2891,0.461 4.5313,-1.562 4.5313,-1.562 4.707,-2.723 8.4453,-0.262 9.9336,0.437 1.4921,0.684 2.2929,1.152 4,2.238 -4.3555,5.727 -9.5782,4.789 -13.6485,2.387" /><path
         id="path118"
         style="fill:#231f20;fill-opacity:1;fill-rule:nonzero;stroke:none"
         d="m 124.941,406.797 c 3.411,-5.481 11.446,-9.719 9.739,-28.145 -8.528,14.696 -31.926,35.887 -38.4691,37.102 -3.6523,-9.957 3.4766,-33.508 5.4301,-37.246 -7.559,3.738 -12.1879,7.133 -15.1762,21.82 -3.164,-7.234 -4.5117,-16.484 -19.2773,-21.379 4.375,7.989 10.6133,14.449 10.0195,38.801 -8.1836,4.793 -24.9492,2.934 -27.1679,48.262 -0.4688,11.457 -5.2813,14.636 -13.8282,20.39 0,0 6.4844,4.633 11.4454,8.504 6.1718,4.844 25.6523,7.766 26.6406,-22.371 14.8047,-8.476 14.8633,-11.25 26.0741,-22.078 10.734,-10.344 35.125,-23.719 46.777,-24.043 -9.714,-3.465 -22.207,-3.68 -28.535,-3.68 3.399,2.985 5.039,4.688 6.094,7.719 -6.348,-4.234 -19.246,-10.211 -34.3554,-2.754 6.2304,-0.297 12.6364,-0.773 19.0034,6.477 -7.304,-2.238 -25.9448,-8.028 -39.6987,8.234 -12.3907,14.649 4.0039,16.824 12.1796,10.945 8.4493,-6.066 11.9454,-10.605 13.5547,-16.496 2.4219,8.965 -10.3906,29.954 -26.6992,26.469 -16.3281,-3.5 -1.4062,-30.629 9.4805,-35.863 4.1523,-1.992 14.3867,-11.199 47.5041,-10.957 5.332,-2.641 11.043,-5.606 23.875,-6.727 -6.348,-6.718 -21.922,-5.718 -24.61,-2.984 z m -67.0816,-7.516 c 2.1992,3.926 6.0859,10.391 5.9804,17.813 2.2735,-1.633 4.4024,-2.731 6.1211,-3.293 0.5352,-4.578 0.5157,-8.738 0.1172,-12.508 -2.0703,-1 -5.6445,-1.953 -12.2187,-2.012 z m 80.9886,52.16 c -7.571,-7.734 -13.594,-9.48 -15.391,-9.863 -5.879,3.418 -10.176,6.508 -11.66,7.797 -0.762,0.641 -1.445,1.266 -2.129,1.875 4.297,-0.645 18.945,-2.48 29.18,0.191 z m 24.511,-35.406 c -13.339,-3.762 -25.988,2.219 -26.171,2.379 13.007,2.879 19.472,4.84 25.878,10.918 -10.957,-0.504 -22.839,3.711 -32.48,8.445 3.027,1.758 14.309,8.938 18.008,20.453 -5.11,-1.937 -38.457,-4.128 -45.469,-0.382 -5.8398,6.418 -8.9727,11.125 -22.6953,18.851 -6.0938,38.09 -30.6445,27.75 -37.8125,19.668 -4.2774,-4.867 -14.0039,-9.234 -14.0039,-9.234 15.3437,-8.086 15.5078,-14.813 16.3984,-22.059 -1.0273,-19.894 5.2227,-33.484 12.1953,-41.719 1.961,-5.171 3.3008,-15.41 -7.1679,-27.968 8.3789,-1.172 15.539,-0.188 19.1406,0.539 -2.0508,-9.145 -6.4063,-15.672 -10.0117,-20.383 5.6172,-1.367 21.3008,2.289 26.5859,7.879 5.8203,-4.02 15.5741,-12.723 28.9731,-11.781 -14.375,11.422 -13.399,28.933 -12.325,33.519 10.86,-8.082 27.891,-25.015 35.45,-40.68 3.652,17.918 2.675,21.899 1.503,33.071 10.43,4.773 17.493,8.996 24.004,18.484" /><path
         id="path120"
         style="fill:#ffffff;fill-opacity:1;fill-rule:nonzero;stroke:none"
         d="M 430.703,339.75 H 5.97656" /><path
         id="path122"
         style="fill:none;stroke:#ffffff;stroke-width:4.66800022;stroke-linecap:butt;stroke-linejoin:miter;stroke-miterlimit:4;stroke-dasharray:none;stroke-opacity:1"
         d="M 430.703,339.75 H 5.97656" /><path
         id="path124"
         style="fill:#ffffff;fill-opacity:1;fill-rule:nonzero;stroke:none"
         d="M 203.547,312.523 H 5.97656" /><path
         id="path126"
         style="fill:none;stroke:#ffffff;stroke-width:4.66800022;stroke-linecap:butt;stroke-linejoin:miter;stroke-miterlimit:4;stroke-dasharray:none;stroke-opacity:1"
         d="M 203.547,312.523 H 5.97656" /><path
         id="path128"
         style="fill:#ffffff;fill-opacity:1;fill-rule:nonzero;stroke:none"
         d="M 428.563,312.523 H 230.984" /><path
         id="path130"
         style="fill:none;stroke:#ffffff;stroke-width:4.66800022;stroke-linecap:butt;stroke-linejoin:miter;stroke-miterlimit:4;stroke-dasharray:none;stroke-opacity:1"
         d="M 428.563,312.523 H 230.984" /><path
         id="path132"
         style="fill:#ffffff;fill-opacity:1;fill-rule:nonzero;stroke:none"
         d="M 430.703,285.32 H 5.97656" /><path
         id="path134"
         style="fill:none;stroke:#ffffff;stroke-width:4.66800022;stroke-linecap:butt;stroke-linejoin:miter;stroke-miterlimit:4;stroke-dasharray:none;stroke-opacity:1"
         d="M 430.703,285.32 H 5.97656" /><path
         id="path136"
         style="fill:#ffffff;fill-opacity:1;fill-rule:nonzero;stroke:none"
         d="M 430.703,258.125 7.51953,257.664" /><path
         id="path138"
         style="fill:none;stroke:#ffffff;stroke-width:4.66800022;stroke-linecap:butt;stroke-linejoin:miter;stroke-miterlimit:4;stroke-dasharray:none;stroke-opacity:1"
         d="M 430.703,258.125 7.51953,257.664" /><path
         id="path140"
         style="fill:#ffffff;fill-opacity:1;fill-rule:nonzero;stroke:none"
         d="M 424.531,203.672 H 12.3438" /><path
         id="path142"
         style="fill:none;stroke:#ffffff;stroke-width:4.66800022;stroke-linecap:butt;stroke-linejoin:miter;stroke-miterlimit:4;stroke-dasharray:none;stroke-opacity:1"
         d="M 424.531,203.672 H 12.3438" /><path
         id="path144"
         style="fill:#ffffff;fill-opacity:1;fill-rule:nonzero;stroke:none"
         d="M 418.34,176.473 H 21.2305" /><path
         id="path146"
         style="fill:none;stroke:#ffffff;stroke-width:4.66800022;stroke-linecap:butt;stroke-linejoin:miter;stroke-miterlimit:4;stroke-dasharray:none;stroke-opacity:1"
         d="M 418.34,176.473 H 21.2305" /><path
         id="path148"
         style="fill:#ffffff;fill-opacity:1;fill-rule:nonzero;stroke:none"
         d="M 405.977,149.258 H 35.0195" /><path
         id="path150"
         style="fill:none;stroke:#ffffff;stroke-width:4.66800022;stroke-linecap:butt;stroke-linejoin:miter;stroke-miterlimit:4;stroke-dasharray:none;stroke-opacity:1"
         d="M 405.977,149.258 H 35.0195" /><path
         id="path152"
         style="fill:#ffffff;fill-opacity:1;fill-rule:nonzero;stroke:none"
         d="M 392.18,122.039 47.6367,117.781" /><path
         id="path154"
         style="fill:none;stroke:#ffffff;stroke-width:4.66800022;stroke-linecap:butt;stroke-linejoin:miter;stroke-miterlimit:4;stroke-dasharray:none;stroke-opacity:1"
         d="M 392.18,122.039 47.6367,117.781" /><path
         id="path156"
         style="fill:#ffffff;fill-opacity:1;fill-rule:nonzero;stroke:none"
         d="M 370.48,94.8242 H 66.2109" /><path
         id="path158"
         style="fill:none;stroke:#ffffff;stroke-width:4.66800022;stroke-linecap:butt;stroke-linejoin:miter;stroke-miterlimit:4;stroke-dasharray:none;stroke-opacity:1"
         d="M 370.48,94.8242 H 66.2109" /><path
         id="path160"
         style="fill:#ffffff;fill-opacity:1;fill-rule:nonzero;stroke:none"
         d="M 347.305,67.6172 H 94.0039" /><path
         id="path162"
         style="fill:none;stroke:#ffffff;stroke-width:4.66800022;stroke-linecap:butt;stroke-linejoin:miter;stroke-miterlimit:4;stroke-dasharray:none;stroke-opacity:1"
         d="M 347.305,67.6172 H 94.0039" /><path
         id="path164"
         style="fill:#ffffff;fill-opacity:1;fill-rule:nonzero;stroke:none"
         d="M 310.234,40.4102 H 131.074" /><path
         id="path166"
         style="fill:none;stroke:#ffffff;stroke-width:4.66800022;stroke-linecap:butt;stroke-linejoin:miter;stroke-miterlimit:4;stroke-dasharray:none;stroke-opacity:1"
         d="M 310.234,40.4102 H 131.074" /><path
         id="path168"
         style="fill:#ffffff;fill-opacity:1;fill-rule:nonzero;stroke:none"
         d="M 430.703,230.887 H 5.42969" /><path
         id="path170"
         style="fill:none;stroke:#ffffff;stroke-width:4.66800022;stroke-linecap:butt;stroke-linejoin:miter;stroke-miterlimit:4;stroke-dasharray:none;stroke-opacity:1"
         d="M 430.703,230.887 H 5.42969" /><path
         id="path172"
         style="fill:#231f20;fill-opacity:1;fill-rule:nonzero;stroke:none"
         d="m 423.535,527.836 c 0,-11.668 0,-277.289 0,-277.289 0,-145.539 -134.707,-238.3595 -205.144,-238.3595 -70.801,0 -206.2035,92.8205 -206.2035,238.3595 0,0 0,265.621 0,277.289 11.668,0 399.6875,0 411.3475,0 z m 6.106,12.191 H 0 V 250.547 C 0,97.5664 143.398,0 218.391,0 293.02,0 435.73,97.5664 435.73,250.547 v 289.48 h -6.089" /><path
         id="path174"
         style="fill:none;stroke:#231f20;stroke-width:12.18299961;stroke-linecap:butt;stroke-linejoin:miter;stroke-miterlimit:4;stroke-dasharray:none;stroke-opacity:1"
         d="M 435.098,342.465 H 11.5742" /><path
         id="path176"
         style="fill:#ffffff;fill-opacity:1;fill-rule:nonzero;stroke:none"
         d="m 144.043,294.852 c 19.551,13.14 35.176,18.648 47.051,17.238 5.011,-1.305 7.265,-4.992 8.476,-9.43 -5.371,1.367 -11.523,1.731 -18.086,0.895 l 0.586,-6 c 6.946,0.535 13.243,-0.305 18.758,-2.325 l 0.988,-8.535 c -5.507,1.75 -11.921,2.289 -18.828,1.481 l 0.567,-5.863 c 7.097,0.429 13.523,-0.657 19.121,-3.098 l 0.976,-8.414 c -5.547,2.144 -12.089,2.859 -19.179,2.105 l 0.547,-5.73 c 7.285,0.312 13.82,-1.047 19.519,-4.055 l 0.969,-8.316 c -5.606,2.636 -12.278,3.562 -19.531,2.879 l 0.546,-5.633 c 7.454,0.176 14.075,-1.535 19.903,-5.227 l 0.957,-8.211 c -5.672,3.301 -12.481,4.512 -19.922,3.907 l 0.527,-5.555 c 7.598,0.008 14.336,-2.16 20.352,-6.703 l 0.937,-8.035 c -5.8,4.168 -12.734,5.781 -20.363,5.273 l 0.527,-5.645 c 7.766,-0.195 14.582,-2.929 20.852,-8.515 l 0.918,-7.91 c -5.984,5.195 -13.047,7.246 -20.84,6.922 l 0.559,-5.594 c 7.84,-0.488 14.722,-3.867 21.367,-10.684 l 0.906,-7.812 c -6.269,6.406 -13.437,9.004 -21.348,8.867 l 0.567,-5.684 c 7.832,-0.8 14.797,-4.824 21.914,-12.988 l 0.996,-8.594 c -16.855,20.157 -38.328,11.328 -62.637,-4.609 -15.722,-10.332 -32.558,-17.024 -44.453,-14.629 L 94.7461,291.16 c 9.0239,-7.094 26.6409,-11.527 49.2969,3.692" /><path
         id="path178"
         style="fill:none;stroke:#ffffff;stroke-width:0.359;stroke-linecap:butt;stroke-linejoin:miter;stroke-miterlimit:4;stroke-dasharray:none;stroke-opacity:1"
         d="m 144.043,294.852 c 19.551,13.14 35.176,18.648 47.051,17.238 5.011,-1.305 7.265,-4.992 8.476,-9.43 -5.371,1.367 -11.523,1.731 -18.086,0.895 l 0.586,-6 c 6.946,0.535 13.243,-0.305 18.758,-2.325 l 0.988,-8.535 c -5.507,1.75 -11.921,2.289 -18.828,1.481 l 0.567,-5.863 c 7.097,0.429 13.523,-0.657 19.121,-3.098 l 0.976,-8.414 c -5.547,2.144 -12.089,2.859 -19.179,2.105 l 0.547,-5.73 c 7.285,0.312 13.82,-1.047 19.519,-4.055 l 0.969,-8.316 c -5.606,2.636 -12.278,3.562 -19.531,2.879 l 0.546,-5.633 c 7.454,0.176 14.075,-1.535 19.903,-5.227 l 0.957,-8.211 c -5.672,3.301 -12.481,4.512 -19.922,3.907 l 0.527,-5.555 c 7.598,0.008 14.336,-2.16 20.352,-6.703 l 0.937,-8.035 c -5.8,4.168 -12.734,5.781 -20.363,5.273 l 0.527,-5.645 c 7.766,-0.195 14.582,-2.929 20.852,-8.515 l 0.918,-7.91 c -5.984,5.195 -13.047,7.246 -20.84,6.922 l 0.559,-5.594 c 7.84,-0.488 14.722,-3.867 21.367,-10.684 l 0.906,-7.812 c -6.269,6.406 -13.437,9.004 -21.348,8.867 l 0.567,-5.684 c 7.832,-0.8 14.797,-4.824 21.914,-12.988 l 0.996,-8.594 c -16.855,20.157 -38.328,11.328 -62.637,-4.609 -15.722,-10.332 -32.558,-17.024 -44.453,-14.629 L 94.7461,291.16 c 9.0239,-7.094 26.6409,-11.527 49.2969,3.692 z" /><path
         id="path180"
         style="fill:#ffffff;fill-opacity:1;fill-rule:nonzero;stroke:none"
         d="m 219.57,177.852 c 8.086,10.39 15.821,15.378 24.649,16.289 l 0.586,3.047 c -9.551,0.175 -18.047,-3.614 -25.125,-13.309 l 0.156,9.695 c 8.055,10.332 16.258,15.281 25.879,15.86 l 0.562,2.988 c -10.347,0.449 -19.382,-3.34 -26.336,-13.047 l 0.157,9.93 c 7.988,10.148 16.699,14.972 27.097,15.234 l 0.539,3.027 c -11.132,0.754 -20.742,-3.015 -27.539,-12.625 l 0.164,10.098 c 7.883,9.941 17.161,14.609 28.293,14.609 l 0.547,2.93 c -11.875,0.996 -22.109,-2.676 -28.738,-12.082 l 0.164,10.293 c 7.793,9.66 17.598,14.25 29.504,13.945 l 0.555,3.02 c -12.618,1.191 -23.465,-2.461 -29.969,-11.582 l 0.176,10.371 c 7.703,9.352 18.086,13.871 30.691,13.316 l 0.586,3.114 c -13.359,1.429 -24.797,-2.321 -31.191,-11.2 l 0.168,10.532 c 7.617,9.023 18.582,13.511 31.921,12.683 l 0.586,3.258 c -14.05,1.656 -26.074,-2.207 -32.414,-10.801 l 0.168,10.61 c 7.559,8.718 19.063,13.289 33.145,12.199 l 0.605,3.367 c -14.441,1.84 -26.894,-2.012 -33.359,-10.035 0.625,2.609 2.324,7.719 6.66,11.875 -0.039,-0.008 -0.078,-0.023 -0.117,-0.035 14.348,12.062 39.109,6.562 64.492,-10.5 22.695,-15.242 40.313,-10.762 49.324,-3.653 L 328.672,150.684 c -11.914,-2.375 -28.731,4.316 -44.473,14.629 -25.351,16.652 -47.656,25.527 -64.804,1.777 l 0.175,10.762" /><path
         id="path182"
         style="fill:none;stroke:#ffffff;stroke-width:0.359;stroke-linecap:butt;stroke-linejoin:miter;stroke-miterlimit:4;stroke-dasharray:none;stroke-opacity:1"
         d="m 219.57,177.852 c 8.086,10.39 15.821,15.378 24.649,16.289 l 0.586,3.047 c -9.551,0.175 -18.047,-3.614 -25.125,-13.309 l 0.156,9.695 c 8.055,10.332 16.258,15.281 25.879,15.86 l 0.562,2.988 c -10.347,0.449 -19.382,-3.34 -26.336,-13.047 l 0.157,9.93 c 7.988,10.148 16.699,14.972 27.097,15.234 l 0.539,3.027 c -11.132,0.754 -20.742,-3.015 -27.539,-12.625 l 0.164,10.098 c 7.883,9.941 17.161,14.609 28.293,14.609 l 0.547,2.93 c -11.875,0.996 -22.109,-2.676 -28.738,-12.082 l 0.164,10.293 c 7.793,9.66 17.598,14.25 29.504,13.945 l 0.555,3.02 c -12.618,1.191 -23.465,-2.461 -29.969,-11.582 l 0.176,10.371 c 7.703,9.352 18.086,13.871 30.691,13.316 l 0.586,3.114 c -13.359,1.429 -24.797,-2.321 -31.191,-11.2 l 0.168,10.532 c 7.617,9.023 18.582,13.511 31.921,12.683 l 0.586,3.258 c -14.05,1.656 -26.074,-2.207 -32.414,-10.801 l 0.168,10.61 c 7.559,8.718 19.063,13.289 33.145,12.199 l 0.605,3.367 c -14.441,1.84 -26.894,-2.012 -33.359,-10.035 0.625,2.609 2.324,7.719 6.66,11.875 -0.039,-0.008 -0.078,-0.023 -0.117,-0.035 14.348,12.062 39.109,6.562 64.492,-10.5 22.695,-15.242 40.313,-10.762 49.324,-3.653 L 328.672,150.684 c -11.914,-2.375 -28.731,4.316 -44.473,14.629 -25.351,16.652 -47.656,25.527 -64.804,1.777 z" /><path
         id="path184"
         style="fill:#fab218;fill-opacity:1;fill-rule:nonzero;stroke:none"
         d="m 219.68,108.406 c -10.871,0 -20.317,2.688 -24.16,7.754 15.164,5 20.527,12.649 21.863,21.789 1.855,-9.015 8.816,-16.562 24.941,-21.57 -3.222,-5.207 -11.633,-7.973 -22.644,-7.973" /><path
         id="path186"
         style="fill:none;stroke:#fab218;stroke-width:0.359;stroke-linecap:butt;stroke-linejoin:miter;stroke-miterlimit:4;stroke-dasharray:none;stroke-opacity:1"
         d="m 219.68,108.406 c -10.871,0 -20.317,2.688 -24.16,7.754 15.164,5 20.527,12.649 21.863,21.789 1.855,-9.015 8.816,-16.562 24.941,-21.57 -3.222,-5.207 -11.633,-7.973 -22.644,-7.973 z" /><path
         id="path188"
         style="fill:#fab218;fill-opacity:1;fill-rule:nonzero;stroke:none"
         d="m 292.383,152.48 c -12.813,6.153 -26.106,9.844 -33.406,7.489 -0.286,0.011 -0.52,-0.184 -0.559,-0.465 -0.02,-0.277 0.215,-0.481 0.496,-0.52 8.117,0.664 22.094,-4.113 32.512,-10.097 3.703,-2.149 7.48,-3.926 11.203,-5.371 -4.074,0.781 -7.824,1.777 -10.813,3.015 -8.183,3.43 -14.453,5.989 -20.046,6.418 -0.305,0.02 -0.54,-0.168 -0.559,-0.449 -0.059,-0.254 0.098,-0.488 0.383,-0.527 5.75,-1.875 12.82,-6.399 20.222,-9.758 3.868,-1.738 8.086,-3.082 12.383,-4.11 -5.769,0.489 -10.586,0.985 -12.754,1.309 -6.855,1.074 -12.91,1.738 -18.281,2.832 -0.293,0.02 -0.574,-0.156 -0.598,-0.43 -0.027,-0.285 0.161,-0.546 0.469,-0.558 5.481,-2.344 11.223,-4.375 18.781,-6.66 4.2,-1.278 12.239,-2.625 20.723,-3.504 -7.793,0.293 -15.684,0.722 -21.523,1.25 -9.168,0.781 -18.145,2.109 -25.059,3.808 -0.273,0.02 -0.559,-0.156 -0.605,-0.437 -0.039,-0.277 0.175,-0.539 0.429,-0.559 6.438,-3.34 15.137,-6.308 25.196,-7.773 3.222,-0.457 6.914,-0.918 10.878,-1.328 -4.609,0.039 -8.574,0.156 -11.152,0.371 -12.871,1.074 -26.562,5.527 -35.383,9.043 -0.222,0.136 -0.613,0.097 -0.769,-0.137 -0.117,-0.234 -0.012,-0.559 0.222,-0.684 8.207,-5.605 26.926,-13.652 48.032,-14.738 -47.082,0.117 -76.145,11.692 -84.973,28.684 -5.93,-11.387 -18.684,-20.313 -40.566,-25.02 9.277,2.969 16.777,6.531 21.472,9.727 0.266,0.156 0.395,0.547 0.239,0.82 -0.168,0.274 -0.61,0.32 -0.852,0.176 -10.449,-4.16 -26.582,-9.434 -41.738,-10.684 -3.047,-0.234 -7.742,-0.383 -13.211,-0.429 4.683,0.476 9.031,1.015 12.84,1.562 11.867,1.738 22.175,5.215 29.707,9.168 0.332,0.012 0.566,0.352 0.539,0.684 -0.051,0.304 -0.395,0.531 -0.727,0.5 -8.133,-1.993 -18.738,-3.535 -29.558,-4.532 -6.829,-0.586 -16.094,-1.093 -25.254,-1.425 9.968,1.035 19.394,2.617 24.328,4.113 8.914,2.664 15.679,5.086 22.168,7.859 0.332,0.039 0.594,0.313 0.574,0.645 -0.059,0.332 -0.391,0.566 -0.723,0.527 -6.367,-1.289 -13.507,-2.09 -21.543,-3.34 -2.558,-0.39 -8.269,-0.984 -15.089,-1.543 5.07,1.192 10.07,2.782 14.613,4.844 8.738,3.945 17.058,9.285 23.855,11.504 0.332,0.02 0.496,0.273 0.469,0.613 0,0 0,0 0,0.012 0.117,-0.098 0.254,-0.148 0.43,-0.137 0.324,0.039 0.547,0.34 0.527,0.664 -0.051,0.313 -0.332,0.547 -0.664,0.508 -0.305,-0.012 -0.527,-0.312 -0.508,-0.625 0.02,-0.156 0.078,-0.254 0.176,-0.351 -0.098,0.273 -0.352,0.468 -0.637,0.437 -6.59,-0.476 -13.992,-3.492 -23.648,-7.547 -3.488,-1.465 -7.91,-2.617 -12.688,-3.535 4.375,1.699 8.828,3.789 13.184,6.309 12.246,7.05 28.73,12.675 38.308,11.906 0.305,0.035 0.598,0.309 0.579,0.633 -0.039,0.293 -0.325,0.578 -0.645,0.527 -8.625,2.774 -24.277,-1.562 -39.394,-8.809 -24.336,-11.718 -45.625,-9.824 -49.024,-5.058 l 0.156,0.039 c 3.789,-3.848 24.961,-2.59 49.043,9.004 30.723,14.765 44.59,19.277 63.758,-6.524 l 0.102,-0.234 v 0.117 c 19.199,25.938 33.054,21.434 63.843,6.641 25.012,-12.039 39.661,-12.813 47.2,-8.496 l 1.308,-0.352 c -5.91,-3.613 -20.957,-5.41 -38.398,2.988" /><path
         id="path190"
         style="fill:none;stroke:#fab218;stroke-width:0.359;stroke-linecap:butt;stroke-linejoin:miter;stroke-miterlimit:4;stroke-dasharray:none;stroke-opacity:1"
         d="m 292.383,152.48 c -12.813,6.153 -26.106,9.844 -33.406,7.489 -0.286,0.011 -0.52,-0.184 -0.559,-0.465 -0.02,-0.277 0.215,-0.481 0.496,-0.52 8.117,0.664 22.094,-4.113 32.512,-10.097 3.703,-2.149 7.48,-3.926 11.203,-5.371 -4.074,0.781 -7.824,1.777 -10.813,3.015 -8.183,3.43 -14.453,5.989 -20.046,6.418 -0.305,0.02 -0.54,-0.168 -0.559,-0.449 -0.059,-0.254 0.098,-0.488 0.383,-0.527 5.75,-1.875 12.82,-6.399 20.222,-9.758 3.868,-1.738 8.086,-3.082 12.383,-4.11 -5.769,0.489 -10.586,0.985 -12.754,1.309 -6.855,1.074 -12.91,1.738 -18.281,2.832 -0.293,0.02 -0.574,-0.156 -0.598,-0.43 -0.027,-0.285 0.161,-0.546 0.469,-0.558 5.481,-2.344 11.223,-4.375 18.781,-6.66 4.2,-1.278 12.239,-2.625 20.723,-3.504 -7.793,0.293 -15.684,0.722 -21.523,1.25 -9.168,0.781 -18.145,2.109 -25.059,3.808 -0.273,0.02 -0.559,-0.156 -0.605,-0.437 -0.039,-0.277 0.175,-0.539 0.429,-0.559 6.438,-3.34 15.137,-6.308 25.196,-7.773 3.222,-0.457 6.914,-0.918 10.878,-1.328 -4.609,0.039 -8.574,0.156 -11.152,0.371 -12.871,1.074 -26.562,5.527 -35.383,9.043 -0.222,0.136 -0.613,0.097 -0.769,-0.137 -0.117,-0.234 -0.012,-0.559 0.222,-0.684 8.207,-5.605 26.926,-13.652 48.032,-14.738 -47.082,0.117 -76.145,11.692 -84.973,28.684 -5.93,-11.387 -18.684,-20.313 -40.566,-25.02 9.277,2.969 16.777,6.531 21.472,9.727 0.266,0.156 0.395,0.547 0.239,0.82 -0.168,0.274 -0.61,0.32 -0.852,0.176 -10.449,-4.16 -26.582,-9.434 -41.738,-10.684 -3.047,-0.234 -7.742,-0.383 -13.211,-0.429 4.683,0.476 9.031,1.015 12.84,1.562 11.867,1.738 22.175,5.215 29.707,9.168 0.332,0.012 0.566,0.352 0.539,0.684 -0.051,0.304 -0.395,0.531 -0.727,0.5 -8.133,-1.993 -18.738,-3.535 -29.558,-4.532 -6.829,-0.586 -16.094,-1.093 -25.254,-1.425 9.968,1.035 19.394,2.617 24.328,4.113 8.914,2.664 15.679,5.086 22.168,7.859 0.332,0.039 0.594,0.313 0.574,0.645 -0.059,0.332 -0.391,0.566 -0.723,0.527 -6.367,-1.289 -13.507,-2.09 -21.543,-3.34 -2.558,-0.39 -8.269,-0.984 -15.089,-1.543 5.07,1.192 10.07,2.782 14.613,4.844 8.738,3.945 17.058,9.285 23.855,11.504 0.332,0.02 0.496,0.273 0.469,0.613 0,0 0,0 0,0.012 0.117,-0.098 0.254,-0.148 0.43,-0.137 0.324,0.039 0.547,0.34 0.527,0.664 -0.051,0.313 -0.332,0.547 -0.664,0.508 -0.305,-0.012 -0.527,-0.312 -0.508,-0.625 0.02,-0.156 0.078,-0.254 0.176,-0.351 -0.098,0.273 -0.352,0.468 -0.637,0.437 -6.59,-0.476 -13.992,-3.492 -23.648,-7.547 -3.488,-1.465 -7.91,-2.617 -12.688,-3.535 4.375,1.699 8.828,3.789 13.184,6.309 12.246,7.05 28.73,12.675 38.308,11.906 0.305,0.035 0.598,0.309 0.579,0.633 -0.039,0.293 -0.325,0.578 -0.645,0.527 -8.625,2.774 -24.277,-1.562 -39.394,-8.809 -24.336,-11.718 -45.625,-9.824 -49.024,-5.058 l 0.156,0.039 c 3.789,-3.848 24.961,-2.59 49.043,9.004 30.723,14.765 44.59,19.277 63.758,-6.524 l 0.102,-0.234 v 0.117 c 19.199,25.938 33.054,21.434 63.843,6.641 25.012,-12.039 39.661,-12.813 47.2,-8.496 l 1.308,-0.352 c -5.91,-3.613 -20.957,-5.41 -38.398,2.988 z" /><path
         id="path192"
         style="fill:#fab218;fill-opacity:1;fill-rule:nonzero;stroke:none"
         d="M 96.0156,165.391 86.25,233.855 c -0.0469,0.286 -0.293,0.481 -0.5781,0.45 -0.3008,-0.028 -0.4961,-0.282 -0.4766,-0.575 l 4.2969,-58.203 -8.8086,63.868 c -0.0195,0.203 -0.1758,0.339 -0.3594,0.402 0.211,0.105 0.3594,0.301 0.3594,0.574 l -0.1367,1.133 c -0.0274,0.32 -0.3125,0.574 -0.6367,0.527 -0.3399,-0.019 -0.5664,-0.332 -0.5235,-0.652 l 0.125,-1.156 c 0.0196,-0.243 0.2071,-0.399 0.4297,-0.465 -0.1758,-0.09 -0.3125,-0.246 -0.2851,-0.461 l 3.664,-59.414 -8.6211,69.648 c -0.0312,0.282 -0.2851,0.489 -0.5664,0.449 -0.293,-0.019 -0.5,-0.273 -0.4726,-0.546 l 3.5468,-66.094 -7.5195,76.711 c 7.0508,5.804 15.332,15.832 19.5508,25.258 L 103.34,156.621 91.7578,231.563 c -0.0195,0.292 -0.2539,0.496 -0.5469,0.476 -0.3125,-0.047 -0.5156,-0.293 -0.4687,-0.574 l 5.2734,-66.074" /><path
         id="path194"
         style="fill:none;stroke:#fab218;stroke-width:0.359;stroke-linecap:butt;stroke-linejoin:miter;stroke-miterlimit:4;stroke-dasharray:none;stroke-opacity:1"
         d="M 96.0156,165.391 86.25,233.855 c -0.0469,0.286 -0.293,0.481 -0.5781,0.45 -0.3008,-0.028 -0.4961,-0.282 -0.4766,-0.575 l 4.2969,-58.203 -8.8086,63.868 c -0.0195,0.203 -0.1758,0.339 -0.3594,0.402 0.211,0.105 0.3594,0.301 0.3594,0.574 l -0.1367,1.133 c -0.0274,0.32 -0.3125,0.574 -0.6367,0.527 -0.3399,-0.019 -0.5664,-0.332 -0.5235,-0.652 l 0.125,-1.156 c 0.0196,-0.243 0.2071,-0.399 0.4297,-0.465 -0.1758,-0.09 -0.3125,-0.246 -0.2851,-0.461 l 3.664,-59.414 -8.6211,69.648 c -0.0312,0.282 -0.2851,0.489 -0.5664,0.449 -0.293,-0.019 -0.5,-0.273 -0.4726,-0.546 l 3.5468,-66.094 -7.5195,76.711 c 7.0508,5.804 15.332,15.832 19.5508,25.258 L 103.34,156.621 91.7578,231.563 c -0.0195,0.292 -0.2539,0.496 -0.5469,0.476 -0.3125,-0.047 -0.5156,-0.293 -0.4687,-0.574 z" /><path
         id="path196"
         style="fill:#fab218;fill-opacity:1;fill-rule:nonzero;stroke:none"
         d="m 357.891,173.008 0.156,31.418 c 0.027,0.164 -0.227,0.308 -0.527,0.308 -0.325,0 -0.567,-0.183 -0.606,-0.359 l -5.41,-43.945 0.691,37.109 c 0,0.137 -0.144,0.234 -0.359,0.274 0.254,0.039 0.449,0.156 0.469,0.332 l 0.058,0.722 c 0.047,0.223 -0.246,0.371 -0.605,0.352 -0.32,0 -0.625,-0.176 -0.645,-0.391 l -0.09,-0.723 c 0,-0.156 0.188,-0.273 0.442,-0.312 -0.215,-0.039 -0.371,-0.148 -0.391,-0.285 l -5.945,-40.809 1.434,36.887 c 0.039,0.164 -0.196,0.34 -0.528,0.32 -0.305,-0.019 -0.566,-0.176 -0.566,-0.351 l -6.864,-46.282 2.196,44.387 c 0.019,0.176 -0.203,0.313 -0.528,0.313 -0.312,-0.032 -0.585,-0.176 -0.605,-0.332 l -6.328,-33.184 13.867,126.695 c 4.141,-9.269 12.195,-19.105 19.18,-24.957 l -8.496,-87.187" /><path
         id="path198"
         style="fill:none;stroke:#fab218;stroke-width:0.359;stroke-linecap:butt;stroke-linejoin:miter;stroke-miterlimit:4;stroke-dasharray:none;stroke-opacity:1"
         d="m 357.891,173.008 0.156,31.418 c 0.027,0.164 -0.227,0.308 -0.527,0.308 -0.325,0 -0.567,-0.183 -0.606,-0.359 l -5.41,-43.945 0.691,37.109 c 0,0.137 -0.144,0.234 -0.359,0.274 0.254,0.039 0.449,0.156 0.469,0.332 l 0.058,0.722 c 0.047,0.223 -0.246,0.371 -0.605,0.352 -0.32,0 -0.625,-0.176 -0.645,-0.391 l -0.09,-0.723 c 0,-0.156 0.188,-0.273 0.442,-0.312 -0.215,-0.039 -0.371,-0.148 -0.391,-0.285 l -5.945,-40.809 1.434,36.887 c 0.039,0.164 -0.196,0.34 -0.528,0.32 -0.305,-0.019 -0.566,-0.176 -0.566,-0.351 l -6.864,-46.282 2.196,44.387 c 0.019,0.176 -0.203,0.313 -0.528,0.313 -0.312,-0.032 -0.585,-0.176 -0.605,-0.332 l -6.328,-33.184 13.867,126.695 c 4.141,-9.269 12.195,-19.105 19.18,-24.957 z" /><path
         id="path200"
         style="fill:#231f20;fill-opacity:1;fill-rule:nonzero;stroke:none"
         d="m 264.746,135.605 c 0.266,-0.039 0.547,0.176 0.586,0.45 0,0.273 -0.195,0.527 -0.449,0.566 -0.313,0.02 -0.547,-0.176 -0.586,-0.449 -0.02,-0.274 0.176,-0.508 0.449,-0.567" /><path
         id="path202"
         style="fill:#231f20;fill-opacity:1;fill-rule:nonzero;stroke:none"
         d="m 263.914,136.172 c 0.285,-0.039 0.52,0.176 0.559,0.449 0.019,0.254 -0.176,0.516 -0.45,0.567 -0.273,0.007 -0.507,-0.176 -0.566,-0.469 -0.019,-0.274 0.176,-0.528 0.457,-0.547" /><path
         id="path204"
         style="fill:#231f20;fill-opacity:1;fill-rule:nonzero;stroke:none"
         d="m 262.527,137.422 c 0.293,-0.039 0.539,0.156 0.578,0.449 0.02,0.274 -0.195,0.527 -0.468,0.547 -0.293,0.02 -0.496,-0.176 -0.547,-0.441 -0.02,-0.282 0.156,-0.516 0.437,-0.555" /><path
         id="path206"
         style="fill:#231f20;fill-opacity:1;fill-rule:nonzero;stroke:none"
         d="m 253.762,136.738 c -0.278,0.039 -0.539,-0.156 -0.547,-0.429 -0.024,-0.293 0.176,-0.528 0.445,-0.567 0.285,0 0.528,0.176 0.559,0.469 0.011,0.262 -0.196,0.508 -0.457,0.527" /><path
         id="path208"
         style="fill:#231f20;fill-opacity:1;fill-rule:nonzero;stroke:none"
         d="m 252.109,137.871 c -0.273,0.027 -0.527,-0.176 -0.586,-0.449 0,-0.285 0.196,-0.547 0.469,-0.578 0.281,-0.028 0.528,0.207 0.559,0.461 0.039,0.273 -0.18,0.527 -0.442,0.566" /><path
         id="path210"
         style="fill:#231f20;fill-opacity:1;fill-rule:nonzero;stroke:none"
         d="m 270.723,152.52 c 0.254,-0.02 0.507,0.183 0.527,0.468 0.02,0.254 -0.164,0.508 -0.43,0.535 -0.273,0.032 -0.507,-0.164 -0.566,-0.437 0,-0.285 0.176,-0.527 0.469,-0.566" /><path
         id="path212"
         style="fill:#231f20;fill-opacity:1;fill-rule:nonzero;stroke:none"
         d="m 268.906,152.801 c 0.293,-0.02 0.528,0.187 0.547,0.461 0.02,0.254 -0.156,0.527 -0.437,0.547 -0.286,0.031 -0.52,-0.188 -0.539,-0.45 -0.039,-0.273 0.156,-0.519 0.429,-0.558" /><path
         id="path214"
         style="fill:#231f20;fill-opacity:1;fill-rule:nonzero;stroke:none"
         d="m 266.309,152.801 c 0.273,-0.02 0.539,0.187 0.554,0.461 0.012,0.261 -0.164,0.527 -0.457,0.547 -0.254,0.031 -0.508,-0.157 -0.547,-0.442 -0.019,-0.281 0.196,-0.527 0.45,-0.566" /><path
         id="path216"
         style="fill:#231f20;fill-opacity:1;fill-rule:nonzero;stroke:none"
         d="m 270.82,142.684 c -0.019,-0.282 0.157,-0.536 0.43,-0.575 0.313,-0.019 0.547,0.176 0.574,0.469 0.031,0.254 -0.164,0.527 -0.457,0.547 -0.281,0.02 -0.508,-0.164 -0.547,-0.441" /><path
         id="path218"
         style="fill:#231f20;fill-opacity:1;fill-rule:nonzero;stroke:none"
         d="m 268.906,142.969 c 0.293,-0.02 0.528,0.156 0.547,0.449 0.02,0.254 -0.156,0.527 -0.437,0.547 -0.286,0.019 -0.52,-0.176 -0.539,-0.449 -0.039,-0.293 0.156,-0.52 0.429,-0.547" /><path
         id="path220"
         style="fill:#231f20;fill-opacity:1;fill-rule:nonzero;stroke:none"
         d="m 257.109,159.902 c -0.273,0.028 -0.527,-0.156 -0.546,-0.429 -0.04,-0.274 0.148,-0.547 0.429,-0.578 0.274,-0.028 0.508,0.187 0.547,0.46 0.02,0.254 -0.176,0.528 -0.43,0.547" /><path
         id="path222"
         style="fill:#231f20;fill-opacity:1;fill-rule:nonzero;stroke:none"
         d="m 254.465,159.043 c -0.277,0.039 -0.52,-0.176 -0.559,-0.43 -0.019,-0.273 0.164,-0.527 0.481,-0.558 0.23,-0.039 0.476,0.168 0.496,0.453 0.058,0.281 -0.156,0.515 -0.418,0.535" /><path
         id="path224"
         style="fill:#231f20;fill-opacity:1;fill-rule:nonzero;stroke:none"
         d="m 186.582,135.605 c -0.312,-0.039 -0.547,-0.312 -0.527,-0.644 0.05,-0.332 0.312,-0.566 0.664,-0.52 0.312,0.012 0.527,0.332 0.508,0.657 -0.039,0.312 -0.313,0.566 -0.645,0.507" /><path
         id="path226"
         style="fill:#231f20;fill-opacity:1;fill-rule:nonzero;stroke:none"
         d="m 187.559,136.27 c -0.313,-0.04 -0.528,-0.332 -0.528,-0.665 0.059,-0.304 0.332,-0.546 0.684,-0.507 0.305,0.019 0.547,0.312 0.508,0.644 -0.071,0.313 -0.332,0.567 -0.664,0.528" /><path
         id="path228"
         style="fill:#231f20;fill-opacity:1;fill-rule:nonzero;stroke:none"
         d="m 189.211,137.734 c -0.344,-0.031 -0.559,-0.332 -0.539,-0.625 0.039,-0.351 0.312,-0.586 0.652,-0.546 0.324,0.019 0.559,0.312 0.52,0.664 -0.02,0.293 -0.305,0.546 -0.633,0.507" /><path
         id="path230"
         style="fill:#231f20;fill-opacity:1;fill-rule:nonzero;stroke:none"
         d="m 199.688,135.781 c -0.352,-0.039 -0.567,-0.332 -0.567,-0.644 0.059,-0.332 0.352,-0.586 0.684,-0.539 0.312,0.019 0.547,0.324 0.508,0.656 -0.02,0.312 -0.333,0.566 -0.625,0.527" /><path
         id="path232"
         style="fill:#231f20;fill-opacity:1;fill-rule:nonzero;stroke:none"
         d="m 201.621,137.09 c -0.332,-0.02 -0.535,-0.352 -0.516,-0.645 0.028,-0.332 0.321,-0.586 0.653,-0.539 0.32,0.032 0.547,0.324 0.508,0.657 -0.039,0.3 -0.313,0.566 -0.645,0.527" /><path
         id="path234"
         style="fill:#231f20;fill-opacity:1;fill-rule:nonzero;stroke:none"
         d="m 181.672,155.879 c -0.305,-0.02 -0.539,-0.332 -0.539,-0.637 0.058,-0.34 0.351,-0.574 0.683,-0.535 0.332,0.027 0.555,0.313 0.508,0.645 -0.039,0.332 -0.304,0.566 -0.652,0.527" /><path
         id="path236"
         style="fill:#231f20;fill-opacity:1;fill-rule:nonzero;stroke:none"
         d="m 184.746,155.879 c -0.312,-0.02 -0.535,-0.332 -0.535,-0.637 0.027,-0.34 0.32,-0.554 0.684,-0.535 0.3,0.039 0.515,0.313 0.503,0.645 -0.046,0.332 -0.3,0.566 -0.652,0.527" /><path
         id="path238"
         style="fill:#231f20;fill-opacity:1;fill-rule:nonzero;stroke:none"
         d="m 178.906,143.281 c -0.32,-0.039 -0.547,-0.312 -0.527,-0.644 0.039,-0.332 0.312,-0.567 0.652,-0.547 0.305,0.058 0.539,0.351 0.52,0.664 -0.039,0.332 -0.313,0.566 -0.645,0.527" /><path
         id="path240"
         style="fill:#231f20;fill-opacity:1;fill-rule:nonzero;stroke:none"
         d="m 181.672,144.258 c -0.305,-0.031 -0.539,-0.313 -0.539,-0.645 0.058,-0.332 0.351,-0.547 0.683,-0.527 0.332,0.039 0.555,0.332 0.508,0.664 -0.039,0.313 -0.304,0.547 -0.652,0.508" /><path
         id="path242"
         style="fill:#231f20;fill-opacity:1;fill-rule:nonzero;stroke:none"
         d="m 195.73,163.066 c -0.3,-0.019 -0.535,-0.332 -0.515,-0.625 0.027,-0.351 0.312,-0.586 0.664,-0.539 0.312,0.032 0.547,0.313 0.527,0.657 -0.051,0.293 -0.343,0.546 -0.676,0.507" /><path
         id="path244"
         style="fill:#231f20;fill-opacity:1;fill-rule:nonzero;stroke:none"
         d="m 199.512,161.543 c -0.039,0.312 -0.332,0.547 -0.657,0.508 -0.339,-0.02 -0.566,-0.324 -0.554,-0.625 0.058,-0.332 0.351,-0.567 0.676,-0.547 0.32,0.027 0.554,0.332 0.535,0.664" /><path
         id="path246"
         style="fill:#231f20;fill-opacity:1;fill-rule:nonzero;stroke:none"
         d="m 352.031,203.367 c -0.343,-0.008 -0.664,-0.183 -0.664,-0.398 -0.019,-0.188 0.254,-0.34 0.606,-0.34 0.351,0.027 0.644,0.172 0.683,0.398 0,0.176 -0.273,0.34 -0.625,0.34" /><path
         id="path248"
         style="fill:#231f20;fill-opacity:1;fill-rule:nonzero;stroke:none"
         d="m 352.219,205.332 c -0.344,0 -0.664,-0.176 -0.664,-0.391 -0.032,-0.214 0.254,-0.351 0.574,-0.351 0.351,0 0.644,0.156 0.684,0.39 0,0.176 -0.274,0.352 -0.594,0.352" /><path
         id="path250"
         style="fill:#231f20;fill-opacity:1;fill-rule:nonzero;stroke:none"
         d="m 352.012,201.57 c -0.352,-0.019 -0.664,-0.183 -0.664,-0.398 l -0.078,-0.723 c -0.02,-0.207 0.253,-0.351 0.605,-0.351 0.344,0 0.645,0.195 0.645,0.371 l 0.097,0.761 c 0.02,0.184 -0.254,0.34 -0.605,0.34" /><path
         id="path252"
         style="fill:#231f20;fill-opacity:1;fill-rule:nonzero;stroke:none"
         d="m 340.898,195.848 c -0.332,-0.02 -0.625,-0.203 -0.664,-0.399 0,-0.215 0.274,-0.371 0.625,-0.351 0.325,0.019 0.625,0.175 0.645,0.39 0.019,0.203 -0.242,0.36 -0.606,0.36" /><path
         id="path254"
         style="fill:#231f20;fill-opacity:1;fill-rule:nonzero;stroke:none"
         d="m 340.723,193.945 c -0.352,-0.019 -0.664,-0.195 -0.664,-0.41 l -0.079,-0.722 c 0,-0.196 0.254,-0.372 0.618,-0.352 0.34,0 0.652,0.168 0.664,0.371 l 0.066,0.742 c 0.012,0.196 -0.273,0.371 -0.605,0.371" /><path
         id="path256"
         style="fill:#231f20;fill-opacity:1;fill-rule:nonzero;stroke:none"
         d="m 346.406,197.227 c -0.32,0 -0.636,-0.157 -0.664,-0.364 -0.019,-0.191 0.254,-0.371 0.606,-0.371 0.351,0.02 0.656,0.188 0.656,0.391 0.027,0.207 -0.246,0.375 -0.598,0.344" /><path
         id="path258"
         style="fill:#231f20;fill-opacity:1;fill-rule:nonzero;stroke:none"
         d="m 346.738,199.531 c -0.351,-0.019 -0.644,-0.195 -0.652,-0.39 -0.031,-0.215 0.223,-0.383 0.594,-0.364 0.351,0.012 0.625,0.188 0.656,0.383 0.027,0.195 -0.246,0.371 -0.598,0.371" /><path
         id="path260"
         style="fill:#231f20;fill-opacity:1;fill-rule:nonzero;stroke:none"
         d="m 346.348,195.957 c -0.352,0 -0.645,-0.176 -0.664,-0.391 l -0.059,-0.742 c -0.02,-0.207 0.234,-0.351 0.574,-0.344 0.364,0.024 0.676,0.168 0.696,0.372 l 0.058,0.734 c 0.02,0.215 -0.273,0.371 -0.605,0.371" /><path
         id="path262"
         style="fill:#231f20;fill-opacity:1;fill-rule:nonzero;stroke:none"
         d="m 358.125,209.043 c -0.352,-0.02 -0.652,-0.176 -0.684,-0.391 0,-0.207 0.274,-0.351 0.594,-0.351 0.363,0 0.676,0.183 0.695,0.39 0.02,0.204 -0.261,0.372 -0.605,0.352" /><path
         id="path264"
         style="fill:#231f20;fill-opacity:1;fill-rule:nonzero;stroke:none"
         d="m 357.883,206.563 c -0.344,-0.02 -0.664,-0.196 -0.664,-0.391 l -0.063,-0.742 c 0,-0.207 0.239,-0.371 0.598,-0.364 0.332,0.012 0.613,0.188 0.644,0.383 l 0.086,0.742 c 0.024,0.215 -0.269,0.372 -0.601,0.372" /><path
         id="path266"
         style="fill:#231f20;fill-opacity:1;fill-rule:nonzero;stroke:none"
         d="m 358.293,211.113 c -0.355,-0.011 -0.637,-0.207 -0.676,-0.39 0,-0.215 0.266,-0.371 0.598,-0.371 0.359,0.019 0.652,0.203 0.672,0.41 0,0.176 -0.274,0.351 -0.594,0.351" /><path
         id="path268"
         style="fill:#231f20;fill-opacity:1;fill-rule:nonzero;stroke:none"
         d="m 358.105,208.105 c -0.351,-0.011 -0.664,-0.175 -0.664,-0.351 l -0.07,-0.774 c -0.008,-0.203 0.246,-0.347 0.59,-0.347 0.352,0.027 0.652,0.164 0.652,0.379 l 0.098,0.75 c 0.019,0.187 -0.254,0.343 -0.606,0.343" /><path
         id="path270"
         style="fill:#231f20;fill-opacity:1;fill-rule:nonzero;stroke:none"
         d="m 79.6289,247.215 c 0.3125,0.031 0.5469,0.324 0.5274,0.668 -0.0391,0.301 -0.3321,0.555 -0.6641,0.504 -0.3125,-0.028 -0.5469,-0.321 -0.5274,-0.633 0.0586,-0.324 0.3204,-0.578 0.6641,-0.539" /><path
         id="path272"
         style="fill:#231f20;fill-opacity:1;fill-rule:nonzero;stroke:none"
         d="m 79.8242,250.977 c -0.039,0.332 -0.332,0.546 -0.664,0.527 -0.3125,-0.039 -0.5469,-0.324 -0.5079,-0.656 0.0508,-0.321 0.3125,-0.575 0.6446,-0.535 0.3203,0.039 0.5469,0.351 0.5273,0.664" /><path
         id="path274"
         style="fill:#231f20;fill-opacity:1;fill-rule:nonzero;stroke:none"
         d="m 79.6563,245.535 c -0.3204,-0.027 -0.5547,-0.32 -0.5157,-0.664 l 0.1289,-1.141 c 0.0274,-0.332 0.3203,-0.566 0.6407,-0.527 0.332,0.039 0.539,0.332 0.5312,0.664 L 80.3125,245 c -0.0391,0.332 -0.3125,0.574 -0.6562,0.535" /><path
         id="path276"
         style="fill:#231f20;fill-opacity:1;fill-rule:nonzero;stroke:none"
         d="m 91.0938,237.422 c -0.0391,0.312 -0.3125,0.555 -0.6446,0.527 -0.3125,-0.039 -0.5547,-0.351 -0.5273,-0.644 0.039,-0.34 0.332,-0.586 0.664,-0.547 0.3321,0.019 0.5469,0.351 0.5079,0.664" /><path
         id="path278"
         style="fill:#231f20;fill-opacity:1;fill-rule:nonzero;stroke:none"
         d="m 91.5742,233.242 -0.1601,1.133 c -0.0157,0.332 -0.3203,0.555 -0.6328,0.527 -0.3125,-0.039 -0.5469,-0.332 -0.5274,-0.644 l 0.1289,-1.153 c 0.0274,-0.351 0.3203,-0.566 0.6445,-0.527 0.3282,0.02 0.5743,0.332 0.5469,0.664" /><path
         id="path280"
         style="fill:#231f20;fill-opacity:1;fill-rule:nonzero;stroke:none"
         d="m 85.332,238.223 c 0.3516,0.039 0.5782,0.332 0.5586,0.664 -0.0508,0.312 -0.3437,0.554 -0.6562,0.515 -0.3321,-0.027 -0.5664,-0.32 -0.5469,-0.632 0.0391,-0.332 0.3242,-0.586 0.6445,-0.547" /><path
         id="path282"
         style="fill:#231f20;fill-opacity:1;fill-rule:nonzero;stroke:none"
         d="m 85.3906,242.48 c -0.0586,0.313 -0.3437,0.555 -0.664,0.508 -0.3203,0 -0.5469,-0.312 -0.5274,-0.625 0.0274,-0.332 0.3321,-0.566 0.6641,-0.527 0.3203,0.027 0.5469,0.32 0.5273,0.644" /><path
         id="path284"
         style="fill:#231f20;fill-opacity:1;fill-rule:nonzero;stroke:none"
         d="m 85.3906,237.363 c -0.332,-0.039 -0.5664,-0.332 -0.5273,-0.652 l 0.1172,-1.164 c 0.0312,-0.332 0.3203,-0.567 0.664,-0.527 0.3125,0.019 0.5352,0.332 0.5078,0.664 l -0.1171,1.132 c -0.0274,0.352 -0.3125,0.586 -0.6446,0.547" /><path
         id="path286"
         style="fill:#231f20;fill-opacity:1;fill-rule:nonzero;stroke:none"
         d="m 73.4961,255.422 c 0.3125,0.027 0.5547,0.34 0.5273,0.652 -0.0312,0.313 -0.3125,0.547 -0.6445,0.528 -0.332,-0.039 -0.5547,-0.344 -0.5351,-0.645 0.039,-0.332 0.3203,-0.586 0.6523,-0.535" /><path
         id="path288"
         style="fill:#231f20;fill-opacity:1;fill-rule:nonzero;stroke:none"
         d="m 73.7969,252.656 c -0.3125,-0.019 -0.5547,-0.332 -0.5156,-0.652 l 0.1093,-1.164 c 0.0352,-0.313 0.3203,-0.567 0.6328,-0.527 0.3516,0.039 0.5664,0.351 0.5469,0.664 l -0.1172,1.152 c -0.039,0.332 -0.332,0.566 -0.6562,0.527" /><path
         id="path290"
         style="fill:#231f20;fill-opacity:1;fill-rule:nonzero;stroke:none"
         d="m 73.7109,259.344 c -0.039,0.312 -0.332,0.547 -0.664,0.523 -0.3125,-0.031 -0.5586,-0.328 -0.5156,-0.64 0.0273,-0.321 0.3125,-0.575 0.6328,-0.516 0.332,0.008 0.5664,0.301 0.5468,0.633" /><path
         id="path292"
         style="fill:#231f20;fill-opacity:1;fill-rule:nonzero;stroke:none"
         d="m 73.7109,252.793 c 0.3125,0.02 0.5664,0.312 0.5274,0.625 l -0.1172,1.152 c -0.0273,0.332 -0.3242,0.594 -0.6445,0.559 -0.3321,-0.031 -0.5664,-0.344 -0.5274,-0.676 l 0.1055,-1.152 c 0.0508,-0.332 0.3359,-0.547 0.6562,-0.508" /><path
         id="path294"
         style="fill:#231f20;fill-opacity:1;fill-rule:nonzero;stroke:none"
         d="m 177.676,297.262 -0.606,5.754 c -4.922,-0.985 -10,-2.625 -15.156,-4.965 l 0.527,-4.949 c 5.286,2.082 10.372,3.429 15.235,4.16" /><path
         id="path296"
         style="fill:#231f20;fill-opacity:1;fill-rule:nonzero;stroke:none"
         d="m 105.645,280.715 c -1.778,0.504 -3.516,1.168 -5.247,1.906 l 0.254,-2.48 c 1.594,-0.684 3.352,-1.309 5.207,-1.844 l -0.214,2.418" /><path
         id="path298"
         style="fill:#231f20;fill-opacity:1;fill-rule:nonzero;stroke:none"
         d="m 114.504,276.723 -0.234,2.519 c -1.457,0.094 -2.883,0.215 -4.329,0.446 l 0.215,-2.387 c 1.426,-0.274 2.871,-0.461 4.348,-0.578" /><path
         id="path300"
         style="fill:#231f20;fill-opacity:1;fill-rule:nonzero;stroke:none"
         d="m 142.148,282.582 -0.312,3.254 c -3.887,-2.273 -8.047,-3.973 -12.422,-5.129 l 0.293,-2.969 c 4.082,0.969 8.242,2.551 12.441,4.844" /><path
         id="path302"
         style="fill:#231f20;fill-opacity:1;fill-rule:nonzero;stroke:none"
         d="m 158.359,291.383 -0.468,4.758 c -3.789,-2.024 -7.598,-4.422 -11.328,-7.262 -0.254,-0.188 -0.508,-0.301 -0.762,-0.5 l 0.351,-3.559 c 4.161,2.598 8.25,4.785 12.207,6.563" /><path
         id="path304"
         style="fill:#231f20;fill-opacity:1;fill-rule:nonzero;stroke:none"
         d="m 125.566,276.949 -0.253,2.762 c -2.254,-0.375 -4.532,-0.668 -6.817,-0.711 l 0.234,-2.48 c 2.227,0 4.493,0.089 6.836,0.429" /><path
         id="path306"
         style="fill:#231f20;fill-opacity:1;fill-rule:nonzero;stroke:none"
         d="m 147.234,273.477 0.344,-3.532 c 4.219,2.532 8.281,4.649 12.266,6.418 l -0.449,4.649 c -4.043,-2.082 -8.106,-4.508 -12.09,-7.489 -0.032,-0.027 -0.039,-0.039 -0.071,-0.046" /><path
         id="path308"
         style="fill:#231f20;fill-opacity:1;fill-rule:nonzero;stroke:none"
         d="m 131.152,262.836 c 4.075,1.012 8.25,2.652 12.434,4.922 l -0.305,3.215 c -3.828,-2.293 -8.008,-4.063 -12.402,-5.274 l 0.273,-2.863" /><path
         id="path310"
         style="fill:#231f20;fill-opacity:1;fill-rule:nonzero;stroke:none"
         d="m 111.66,261.879 c 1.406,-0.219 2.844,-0.359 4.336,-0.445 l -0.234,2.476 c -1.426,0.059 -2.879,0.129 -4.317,0.309 l 0.215,-2.34" /><path
         id="path312"
         style="fill:#231f20;fill-opacity:1;fill-rule:nonzero;stroke:none"
         d="m 163.879,277.926 c 5.32,2.054 10.476,3.578 15.262,4.265 l -0.555,5.524 c -4.914,-0.934 -10.012,-2.652 -15.168,-4.942 l 0.461,-4.847" /><path
         id="path314"
         style="fill:#231f20;fill-opacity:1;fill-rule:nonzero;stroke:none"
         d="m 120.215,261.355 c 2.207,0.079 4.473,0.235 6.805,0.618 l -0.243,2.652 c -2.226,-0.414 -4.504,-0.734 -6.804,-0.84 l 0.242,-2.43" /><path
         id="path316"
         style="fill:#231f20;fill-opacity:1;fill-rule:nonzero;stroke:none"
         d="m 107.168,265.113 c -1.777,0.434 -3.516,1.028 -5.234,1.7 l 0.246,-2.454 c 1.59,-0.64 3.328,-1.152 5.203,-1.617 l -0.215,2.371" /><path
         id="path318"
         style="fill:#231f20;fill-opacity:1;fill-rule:nonzero;stroke:none"
         d="m 113.164,246.504 c 1.406,-0.203 2.832,-0.285 4.316,-0.332 l -0.234,2.402 c -1.445,0.028 -2.871,0.028 -4.297,0.196 l 0.215,-2.266" /><path
         id="path320"
         style="fill:#231f20;fill-opacity:1;fill-rule:nonzero;stroke:none"
         d="m 121.68,246.23 c 2.207,0.098 4.492,0.34 6.797,0.782 l -0.235,2.519 c -2.246,-0.488 -4.504,-0.761 -6.789,-0.929 l 0.227,-2.372" /><path
         id="path322"
         style="fill:#231f20;fill-opacity:1;fill-rule:nonzero;stroke:none"
         d="m 165.332,262.965 c 5.344,2.051 10.508,3.598 15.266,4.238 l -0.52,5.449 c -4.914,-0.929 -10.019,-2.695 -15.195,-4.961 l 0.449,-4.726" /><path
         id="path324"
         style="fill:#231f20;fill-opacity:1;fill-rule:nonzero;stroke:none"
         d="m 149.055,255.117 c 4.207,2.461 8.289,4.539 12.222,6.278 l -0.418,4.507 c -4.074,-2.047 -8.125,-4.422 -12.16,-7.328 l 0.356,-3.457" /><path
         id="path326"
         style="fill:#231f20;fill-opacity:1;fill-rule:nonzero;stroke:none"
         d="m 132.617,247.922 c 4.063,1.07 8.242,2.742 12.422,5.008 l -0.312,3.191 c -3.789,-2.32 -7.981,-4.156 -12.403,-5.457 l 0.293,-2.742" /><path
         id="path328"
         style="fill:#231f20;fill-opacity:1;fill-rule:nonzero;stroke:none"
         d="m 108.672,249.512 c -1.777,0.371 -3.496,0.898 -5.188,1.504 l 0.246,-2.442 c 1.563,-0.547 3.309,-1.023 5.184,-1.418 l -0.242,2.356" /><path
         id="path330"
         style="fill:#231f20;fill-opacity:1;fill-rule:nonzero;stroke:none"
         d="m 166.809,248.027 c 5.379,2.051 10.527,3.457 15.254,4.012 l -0.52,5.402 c -4.883,-0.859 -9.98,-2.57 -15.195,-4.804 l 0.461,-4.61" /><path
         id="path332"
         style="fill:#231f20;fill-opacity:1;fill-rule:nonzero;stroke:none"
         d="m 122.93,233.398 0.234,-2.304 c 2.195,0.183 4.453,0.476 6.777,0.957 l -0.234,2.422 c -2.227,-0.489 -4.512,-0.84 -6.777,-1.075" /><path
         id="path334"
         style="fill:#231f20;fill-opacity:1;fill-rule:nonzero;stroke:none"
         d="m 133.801,235.645 0.254,-2.637 c 4.05,1.133 8.218,2.832 12.422,5.097 l -0.305,3.125 c -3.762,-2.324 -7.93,-4.218 -12.371,-5.585" /><path
         id="path336"
         style="fill:#231f20;fill-opacity:1;fill-rule:nonzero;stroke:none"
         d="m 162.336,250.801 c -4.055,-2.012 -8.117,-4.297 -12.191,-7.149 l 0.324,-3.418 c 4.277,2.461 8.34,4.493 12.285,6.192 l -0.418,4.375" /><path
         id="path338"
         style="fill:#231f20;fill-opacity:1;fill-rule:nonzero;stroke:none"
         d="m 114.453,233.32 0.227,-2.234 c 1.375,-0.121 2.82,-0.188 4.285,-0.188 l -0.215,2.391 c -1.437,-0.047 -2.871,-0.066 -4.297,0.031" /><path
         id="path340"
         style="fill:#231f20;fill-opacity:1;fill-rule:nonzero;stroke:none"
         d="m 110.195,233.926 c -1.777,0.312 -3.484,0.742 -5.183,1.289 l 0.242,-2.383 c 1.562,-0.508 3.301,-0.898 5.156,-1.211 l -0.215,2.305" /><path
         id="path342"
         style="fill:#231f20;fill-opacity:1;fill-rule:nonzero;stroke:none"
         d="m 120.469,215.664 -0.235,2.285 c -1.445,-0.027 -2.871,-0.117 -4.277,-0.066 l 0.227,-2.199 c 1.375,-0.039 2.8,-0.071 4.285,-0.02" /><path
         id="path344"
         style="fill:#231f20;fill-opacity:1;fill-rule:nonzero;stroke:none"
         d="m 111.699,218.32 c -1.758,0.235 -3.476,0.625 -5.136,1.094 l 0.222,-2.344 c 1.535,-0.429 3.281,-0.742 5.141,-0.996 l -0.227,2.246" /><path
         id="path346"
         style="fill:#231f20;fill-opacity:1;fill-rule:nonzero;stroke:none"
         d="m 131.387,217.098 -0.215,2.355 c -2.227,-0.547 -4.492,-0.957 -6.758,-1.211 l 0.234,-2.246 c 2.188,0.215 4.434,0.586 6.739,1.102" /><path
         id="path348"
         style="fill:#231f20;fill-opacity:1;fill-rule:nonzero;stroke:none"
         d="m 163.801,235.742 c -4.043,-1.972 -8.117,-4.277 -12.199,-6.992 l 0.332,-3.359 c 4.277,2.402 8.359,4.394 12.265,6.074 l -0.398,4.277" /><path
         id="path350"
         style="fill:#231f20;fill-opacity:1;fill-rule:nonzero;stroke:none"
         d="m 168.262,233.086 c 5.437,2.051 10.547,3.34 15.285,3.828 l -0.527,5.293 c -4.868,-0.84 -9.954,-2.363 -15.215,-4.609 l 0.457,-4.512" /><path
         id="path352"
         style="fill:#231f20;fill-opacity:1;fill-rule:nonzero;stroke:none"
         d="m 147.91,223.289 -0.281,3.02 c -3.715,-2.325 -7.883,-4.239 -12.356,-5.645 l 0.215,-2.519 c 4.043,1.191 8.223,2.91 12.422,5.144" /><path
         id="path354"
         style="fill:#231f20;fill-opacity:1;fill-rule:nonzero;stroke:none"
         d="m 132.656,204.434 c -2.246,-0.586 -4.504,-1.055 -6.758,-1.348 l 0.215,-2.227 c 2.188,0.313 4.422,0.711 6.758,1.289 l -0.215,2.286" /><path
         id="path356"
         style="fill:#231f20;fill-opacity:1;fill-rule:nonzero;stroke:none"
         d="m 149.094,211.406 c -3.684,-2.324 -7.871,-4.258 -12.356,-5.781 l 0.227,-2.363 c 4.012,1.25 8.172,2.957 12.39,5.203 l -0.261,2.941" /><path
         id="path358"
         style="fill:#231f20;fill-opacity:1;fill-rule:nonzero;stroke:none"
         d="m 113.242,202.734 c -1.777,0.188 -3.469,0.469 -5.137,0.86 l 0.215,-2.285 c 1.524,-0.352 3.289,-0.586 5.118,-0.762 l -0.196,2.187" /><path
         id="path360"
         style="fill:#231f20;fill-opacity:1;fill-rule:nonzero;stroke:none"
         d="m 121.719,202.676 c -1.426,-0.098 -2.84,-0.254 -4.258,-0.235 l 0.227,-2.109 c 1.355,-0.012 2.781,0.039 4.265,0.117 l -0.234,2.227" /><path
         id="path362"
         style="fill:#231f20;fill-opacity:1;fill-rule:nonzero;stroke:none"
         d="m 169.707,218.145 c 5.527,2.05 10.574,3.242 15.273,3.652 l -0.488,5.41 c -4.863,-0.773 -9.961,-2.344 -15.215,-4.578 l 0.43,-4.484" /><path
         id="path364"
         style="fill:#231f20;fill-opacity:1;fill-rule:nonzero;stroke:none"
         d="m 165.234,220.82 c -4.004,-1.933 -8.066,-4.289 -12.187,-6.925 l 0.32,-3.379 c 4.336,2.355 8.41,4.328 12.297,5.988 l -0.43,4.316" /><path
         id="path366"
         style="fill:#231f20;fill-opacity:1;fill-rule:nonzero;stroke:none"
         d="m 123.223,187.371 c -1.414,-0.137 -2.832,-0.301 -4.258,-0.34 l 0.207,-2.051 c 1.336,0.04 2.781,0.125 4.266,0.254 l -0.215,2.137" /><path
         id="path368"
         style="fill:#231f20;fill-opacity:1;fill-rule:nonzero;stroke:none"
         d="m 171.172,203.262 c 5.508,2.07 10.586,3.359 15.312,3.64 l -0.507,5.188 c -4.883,-0.703 -9.961,-2.246 -15.247,-4.473 l 0.442,-4.355" /><path
         id="path370"
         style="fill:#231f20;fill-opacity:1;fill-rule:nonzero;stroke:none"
         d="m 114.758,187.137 c -1.77,0.109 -3.449,0.312 -5.11,0.625 l 0.196,-2.196 c 1.543,-0.273 3.261,-0.429 5.097,-0.515 l -0.183,2.086" /><path
         id="path372"
         style="fill:#231f20;fill-opacity:1;fill-rule:nonzero;stroke:none"
         d="m 150.535,196.465 c -3.582,-2.305 -7.801,-4.258 -12.359,-5.82 l 0.222,-2.266 c 4.012,1.316 8.165,3.027 12.422,5.234 l -0.285,2.852" /><path
         id="path374"
         style="fill:#231f20;fill-opacity:1;fill-rule:nonzero;stroke:none"
         d="m 166.719,205.781 c -3.985,-1.933 -8.067,-4.238 -12.207,-6.816 l 0.312,-3.274 c 4.336,2.336 8.438,4.329 12.305,5.969 l -0.41,4.121" /><path
         id="path376"
         style="fill:#231f20;fill-opacity:1;fill-rule:nonzero;stroke:none"
         d="m 134.121,189.383 c -2.226,-0.594 -4.473,-1.102 -6.766,-1.473 l 0.211,-2.148 c 2.161,0.351 4.446,0.84 6.758,1.465 l -0.203,2.156" /><path
         id="path378"
         style="fill:#231f20;fill-opacity:1;fill-rule:nonzero;stroke:none"
         d="m 111.191,171.934 0.196,-2.071 c 1.523,-0.215 3.23,-0.304 5.078,-0.343 l -0.203,2.043 c -1.77,0.019 -3.449,0.175 -5.071,0.371" /><path
         id="path380"
         style="fill:#231f20;fill-opacity:1;fill-rule:nonzero;stroke:none"
         d="m 172.637,188.309 c 5.566,2.101 10.593,3.273 15.293,3.449 l -0.52,5.215 c -4.851,-0.625 -9.922,-2.16 -15.222,-4.414 l 0.449,-4.25" /><path
         id="path382"
         style="fill:#231f20;fill-opacity:1;fill-rule:nonzero;stroke:none"
         d="m 155.977,184.004 0.312,-3.184 c 4.356,2.305 8.445,4.285 12.285,5.879 l -0.39,4.004 c -3.996,-1.902 -8.047,-4.16 -12.207,-6.699" /><path
         id="path384"
         style="fill:#231f20;fill-opacity:1;fill-rule:nonzero;stroke:none"
         d="m 151.836,181.434 c -3.477,-2.215 -7.676,-4.168 -12.168,-5.75 l 0.195,-2.168 c 4.016,1.347 8.157,3.086 12.383,5.254 l -0.254,2.761 c -0.058,-0.039 -0.097,-0.058 -0.156,-0.097" /><path
         id="path386"
         style="fill:#231f20;fill-opacity:1;fill-rule:nonzero;stroke:none"
         d="m 128.848,172.754 0.215,-2.051 c 2.148,0.391 4.394,0.957 6.726,1.582 l -0.203,2.09 c -2.227,-0.637 -4.473,-1.184 -6.738,-1.621" /><path
         id="path388"
         style="fill:#231f20;fill-opacity:1;fill-rule:nonzero;stroke:none"
         d="m 120.469,171.602 0.195,-1.954 c 1.356,0.098 2.781,0.223 4.238,0.411 l -0.195,2.031 c -1.426,-0.164 -2.844,-0.391 -4.238,-0.488" /><path
         id="path390"
         style="fill:#231f20;fill-opacity:1;fill-rule:nonzero;stroke:none"
         d="m 274.395,298.051 c -5.11,2.34 -10.196,3.98 -15.137,4.965 l -0.586,-3.129 c 4.844,-0.731 9.933,-2.09 15.254,-4.172 l 0.469,2.336" /><path
         id="path392"
         style="fill:#231f20;fill-opacity:1;fill-rule:nonzero;stroke:none"
         d="m 290.547,288.379 c -0.234,0.199 -0.508,0.312 -0.75,0.5 -3.742,2.84 -7.563,5.238 -11.379,7.262 l -0.43,-2.153 c 3.953,-1.773 8.028,-3.953 12.215,-6.547 l 0.344,0.938" /><path
         id="path394"
         style="fill:#231f20;fill-opacity:1;fill-rule:nonzero;stroke:none"
         d="m 289.102,273.477 c 0,0.007 -0.059,0.019 -0.059,0.046 -3.984,2.981 -8.027,5.407 -12.09,7.489 l -0.449,-2.032 c 3.965,-1.757 8.047,-3.89 12.258,-6.425 l 0.34,0.922" /><path
         id="path396"
         style="fill:#231f20;fill-opacity:1;fill-rule:nonzero;stroke:none"
         d="m 272.922,282.773 c -5.149,2.29 -10.266,4.008 -15.168,4.942 l -0.547,-2.93 c 4.805,-0.652 9.941,-2.183 15.254,-4.242 l 0.461,2.23" /><path
         id="path398"
         style="fill:#231f20;fill-opacity:1;fill-rule:nonzero;stroke:none"
         d="m 271.465,267.691 c -5.176,2.266 -10.305,4.032 -15.195,4.961 l -0.508,-2.851 c 4.734,-0.617 9.883,-2.188 15.215,-4.231 l 0.488,2.121" /><path
         id="path400"
         style="fill:#231f20;fill-opacity:1;fill-rule:nonzero;stroke:none"
         d="m 287.645,258.574 c -4.032,2.906 -8.094,5.281 -12.149,7.328 l -0.445,-1.898 c 3.953,-1.719 8.023,-3.805 12.273,-6.301 l 0.321,0.871" /><path
         id="path402"
         style="fill:#231f20;fill-opacity:1;fill-rule:nonzero;stroke:none"
         d="m 270,252.637 c -5.215,2.234 -10.305,3.945 -15.195,4.804 l -0.52,-2.773 c 4.746,-0.547 9.875,-1.992 15.266,-4.023 l 0.449,1.992" /><path
         id="path404"
         style="fill:#231f20;fill-opacity:1;fill-rule:nonzero;stroke:none"
         d="m 273.613,249.031 c 3.907,-1.707 7.969,-3.73 12.278,-6.199 l 0.3,0.82 c -4.05,2.852 -8.105,5.137 -12.175,7.149 l -0.403,-1.77" /><path
         id="path406"
         style="fill:#231f20;fill-opacity:1;fill-rule:nonzero;stroke:none"
         d="m 272.148,234.063 c 3.907,-1.68 7.981,-3.641 12.266,-6.055 l 0.332,0.742 c -4.101,2.715 -8.152,5.02 -12.195,6.992 l -0.403,-1.679" /><path
         id="path408"
         style="fill:#231f20;fill-opacity:1;fill-rule:nonzero;stroke:none"
         d="m 268.547,237.598 c -5.266,2.246 -10.344,3.769 -15.219,4.609 l -0.515,-2.687 c 4.726,-0.477 9.824,-1.778 15.273,-3.817 l 0.461,1.895" /><path
         id="path410"
         style="fill:#231f20;fill-opacity:1;fill-rule:nonzero;stroke:none"
         d="m 267.09,222.629 c -5.281,2.234 -10.36,3.805 -15.215,4.578 l -0.547,-2.805 c 4.727,-0.39 9.805,-1.589 15.313,-3.64 l 0.449,1.867" /><path
         id="path412"
         style="fill:#231f20;fill-opacity:1;fill-rule:nonzero;stroke:none"
         d="m 270.684,219.121 c 3.894,-1.66 7.929,-3.633 12.296,-5.976 l 0.333,0.75 c -4.133,2.636 -8.196,4.992 -12.2,6.925 l -0.429,-1.699" /><path
         id="path414"
         style="fill:#231f20;fill-opacity:1;fill-rule:nonzero;stroke:none"
         d="m 265.586,207.617 c -5.242,2.227 -10.344,3.77 -15.176,4.473 l -0.515,-2.559 c 4.683,-0.312 9.746,-1.601 15.281,-3.652 l 0.41,1.738" /><path
         id="path416"
         style="fill:#231f20;fill-opacity:1;fill-rule:nonzero;stroke:none"
         d="m 269.238,204.266 c 3.848,-1.61 7.95,-3.641 12.285,-5.977 l 0.325,0.676 c -4.133,2.578 -8.227,4.883 -12.219,6.816 l -0.391,-1.515" /><path
         id="path418"
         style="fill:#231f20;fill-opacity:1;fill-rule:nonzero;stroke:none"
         d="m 264.16,192.559 c -5.305,2.254 -10.371,3.789 -15.215,4.414 l -0.539,-2.578 c 4.692,-0.196 9.739,-1.387 15.324,-3.457 l 0.43,1.621" /><path
         id="path420"
         style="fill:#231f20;fill-opacity:1;fill-rule:nonzero;stroke:none"
         d="m 267.773,189.324 c 3.829,-1.59 7.903,-3.601 12.325,-5.879 l 0.293,0.559 c -4.18,2.539 -8.243,4.797 -12.227,6.699 l -0.391,-1.379" /><path
         id="path422"
         style="fill:#231f20;fill-opacity:1;fill-rule:nonzero;stroke:none"
         d="m 357.969,173.086 0.156,31.406 c 0.02,0.176 -0.227,0.313 -0.527,0.313 -0.313,0 -0.567,-0.176 -0.606,-0.352 l -5.41,-43.945 0.691,37.097 c 0,0.149 -0.144,0.227 -0.347,0.286 0.242,0.039 0.437,0.156 0.457,0.312 l 0.058,0.742 c 0.039,0.203 -0.246,0.371 -0.605,0.352 -0.32,-0.02 -0.625,-0.176 -0.645,-0.391 l -0.086,-0.722 c 0,-0.176 0.196,-0.262 0.45,-0.301 -0.215,-0.07 -0.383,-0.168 -0.403,-0.305 l -5.949,-40.801 1.438,36.875 c 0.039,0.176 -0.196,0.332 -0.52,0.313 -0.308,0 -0.574,-0.164 -0.574,-0.332 l -6.863,-46.289 2.183,44.375 c 0.031,0.176 -0.203,0.332 -0.515,0.332 -0.313,-0.039 -0.579,-0.188 -0.606,-0.352 l -6.328,-33.164 13.879,126.684 c 4.129,-9.254 12.195,-19.09 19.168,-24.946 z m -65.711,-20.488 c -12.805,6.172 -26.098,9.863 -33.403,7.5 -0.281,0.019 -0.527,-0.196 -0.566,-0.469 -0.008,-0.274 0.227,-0.481 0.52,-0.508 8.105,0.645 22.082,-4.121 32.492,-10.117 3.719,-2.141 7.488,-3.906 11.211,-5.352 -4.074,0.782 -7.832,1.778 -10.813,3.02 -8.183,3.406 -14.453,5.984 -20.039,6.394 -0.312,0.028 -0.547,-0.156 -0.574,-0.429 -0.051,-0.274 0.105,-0.508 0.391,-0.539 5.75,-1.864 12.82,-6.383 20.222,-9.754 3.867,-1.739 8.086,-3.086 12.383,-4.102 -5.762,0.477 -10.598,0.977 -12.754,1.309 -6.855,1.074 -12.91,1.738 -18.281,2.832 -0.293,0.019 -0.567,-0.156 -0.586,-0.43 -0.051,-0.293 0.144,-0.547 0.461,-0.558 5.484,-2.344 11.219,-4.364 18.777,-6.661 4.199,-1.277 12.239,-2.625 20.723,-3.515 -7.781,0.304 -15.684,0.734 -21.524,1.25 -9.168,0.793 -18.144,2.129 -25.058,3.82 -0.274,0.02 -0.547,-0.156 -0.606,-0.43 -0.039,-0.293 0.176,-0.546 0.43,-0.566 6.445,-3.34 15.149,-6.301 25.195,-7.773 3.223,-0.469 6.914,-0.938 10.871,-1.34 -4.601,0.05 -8.566,0.16 -11.132,0.363 -12.883,1.094 -26.575,5.547 -35.395,9.062 -0.223,0.137 -0.601,0.098 -0.762,-0.136 -0.125,-0.235 -0.015,-0.559 0.207,-0.684 8.223,-5.605 26.934,-13.672 48.04,-14.746 -47.083,0.125 -76.145,11.699 -84.985,28.691 -5.918,-11.386 -18.68,-20.332 -40.562,-25.031 9.285,2.961 16.785,6.535 21.472,9.739 0.282,0.156 0.391,0.546 0.242,0.82 -0.164,0.273 -0.601,0.312 -0.867,0.176 -10.429,-4.161 -26.55,-9.434 -41.738,-10.684 -3.027,-0.254 -7.727,-0.391 -13.184,-0.441 4.676,0.5 9.024,1.027 12.832,1.574 11.875,1.738 22.168,5.215 29.707,9.168 0.333,0.019 0.579,0.344 0.528,0.683 -0.028,0.305 -0.391,0.52 -0.723,0.5 -8.125,-1.992 -18.73,-3.535 -29.551,-4.531 -6.828,-0.605 -16.093,-1.113 -25.246,-1.445 9.953,1.035 19.399,2.625 24.321,4.121 8.914,2.676 15.671,5.098 22.168,7.871 0.32,0.039 0.593,0.313 0.574,0.645 -0.059,0.332 -0.391,0.566 -0.723,0.527 -6.367,-1.289 -13.508,-2.09 -21.543,-3.34 -2.566,-0.402 -8.281,-0.988 -15.09,-1.562 5.071,1.21 10.051,2.793 14.614,4.863 8.738,3.945 17.058,9.277 23.855,11.496 0.332,0.027 0.488,0.269 0.469,0.613 v 0 c 0.117,-0.09 0.262,-0.137 0.43,-0.117 0.332,0.039 0.546,0.332 0.515,0.645 -0.027,0.312 -0.32,0.566 -0.652,0.527 -0.313,-0.02 -0.528,-0.324 -0.52,-0.645 0.032,-0.136 0.102,-0.246 0.188,-0.351 -0.086,0.285 -0.352,0.469 -0.633,0.449 -6.594,-0.48 -13.996,-3.496 -23.652,-7.539 -3.489,-1.453 -7.903,-2.637 -12.688,-3.555 4.375,1.707 8.828,3.809 13.184,6.328 12.234,7.032 28.73,12.657 38.32,11.895 0.293,0.039 0.586,0.312 0.566,0.625 -0.039,0.312 -0.312,0.586 -0.644,0.547 -8.633,2.762 -24.277,-1.574 -39.395,-8.821 -24.336,-11.726 -45.617,-9.832 -49.023,-5.054 l 0.144,0.047 c 3.801,-3.86 24.973,-2.598 49.043,8.984 30.747,14.773 44.602,19.285 63.782,-6.516 l 0.078,-0.23 v 0.125 c 19.219,25.918 33.066,21.426 63.855,6.621 25,-12.023 39.66,-12.812 47.199,-8.496 l 1.309,-0.352 c -5.898,-3.601 -20.957,-5.39 -38.406,2.989 z m -72.629,-44.133 c -10.859,0 -20.313,2.668 -24.16,7.746 15.168,4.98 20.527,12.637 21.867,21.766 1.852,-8.985 8.816,-16.543 24.949,-21.551 -3.23,-5.215 -11.64,-7.961 -22.656,-7.961 z M 96.0938,165.281 86.3281,233.77 c -0.039,0.273 -0.2851,0.468 -0.5664,0.429 -0.2929,-0.019 -0.4961,-0.273 -0.4765,-0.566 l 4.2851,-58.203 -8.789,63.867 c -0.0196,0.215 -0.1836,0.34 -0.3711,0.398 0.2148,0.11 0.3711,0.305 0.3515,0.567 l -0.125,1.144 c -0.0312,0.313 -0.3125,0.567 -0.6367,0.528 -0.3437,-0.02 -0.5664,-0.332 -0.5273,-0.664 l 0.1171,-1.141 c 0.0274,-0.246 0.2149,-0.402 0.4415,-0.461 -0.1875,-0.109 -0.3125,-0.266 -0.2852,-0.469 l 3.6719,-59.414 -8.6328,69.649 c -0.0391,0.273 -0.293,0.488 -0.5664,0.449 -0.293,-0.02 -0.5079,-0.274 -0.4688,-0.547 l 3.5547,-66.074 -7.5195,76.687 c 7.0507,5.805 15.332,15.84 19.5429,25.27 L 103.438,156.523 91.8477,231.465 c -0.0196,0.293 -0.2461,0.5 -0.5586,0.469 -0.3125,-0.039 -0.5078,-0.286 -0.4688,-0.567 z M 91.9141,293.66 c 0.0507,-0.051 0.1093,-0.109 0.1562,-0.168 l -0.1836,-0.113 c 0.0078,0.098 0.0078,0.191 0.0274,0.281 z m 51.8749,1.375 c 19.551,13.145 35.176,18.641 47.051,17.235 5.019,-1.305 7.258,-4.997 8.476,-9.43 -5.371,1.375 -11.523,1.73 -18.086,0.89 l 0.586,-6 c 6.946,0.536 13.243,-0.304 18.75,-2.32 l 0.997,-8.539 c -5.508,1.75 -11.922,2.289 -18.836,1.477 l 0.574,-5.86 c 7.097,0.426 13.515,-0.648 19.121,-3.097 l 0.976,-8.418 c -5.546,2.148 -12.089,2.867 -19.187,2.109 l 0.555,-5.73 c 7.297,0.32 13.82,-1.047 19.519,-4.051 l 0.969,-8.321 c -5.606,2.637 -12.274,3.575 -19.539,2.872 l 0.555,-5.625 c 7.441,0.183 14.074,-1.543 19.902,-5.223 l 0.945,-8.215 c -5.672,3.301 -12.469,4.512 -19.929,3.906 l 0.539,-5.558 c 7.605,0.011 14.343,-2.157 20.359,-6.688 l 0.918,-8.047 c -5.781,4.161 -12.703,5.782 -20.352,5.274 l 0.536,-5.645 c 7.765,-0.195 14.574,-2.91 20.851,-8.508 l 0.918,-7.918 c -5.984,5.196 -13.047,7.247 -20.852,6.915 l 0.571,-5.586 c 7.847,-0.489 14.722,-3.868 21.355,-10.684 l 0.918,-7.812 c -6.269,6.406 -13.445,9.003 -21.355,8.867 l 0.574,-5.684 c 7.832,-0.793 14.785,-4.824 21.914,-12.988 l 0.984,-8.582 c -16.843,20.144 -38.32,11.316 -62.625,-4.621 -15.722,-10.332 -32.558,-17.012 -44.461,-14.629 L 94.4922,291.34 c 9.0238,-7.094 26.6288,-11.531 49.2968,3.695 z m 75.762,-117.074 c 8.066,10.379 15.808,15.367 24.629,16.277 l 0.578,3.067 c -9.531,0.175 -18.028,-3.645 -25.11,-13.34 l 0.157,9.707 c 8.047,10.332 16.258,15.293 25.879,15.867 l 0.554,2.981 c -10.34,0.449 -19.383,-3.34 -26.336,-13.028 l 0.164,9.922 c 7.981,10.145 16.692,14.961 27.102,15.234 l 0.535,3.028 c -11.133,0.742 -20.75,-3.02 -27.547,-12.637 l 0.176,10.098 c 7.891,9.941 17.148,14.621 28.281,14.621 l 0.547,2.937 c -11.875,0.965 -22.09,-2.687 -28.738,-12.101 l 0.164,10.304 c 7.793,9.649 17.605,14.239 29.512,13.946 l 0.547,3.008 c -12.618,1.211 -23.457,-2.442 -29.961,-11.575 l 0.168,10.364 c 7.703,9.359 18.093,13.871 30.691,13.324 l 0.586,3.117 c -13.359,1.426 -24.785,-2.32 -31.191,-11.203 l 0.175,10.527 c 7.617,9.02 18.575,13.508 31.934,12.688 l 0.566,3.254 c -14.043,1.648 -26.062,-2.207 -32.422,-10.805 l 0.176,10.617 c 7.559,8.711 19.063,13.289 33.153,12.195 l 0.597,3.375 c -14.433,1.833 -26.887,-2.019 -33.34,-10.035 0.606,2.606 2.317,7.707 6.641,11.871 -0.027,-0.011 -0.078,-0.023 -0.105,-0.035 14.351,12.063 39.109,6.555 64.492,-10.496 22.703,-15.25 40.32,-10.762 49.324,-3.664 l -13.496,-140.57 c -11.895,-2.383 -28.731,4.297 -44.473,14.629 -25.344,16.64 -47.656,25.508 -64.797,1.765 z m 148,90.887 c -8.938,8.621 -18.43,22.359 -18.781,32.429 -15.418,-19.004 -40.801,-6.281 -56.954,6.243 -29.433,22.773 -64.238,23.476 -75.128,-0.247 -10.973,23.079 -42.743,22.793 -71.883,0.247 -16.192,-12.524 -39.512,-22.016 -56.973,-6.243 -0.3125,-10.07 -9.8242,-23.808 -18.75,-32.429 H 59.2188 L 74.3555,109.922 h 2.3554 v -0.031 h 60.4571 c 20.801,0 36.348,1.3 47.969,3.644 4.863,-8.976 18.332,-12.949 34.621,-12.949 16.277,0 29.722,3.965 34.617,12.91 12.344,-2.316 28.359,-3.605 49.004,-3.605 h 53.723 l 0.066,0.148 h 4.805 l 15.144,158.809 h -9.566" /></g></g></svg>